<svg width="15" height="22" viewBox="0 0 15 22" fill="none" xmlns="http://www.w3.org/2000/svg">
<path d="M7.20111 0H7.12276C4.3121 0 2.03223 2.27987 2.03223 5.09306V8.4699C2.62368 7.99219 3.27579 7.60041 3.98098 7.30216C4.17055 7.22128 4.36518 7.14798 4.5598 7.08226V5.09053C4.5598 3.67509 5.70732 2.52505 7.12528 2.52505H7.20364C8.61908 2.52505 9.76912 3.67256 9.76912 5.09053C9.76912 5.68704 10.2519 6.16981 10.8484 6.16981H11.2174C11.814 6.16981 12.2967 5.68704 12.2967 5.09053C12.2942 2.27987 10.0143 0 7.20111 0Z" fill="white"/>
<path d="M7.16314 7.67119C6.24563 7.67119 5.36604 7.84306 4.55974 8.15901C3.59926 8.53309 2.73989 9.10938 2.03217 9.83732C0.773437 11.1289 0 12.8906 0 14.8369C0 18.7925 3.20749 22 7.16314 22C11.1188 22 14.3263 18.7925 14.3263 14.8369C14.3263 10.8812 11.1188 7.67119 7.16314 7.67119ZM7.91891 15.5294L8.46737 18.1303C8.50025 18.287 8.38143 18.4361 8.21964 18.4361H7.16314H6.10662C5.94485 18.4361 5.82603 18.2895 5.85891 18.1303L6.40737 15.5294C6.45034 15.3247 6.36443 15.1124 6.1875 15.0012C5.65416 14.6675 5.30285 14.0685 5.32052 13.3886C5.34579 12.4104 6.14198 11.6142 7.12015 11.5915C8.15901 11.5662 9.01077 12.4028 9.01077 13.4366C9.01077 14.0963 8.66452 14.6751 8.14379 15.0011C7.96436 15.1098 7.87589 15.3222 7.91891 15.5294Z" fill="white"/>
</svg>
