<svg width="64" height="64" viewBox="0 0 64 64" fill="none" xmlns="http://www.w3.org/2000/svg">
<path d="M54.637 0H9.36296C4.20148 0 0 4.20148 0 9.36296V45.6533C0 46.1689 0.420741 46.5896 0.936296 46.5896C1.45185 46.5896 1.87259 46.1689 1.87259 45.6533V9.36296C1.87259 5.23259 5.23259 1.87259 9.36296 1.87259H54.637C58.7674 1.87259 62.1274 5.23259 62.1274 9.36296V54.637C62.1274 58.7674 58.7674 62.1274 54.637 62.1274H9.36296C5.23259 62.1274 1.87259 58.7674 1.87259 54.637V49.3985C1.87259 48.883 1.45185 48.4622 0.936296 48.4622C0.420741 48.4622 0 48.883 0 49.3985V54.637C0 59.7985 4.20148 64 9.36296 64H54.637C59.7985 64 64 59.7985 64 54.637V9.36296C64 4.20148 59.7985 0 54.637 0Z" fill="white"/>
<path d="M12.9126 8.69922C10.5008 8.69922 8.53928 10.6607 8.53928 13.0725V15.2829H8.3378C5.78965 15.2829 3.71558 17.357 3.71558 19.9051C3.71558 22.4533 5.78965 24.5274 8.3378 24.5274H8.53928V50.9214C8.53928 53.3333 10.5008 55.2947 12.9126 55.2947C15.3245 55.2947 17.286 53.3333 17.286 50.9214V24.5333H17.4874C20.0356 24.5333 22.1097 22.4592 22.1097 19.9111C22.1097 17.3629 20.0356 15.2888 17.4874 15.2888H17.286V13.0785C17.286 10.6607 15.3245 8.69922 12.9126 8.69922ZM10.4119 13.0725C10.4119 11.6977 11.5319 10.5777 12.9126 10.5777C14.2874 10.5777 15.4074 11.6977 15.4074 13.0725V15.2829H10.4119V13.0725ZM15.4074 50.9273C15.4074 52.3021 14.2874 53.4221 12.9067 53.4221C11.5319 53.4221 10.4119 52.3021 10.4119 50.9273V24.5333H15.4074V50.9273ZM20.2371 19.9051C20.2371 21.4222 19.0045 22.6548 17.4874 22.6548H8.3378C6.82076 22.6548 5.58817 21.4222 5.58817 19.9051C5.58817 18.3881 6.82076 17.1555 8.3378 17.1555H17.4815C19.0045 17.1555 20.2371 18.394 20.2371 19.9051Z" fill="white"/>
<path d="M35.0934 9.98532C34.2696 9.16162 33.1733 8.70532 32 8.70532C29.5882 8.70532 27.6267 10.6668 27.6267 13.0787V36.1305H27.4252C24.8771 36.1305 22.803 38.2046 22.803 40.7527C22.803 43.3009 24.8771 45.375 27.4252 45.375H27.6267V50.9216C27.6267 53.3335 29.5882 55.295 32 55.295C34.4119 55.295 36.3733 53.3335 36.3733 50.9216V45.375H36.5748C39.123 45.375 41.1971 43.3009 41.1971 40.7527C41.1971 38.2046 39.123 36.1305 36.5748 36.1305H36.3733V13.0787C36.3733 11.9053 35.9171 10.809 35.0934 9.98532ZM29.5052 13.0727C29.5052 11.6979 30.6252 10.5779 32 10.5779C32.6696 10.5779 33.2919 10.8387 33.7659 11.3068C34.24 11.7809 34.4948 12.4031 34.4948 13.0727V36.1246H29.4993V13.0727H29.5052ZM34.4948 50.9275C34.4948 52.3024 33.3748 53.4224 32 53.4224C30.6252 53.4224 29.5052 52.3024 29.5052 50.9275V45.3809H34.5008L34.4948 50.9275ZM39.3245 40.7527C39.3245 42.2698 38.0919 43.5024 36.5748 43.5024H27.4252C25.9082 43.5024 24.6756 42.2698 24.6756 40.7527C24.6756 39.2357 25.9082 38.0031 27.4252 38.0031H36.5689C38.0919 38.0031 39.3245 39.2357 39.3245 40.7527Z" fill="white"/>
<path d="M54.5245 16.5451C55.04 16.5451 55.4607 16.1244 55.4607 15.6088V13.0725C55.4607 10.6607 53.4993 8.69922 51.0874 8.69922C48.6756 8.69922 46.7141 10.6607 46.7141 13.0725V24.3851H46.5126C43.9645 24.3851 41.8904 26.4592 41.8904 29.0073C41.8904 31.5555 43.9645 33.6296 46.5126 33.6296H46.7141V50.9214C46.7141 53.3333 48.6756 55.2947 51.0874 55.2947C53.4993 55.2947 55.4607 53.3333 55.4607 50.9214V33.6355H55.6622C58.2104 33.6355 60.2845 31.5614 60.2845 29.0133C60.2845 26.4651 58.2104 24.3911 55.6622 24.3911H55.4607V19.36C55.4607 18.8444 55.04 18.4237 54.5245 18.4237C54.0089 18.4237 53.5882 18.8444 53.5882 19.36V24.3911H48.5926V13.0725C48.5926 11.6977 49.7126 10.5777 51.0933 10.5777C52.4682 10.5777 53.5882 11.6977 53.5882 13.0725V15.6088C53.5882 16.1244 54.0089 16.5451 54.5245 16.5451ZM53.5882 50.9273C53.5882 52.3021 52.4682 53.4221 51.0874 53.4221C49.7126 53.4221 48.5926 52.3021 48.5926 50.9273V33.6355H53.5882V50.9273ZM58.4119 29.0133C58.4119 30.5303 57.1793 31.7629 55.6622 31.7629H46.5126C44.9956 31.7629 43.763 30.5303 43.763 29.0133C43.763 27.4962 44.9956 26.2636 46.5126 26.2636H55.6563C57.1793 26.2636 58.4119 27.4962 58.4119 29.0133Z" fill="white"/>
</svg>
