<svg width="64" height="64" viewBox="0 0 64 64" fill="none" xmlns="http://www.w3.org/2000/svg">
<g clip-path="url(#clip0)">
<path d="M60.6163 0.00585938H29.6533C27.7867 0.00585938 26.2756 1.39845 26.2756 3.10512V33.997C25.4281 33.8666 24.5215 33.7896 23.5793 33.7718V15.0933C23.5793 13.3036 21.9911 11.8518 20.0415 11.8518H3.53778C1.58815 11.8518 0 13.3036 0 15.0933V53.7836C0 55.5733 1.58815 57.0251 3.53778 57.0251H14.6667V60.6933C14.6667 62.0325 16.1896 62.8147 17.4637 63.2355C20.4148 64.2547 25.6593 64.2547 28.6104 63.2355C29.4519 62.957 30.0444 62.6429 30.4711 62.3229C31.0104 62.7318 31.6978 63.0281 32.3318 63.2355C35.283 64.2547 40.5274 64.2547 43.4785 63.2355C45.7896 62.471 46.2756 61.4281 46.2756 60.6933V45.031C46.2756 42.5599 40.0593 41.7185 37.9022 41.7185C35.7511 41.7185 33.357 41.9436 31.4074 42.8503C31.4074 41.9496 31.4074 41.0488 31.4074 40.1422H60.6222C62.4889 40.1422 64.0059 38.7496 64.0059 37.0429V10.8444C64.0059 10.3703 63.5852 9.98512 63.0696 9.98512C62.5541 9.98512 62.1333 10.3703 62.1333 10.8444V37.037C62.1333 37.7955 61.4578 38.4177 60.6281 38.4177H31.4133V37.0785C31.4133 35.5496 29.4874 34.7733 28.16 34.394V3.10512C28.16 2.3466 28.8356 1.72438 29.6652 1.72438H60.6281C61.4578 1.72438 62.1333 2.34067 62.1333 3.10512V6.60142C62.1748 7.73919 63.9644 7.74512 64.0118 6.60142V3.10512C64 1.39845 62.483 0.00585938 60.6163 0.00585938ZM44.3911 56.7762C44.3911 57.1851 42.157 58.3703 37.8963 58.3703C33.6356 58.3703 31.4015 57.1851 31.4015 56.7762V55.0459C31.7037 55.1881 32.0178 55.3066 32.32 55.4073C35.2711 56.4266 40.5156 56.4266 43.4667 55.4073C43.8104 55.2948 44.1185 55.1703 44.3852 55.0459V56.7762H44.3911ZM29.523 48.9481C29.523 49.357 27.2889 50.5422 23.0281 50.5422C18.7674 50.5422 16.5333 49.357 16.5333 48.9481V47.1525C16.8356 47.2948 17.1496 47.4133 17.4519 47.514C20.403 48.5333 25.6474 48.5333 28.5985 47.514C28.9422 47.4014 29.2504 47.277 29.517 47.1525V48.9481H29.523ZM16.5393 51.1288C16.8415 51.271 17.1556 51.3896 17.4578 51.4903C20.4089 52.5096 25.6533 52.5096 28.6044 51.4903C28.9481 51.3777 29.2563 51.2533 29.523 51.1288V52.8592C29.523 53.2681 27.2889 54.4533 23.0281 54.4533C18.7674 54.4533 16.5333 53.2681 16.5333 52.8592V51.1288H16.5393ZM44.3911 52.8592C44.3911 53.2681 42.157 54.4533 37.8963 54.4533C33.6356 54.4533 31.4015 53.2681 31.4015 52.8592V51.1288C31.7037 51.271 32.0178 51.3896 32.32 51.4903C35.2711 52.5096 40.5156 52.5096 43.4667 51.4903C43.8104 51.3777 44.1185 51.2533 44.3852 51.1288V52.8592H44.3911ZM44.3911 48.9481C44.3911 49.357 42.157 50.5422 37.8963 50.5422C33.6356 50.5422 31.4015 49.357 31.4015 48.9481V47.2177C31.7037 47.3599 32.0178 47.4785 32.32 47.5792C35.2711 48.5985 40.5156 48.5985 43.4667 47.5792C43.8104 47.4666 44.1185 47.3422 44.3852 47.2177V48.9481H44.3911ZM23.0341 46.5659C18.7733 46.5659 16.5393 45.3807 16.5393 44.9718V43.1762C16.8415 43.3185 17.1556 43.437 17.4578 43.5377C20.4089 44.557 25.6533 44.557 28.6044 43.5377C28.9481 43.4251 29.2563 43.3007 29.523 43.1762V44.9659C29.523 45.3807 27.2948 46.5659 23.0341 46.5659ZM29.523 40.9955C29.523 41.4044 27.2889 42.5896 23.0281 42.5896C18.7674 42.5896 16.5333 41.4044 16.5333 40.9955V39.2651C16.8356 39.4073 17.1496 39.5259 17.4519 39.6266C20.403 40.6459 25.6474 40.6459 28.5985 39.6266C28.9422 39.514 29.2504 39.3896 29.517 39.2651V40.9955H29.523ZM14.6607 37.0785C14.6607 38.6785 14.6607 40.2785 14.6607 41.8785C10.7733 43.9051 5.81926 41.2088 5.86074 37.1022C5.93185 31.354 14.2637 29.5644 17.0904 34.6607C15.0933 35.4133 14.6607 36.3792 14.6607 37.0785ZM18.9096 34.157C15.4015 27.1762 4.09481 29.3925 3.98815 37.1081C3.91111 42.0859 9.65926 45.6829 14.6667 43.7807C14.6667 47.6207 14.6667 51.4607 14.6667 55.3007H8.88296C8.46815 51.9288 5.55259 49.2444 1.87852 48.8473V20.0296C5.55259 19.6385 8.47407 16.9481 8.87704 13.5762H14.7022C15.1111 16.9481 18.0267 19.6325 21.7007 20.0296V33.8073C20.7111 33.8607 19.763 33.9792 18.9096 34.157ZM20.0474 13.5703C20.96 13.5703 21.7067 14.2518 21.7067 15.0873V18.2873C19.0696 17.914 16.9837 15.994 16.5985 13.5703H20.0474ZM1.87852 15.0933C1.87852 14.2577 2.61926 13.5762 3.53778 13.5762H6.98667C6.60148 15.9999 4.51556 17.9259 1.87852 18.2933V15.0933ZM3.53778 55.3007C2.62519 55.3007 1.87852 54.6192 1.87852 53.7836V50.5836C4.51556 50.957 6.60148 52.877 6.98667 55.3007H3.53778ZM23.0341 62.2873C18.7733 62.2873 16.5393 61.1022 16.5393 60.6933V58.957C16.9778 59.1644 17.4874 59.3481 18.0681 59.5022C19.1881 59.8044 19.7511 58.1629 18.6015 57.8488C17.0311 57.4222 16.5452 56.9125 16.5452 56.7703V55.0399C16.8474 55.1822 17.1615 55.3007 17.4637 55.4014C20.8474 56.5214 25.2267 56.5214 28.6104 55.4014C28.9541 55.2888 29.2622 55.1644 29.5289 55.0399V56.7703C29.5289 56.8414 29.2859 57.2266 28.1659 57.6296C27.0044 58.0444 25.4104 58.3051 23.6741 58.3525C22.4889 58.3881 22.5778 60.1125 23.7333 60.071C25.6711 60.0118 27.7807 59.7629 29.5289 58.951V60.6814C29.523 61.1022 27.2948 62.2873 23.0341 62.2873ZM37.8963 62.2873C33.6356 62.2873 31.4015 61.1022 31.4015 60.6933V58.9629C31.7037 59.1051 32.0178 59.2236 32.32 59.3244C35.2711 60.3436 40.5156 60.3436 43.4667 59.3244C43.8104 59.2118 44.1185 59.0873 44.3852 58.9629V60.6933C44.3911 61.1022 42.157 62.2873 37.8963 62.2873ZM37.8963 43.437C42.157 43.437 44.3911 44.6222 44.3911 45.031C44.3911 45.4399 42.157 46.6251 37.8963 46.6251C33.6356 46.6251 31.4015 45.4399 31.4015 45.031C31.4015 44.6222 33.6356 43.437 37.8963 43.437ZM29.523 37.0785C29.523 37.4873 27.2889 38.6725 23.0281 38.6725C18.7674 38.6725 16.5333 37.4873 16.5333 37.0785C16.5333 36.6696 18.7674 35.4844 23.0281 35.4844C27.2948 35.4844 29.523 36.6696 29.523 37.0785Z" fill="white"/>
<path d="M41.7185 31.6681H48.5511C49.0726 31.6681 49.4874 31.283 49.4874 30.8089V24.3259H56.5097C57.0311 24.3259 57.446 23.9407 57.446 23.4667V17.1556C57.446 16.6815 57.0252 16.2963 56.5097 16.2963H49.4934V9.81336C49.4934 9.33929 49.0726 8.9541 48.5571 8.9541H41.7185C41.1971 8.9541 40.7822 9.33929 40.7822 9.81336V16.2963H33.76C33.2385 16.2963 32.8237 16.6815 32.8237 17.1556V23.4607C32.8237 23.9348 33.2445 24.32 33.76 24.32H40.7822V30.803C40.7822 31.283 41.203 31.6681 41.7185 31.6681ZM34.6963 22.6015V18.0148H41.7185C42.2341 18.0148 42.6548 17.6296 42.6548 17.1556V10.6726H47.6089V17.1556C47.6089 17.6296 48.0297 18.0148 48.5452 18.0148H55.5674V22.6015H48.5511C48.0297 22.6015 47.6148 22.9867 47.6148 23.4607V29.9437H42.6608V23.4607C42.6608 22.9867 42.24 22.6015 41.7245 22.6015H34.6963Z" fill="white"/>
</g>
<defs>
<clipPath id="clip0">
<rect width="64" height="64" fill="white"/>
</clipPath>
</defs>
</svg>
