<svg width="50" height="39" viewBox="0 0 50 39" fill="none" xmlns="http://www.w3.org/2000/svg">
<g clip-path="url(#clip0)">
<path d="M0.0474465 4.8651L8.37071 0.0367889L33.308 14.5051L33.3086 14.5326C32.6563 14.869 32.0355 15.2649 31.3958 15.6242L25.0058 19.3306C24.9507 19.3114 24.8961 19.2905 24.8422 19.2681L1.09648 5.49027C0.74471 5.29659 0.407196 5.07598 0.045166 4.9012L0.0474465 4.8651ZM33.3137 4.86052L41.6324 0.0367889L49.9482 4.86109L49.9557 4.89261L41.629 9.70373L35.2139 5.98651C34.5851 5.60316 33.9266 5.26909 33.3137 4.86052Z" fill="#2B6DEF"/>
<path d="M33.3072 14.5044L33.3129 4.85983C33.9258 5.2684 34.5843 5.60247 35.2131 5.98583L41.6282 9.70305L41.6327 36.9596C41.6253 37.5212 41.6493 38.0839 41.6145 38.6443L33.3117 33.8309L33.3089 24.1857L33.3077 14.5319L33.3072 14.5044ZM0.0443545 4.90052C0.406384 5.07529 0.743898 5.29591 1.09567 5.48959L24.8414 19.2674C24.8953 19.2899 24.9499 19.3107 25.005 19.3299C24.9685 19.6089 24.9879 19.8909 24.9845 20.1717L24.9833 29.0026L16.6926 24.1817C16.2707 23.8946 15.8117 23.6665 15.3767 23.4001L8.68346 19.5167C8.5854 19.4582 8.48335 19.4084 8.37845 19.3643C8.36882 19.4419 8.36179 19.5199 8.35735 19.5981L8.3602 36.2141C8.36989 37.0238 8.33227 37.8363 8.38586 38.6443L8.37503 38.6792H8.35222C8.34994 38.6701 8.34481 38.6523 8.34253 38.6431L0.0415039 33.8246L0.0443545 4.90052Z" fill="#2891F9"/>
<path d="M41.6283 9.70304L49.955 4.89192L49.9584 33.8246L41.6574 38.6426L41.6483 38.6792H41.626L41.6146 38.6443C41.6494 38.0839 41.6255 37.5211 41.6329 36.9596L41.6283 9.70304ZM31.3951 15.6235C32.0348 15.2643 32.6557 14.8683 33.3079 14.5319L33.309 24.1857L27.0474 27.8181L24.9835 29.0025L24.9846 20.1716C24.9881 19.8909 24.9687 19.6089 25.0052 19.3299L31.3951 15.6235ZM8.3786 19.3643C8.4835 19.4084 8.58555 19.4582 8.68361 19.5167L15.3769 23.4001C15.8119 23.6665 16.2708 23.8946 16.6927 24.1817L16.6876 33.832L8.38601 38.6443C8.33242 37.8363 8.37004 37.0238 8.36035 36.2141L8.3575 19.5981C8.36194 19.5199 8.36897 19.4419 8.3786 19.3643Z" fill="#2BBDF7"/>
</g>
<defs>
<clipPath id="clip0">
<rect width="50" height="38.6792" fill="white"/>
</clipPath>
</defs>
</svg>
