<svg width="31" height="49" viewBox="0 0 31 49" fill="none" xmlns="http://www.w3.org/2000/svg">
<path d="M15.0764 0L15.4856 0.430351L15.4432 0.560867C15.2034 1.19228 15.1646 1.87309 15.1822 2.54683L15.2422 18.0465C10.145 20.2336 5.16068 22.6781 0.0634945 24.8722C0.331582 23.8739 0.977108 23.052 1.49917 22.1772L15.0764 0ZM0 27.8458C5.10777 30.6643 10.0956 33.6908 15.1787 36.5551L15.1893 46.9964C15.1866 47.4649 15.274 47.9296 15.4468 48.3651L15.3057 48.8801C14.893 48.4427 14.5191 47.9735 14.1804 47.4797L0 27.8458Z" fill="#828384"/>
<path d="M15.1817 2.54685C15.164 1.8731 15.2028 1.1923 15.4427 0.560883L30.445 24.9251C29.288 24.6641 28.3074 23.9974 27.2774 23.4506C23.2702 21.6375 19.1466 20.0784 15.2416 18.0465C15.1323 12.8788 15.2487 7.71106 15.1817 2.54685Z" fill="#313232"/>
<path d="M0.0629883 24.8722C5.16018 22.6781 10.1445 20.2335 15.2417 18.0465C15.4322 21.3376 15.2628 24.6358 15.3228 27.9305C15.3898 29.7859 15.1217 31.6731 15.5415 33.5039L15.5697 33.6555C15.0018 33.6873 14.5468 33.3204 14.0776 33.0594L0.0629883 24.8722ZM15.1782 36.5551L30.3322 27.8846L15.4463 48.3651C15.2735 47.9296 15.1861 47.4649 15.1888 46.9964L15.1782 36.5551Z" fill="#313232"/>
<path d="M15.2422 18.0465C19.1471 20.0783 23.2707 21.6375 27.2779 23.4506C28.3079 23.9973 29.2886 24.664 30.4456 24.9251L15.542 33.5039C15.1223 31.6731 15.3903 29.7859 15.3233 27.9305C15.2634 24.6358 15.4327 21.3376 15.2422 18.0465Z" fill="#131313"/>
</svg>
