<svg width="50" height="50" viewBox="0 0 50 50" fill="none" xmlns="http://www.w3.org/2000/svg">
<g clip-path="url(#clip0)">
<path d="M49.2512 31.0484C45.9119 44.4413 32.3455 52.5921 18.9494 49.2523C5.55892 45.9133 -2.59271 32.3476 0.748065 18.9557C4.0859 5.56121 17.6524 -2.59011 31.0443 0.748818C44.4394 4.08775 52.5905 17.655 49.2509 31.0486L49.2511 31.0484H49.2512Z" fill="#F7931A"/>
<path d="M36.0251 21.4381C36.5227 18.1112 33.9895 16.3228 30.5256 15.1298L31.6493 10.6232L28.9057 9.93958L27.8118 14.3276L25.6135 13.8102L26.7154 9.39323L23.9735 8.70966L22.8491 13.2148L21.0972 12.8032L21.1004 12.789L17.3169 11.8443L16.587 14.7743C16.587 14.7743 18.6226 15.2409 18.5797 15.2696C19.6907 15.5469 19.8916 16.2822 19.8582 16.8651L18.5782 21.9993C18.6547 22.0187 18.7539 22.0468 18.8634 22.0908L18.5734 22.0191L16.7793 29.2113C16.6435 29.5488 16.2988 30.0553 15.5221 29.8629C15.5496 29.9028 13.5279 29.3653 13.5279 29.3653L12.1658 32.5056L15.7362 33.3955L17.6923 33.9002L16.557 38.4586L19.2974 39.1421L20.4218 34.6322L22.6082 35.1996L21.4877 39.6882L24.2315 40.3718L25.3667 35.822C30.0452 36.7074 33.563 36.3504 35.0437 32.1192C36.2369 28.7126 34.9844 26.7476 32.523 25.4663C34.3157 25.0529 35.666 23.8739 36.0261 21.4385L36.0252 21.4379L36.0251 21.4381ZM29.7565 30.2273C28.9086 33.634 23.1723 31.7924 21.3124 31.3307L22.8191 25.2916C24.6788 25.7559 30.6427 26.6746 29.7566 30.2273H29.7565ZM30.605 21.3888C29.8316 24.4875 25.0571 22.9132 23.5083 22.5272L24.8743 17.0501C26.4231 17.4362 31.4108 18.1566 30.6053 21.3888H30.605Z" fill="white"/>
</g>
<defs>
<clipPath id="clip0">
<rect width="50" height="50" fill="white"/>
</clipPath>
</defs>
</svg>
