<svg width="32" height="33" viewBox="0 0 32 33" fill="none" xmlns="http://www.w3.org/2000/svg">
<circle cx="16" cy="16.0254" r="16" fill="white"/>
<g clip-path="url(#clip0)">
<path d="M23 11.6845C22.4794 11.9129 21.9246 12.0643 21.3462 12.1378C21.9412 11.7825 22.3954 11.2243 22.6089 10.5514C22.0541 10.8821 21.4416 11.1158 20.7889 11.2461C20.2621 10.6853 19.5114 10.3379 18.6924 10.3379C17.1034 10.3379 15.8241 11.6276 15.8241 13.2088C15.8241 13.4363 15.8434 13.655 15.8906 13.8633C13.5045 13.7469 11.3931 12.6033 9.97475 10.8611C9.72712 11.2908 9.58188 11.7825 9.58188 12.3119C9.58188 13.3059 10.0938 14.187 10.8568 14.6971C10.3956 14.6884 9.94325 14.5545 9.56 14.3436C9.56 14.3524 9.56 14.3638 9.56 14.3751C9.56 15.7699 10.5549 16.9284 11.8595 17.1953C11.6259 17.2591 11.3712 17.2898 11.107 17.2898C10.9232 17.2898 10.7377 17.2793 10.5636 17.2408C10.9355 18.3774 11.9908 19.213 13.2455 19.2401C12.269 20.004 11.0291 20.4643 9.68688 20.4643C9.4515 20.4643 9.22575 20.4538 9 20.4249C10.2714 21.2448 11.7781 21.7129 13.403 21.7129C18.6845 21.7129 21.572 17.3379 21.572 13.5456C21.572 13.4188 21.5676 13.2963 21.5615 13.1746C22.1311 12.7704 22.6097 12.2655 23 11.6845Z" fill="black"/>
</g>
<defs>
<clipPath id="clip0">
<rect width="14" height="14" fill="white" transform="translate(9 9.02539)"/>
</clipPath>
</defs>
</svg>
