<svg width="32" height="33" viewBox="0 0 32 33" fill="none" xmlns="http://www.w3.org/2000/svg">
<circle cx="16" cy="16.0254" r="16" fill="white"/>
<g clip-path="url(#clip0)">
<path d="M22.9864 13.1414C22.9536 12.3976 22.8333 11.8861 22.6609 11.443C22.4832 10.9726 22.2097 10.5515 21.8514 10.2014C21.5013 9.84586 21.0774 9.56959 20.6124 9.3946C20.1667 9.22228 19.658 9.10199 18.9141 9.06919C18.1647 9.03362 17.9268 9.02539 16.026 9.02539C14.1253 9.02539 13.8873 9.03362 13.1407 9.06641C12.3968 9.09921 11.8854 9.21961 11.4424 9.39183C10.9719 9.56959 10.5508 9.84309 10.2007 10.2014C9.84513 10.5515 9.56897 10.9754 9.39387 11.4403C9.22155 11.8861 9.10126 12.3948 9.06846 13.1387C9.03288 13.8881 9.02466 14.126 9.02466 16.0268C9.02466 17.9275 9.03288 18.1654 9.06568 18.9121C9.09848 19.656 9.21888 20.1674 9.3912 20.6105C9.56897 21.0809 9.84513 21.502 10.2007 21.8521C10.5508 22.2077 10.9747 22.4839 11.4396 22.6589C11.8854 22.8312 12.394 22.9515 13.138 22.9843C13.8846 23.0172 14.1226 23.0253 16.0233 23.0253C17.9241 23.0253 18.162 23.0172 18.9087 22.9843C19.6525 22.9515 20.1639 22.8312 20.607 22.6589C21.5479 22.2951 22.2917 21.5513 22.6555 20.6105C22.8277 20.1647 22.9481 19.656 22.9809 18.9121C23.0137 18.1654 23.0219 17.9275 23.0219 16.0268C23.0219 14.126 23.0191 13.8881 22.9864 13.1414ZM21.7256 18.8574C21.6955 19.5411 21.5807 19.9103 21.4849 20.1565C21.2497 20.7664 20.7656 21.2504 20.1557 21.4857C19.9096 21.5814 19.5377 21.6962 18.8566 21.7263C18.1182 21.7592 17.8968 21.7673 16.0288 21.7673C14.1608 21.7673 13.9366 21.7592 13.2008 21.7263C12.5171 21.6962 12.1479 21.5814 11.9018 21.4857C11.5982 21.3735 11.322 21.1957 11.0977 20.9633C10.8653 20.7363 10.6875 20.4628 10.5753 20.1592C10.4796 19.9131 10.3648 19.5411 10.3347 18.8602C10.3018 18.1217 10.2937 17.9002 10.2937 16.0322C10.2937 14.1642 10.3018 13.94 10.3347 13.2044C10.3648 12.5206 10.4796 12.1514 10.5753 11.9053C10.6875 11.6017 10.8653 11.3255 11.1005 11.1011C11.3274 10.8687 11.6009 10.6909 11.9045 10.5788C12.1507 10.4831 12.5227 10.3683 13.2036 10.3381C13.942 10.3053 14.1636 10.2971 16.0315 10.2971C17.9022 10.2971 18.1237 10.3053 18.8594 10.3381C19.5431 10.3683 19.9124 10.4831 20.1585 10.5788C20.462 10.6909 20.7383 10.8687 20.9625 11.1011C21.195 11.3282 21.3728 11.6017 21.4849 11.9053C21.5807 12.1514 21.6955 12.5233 21.7256 13.2044C21.7584 13.9428 21.7666 14.1642 21.7666 16.0322C21.7666 17.9002 21.7584 18.119 21.7256 18.8574Z" fill="black"/>
<path d="M16.0258 12.4302C14.0404 12.4302 12.4294 14.041 12.4294 16.0266C12.4294 18.0122 14.0404 19.623 16.0258 19.623C18.0114 19.623 19.6223 18.0122 19.6223 16.0266C19.6223 14.041 18.0114 12.4302 16.0258 12.4302ZM16.0258 18.3595C14.7378 18.3595 13.6929 17.3148 13.6929 16.0266C13.6929 14.7384 14.7378 13.6937 16.0258 13.6937C17.314 13.6937 18.3587 14.7384 18.3587 16.0266C18.3587 17.3148 17.314 18.3595 16.0258 18.3595Z" fill="black"/>
<path d="M20.6044 12.2878C20.6044 12.7515 20.2284 13.1274 19.7646 13.1274C19.301 13.1274 18.925 12.7515 18.925 12.2878C18.925 11.8241 19.301 11.4482 19.7646 11.4482C20.2284 11.4482 20.6044 11.8241 20.6044 12.2878Z" fill="black"/>
</g>
<defs>
<clipPath id="clip0">
<rect width="14" height="14" fill="white" transform="translate(9 9.02539)"/>
</clipPath>
</defs>
</svg>
