<svg width="170" height="170" viewBox="0 0 170 170" fill="none" xmlns="http://www.w3.org/2000/svg">
<g opacity="0.5">
<path d="M85.0009 0C38.1299 0 0 38.1318 0 84.9972C0 131.866 38.1299 169.998 85.0009 169.998C131.871 169.998 170 131.866 170 84.9972C170 38.1308 131.871 0 85.0009 0ZM93.9003 57.4444C81.1243 63.3857 71.275 74.5905 67.1632 88.2591C63.8236 86.6934 60.7303 84.6926 57.9434 82.3335C61.7636 68.9761 70.5445 57.8527 81.8595 50.3162C85.4 47.958 89.858 45.7192 92.9661 44.848C98.938 42.7185 105.347 41.4973 112.045 41.4973C112.332 41.4973 112.619 41.5084 112.908 41.5103C116.878 41.5084 121.164 41.9186 125.59 42.9824C126.026 43.0889 126.461 43.2 126.9 43.3185C126.96 43.3342 127.024 43.349 127.088 43.3666C128.08 43.637 129.071 43.9425 130.073 44.286C130.229 44.3369 130.391 44.3971 130.548 44.4527C130.877 44.5693 131.206 44.6878 131.539 44.8119C132.406 45.1397 133.274 45.4933 134.144 45.8813C134.14 45.7952 134.13 45.7109 134.123 45.6267C134.13 45.6322 134.138 45.6341 134.144 45.6341C133.549 38.0651 130.349 30.7545 128.327 26.8029C126.777 23.9707 124.949 21.306 122.893 18.8423C145.778 32.0016 161.231 56.6907 161.256 84.925C154.125 66.1892 135.986 52.8354 114.774 52.8354C110.671 52.8354 106.685 53.34 102.868 54.2817C99.9916 54.989 96.9872 56.0899 93.9003 57.4444ZM138.767 68.6937C136.257 78.8402 131.039 87.9248 123.897 95.1179C122.446 82.3974 117.315 70.7778 109.601 61.3534C111.297 61.1423 113.025 61.0294 114.773 61.0294C123.71 61.0284 131.983 63.8736 138.767 68.6937ZM84.8 73.8665C89.3395 78.6319 92.7597 84.4686 94.6151 90.9644C91.4431 91.7468 88.1359 92.1699 84.7278 92.1699C81.3428 92.1699 78.056 91.7542 74.9053 90.9876C76.7941 84.4797 80.2392 78.6328 84.8 73.8665ZM51.5355 75.5618C46.3062 68.6178 43.2027 59.9896 43.2027 50.6467C43.2027 49.7125 43.2472 48.7885 43.3055 47.8691C48.3468 46.3979 53.6715 45.5924 59.1822 45.5924C63.6727 45.5924 68.0363 46.1313 72.2286 47.1201C62.9338 54.4418 55.6991 64.2643 51.5355 75.5618ZM84.7278 9.12718C101.788 9.12718 116.463 19.4737 122.835 34.22C119.33 33.6219 115.723 33.3015 112.045 33.3015C100.85 33.3015 90.3172 36.1745 81.1308 41.2158C74.2711 38.7493 66.8827 37.3985 59.1822 37.3985C54.2677 37.3985 49.481 37.9633 44.8758 39.0058C49.9245 21.7597 65.8726 9.12718 84.7278 9.12718ZM46.0359 19.4728C39.1447 28.0084 35.007 38.8521 35.007 50.6467C35.007 78.0634 57.3092 100.366 84.7278 100.366C88.6285 100.366 92.4162 99.9018 96.0595 99.0445C96.14 100.114 96.1974 101.188 96.1974 102.275C96.1974 105.39 95.84 108.427 95.1808 111.347C92.8726 111.558 90.6459 111.682 88.4896 111.733C86.8425 111.882 85.1796 111.976 83.4945 111.976C75.0275 111.976 66.9928 110.113 59.7637 106.783C51.8827 103.39 45.8711 98.5528 41.2853 93.193C33.4978 84.5899 28.2991 73.6091 26.9242 61.483C25.9483 62.1932 25.0345 62.9172 24.1503 63.6459C17.2998 69.1177 11.9289 76.3663 8.74572 84.688C8.85775 56.9963 23.8068 32.7414 46.0359 19.4728ZM92.4023 119.535C88.5322 127.895 81.952 134.742 73.785 138.958C66.8614 132.522 61.5441 124.384 58.5434 115.192C66.2327 118.395 74.6609 120.171 83.4964 120.171C86.5193 120.171 89.4886 119.941 92.4023 119.535ZM13.6991 102.276C13.6991 92.8393 16.8924 84.1316 22.2504 77.1765C27.2158 90.8635 36.6402 102.43 48.77 110.106C51.1633 122.402 57.0722 133.451 65.3939 142.183C62.0571 143.059 58.5573 143.527 54.9501 143.527C32.2053 143.526 13.6991 125.022 13.6991 102.276ZM85.0009 161.252C71.1546 161.252 58.1592 157.543 46.9543 151.067C49.5588 151.492 52.2262 151.723 54.9501 151.723C82.2131 151.723 104.394 129.541 104.394 102.276C104.394 89.2294 99.3 77.3644 91.0154 68.5205C93.9577 66.4577 97.1788 64.7699 100.609 63.5199C107.251 70.5676 112.12 79.2976 114.494 89.0035L114.548 88.9498C114.593 89.1349 114.636 89.3303 114.682 89.5321C114.779 90.0497 114.877 90.5691 114.962 91.0811C115.408 93.2523 115.716 95.4697 115.904 97.7214C116.166 100.139 116.311 102.741 116.251 105.463C116.265 105.463 116.276 105.467 116.286 105.467C116.265 106.529 116.204 107.611 116.116 108.707C116.103 108.71 116.091 108.714 116.078 108.714C115.632 114.072 114.307 119.723 111.539 125.133C108.438 132.443 104.183 138.038 100.334 142.043C100.221 142.157 100.111 142.275 100.001 142.386C99.6148 142.781 99.2398 143.158 98.8648 143.518C98.7621 143.614 98.663 143.711 98.5639 143.806C98.238 144.118 97.9121 144.419 97.5973 144.704C97.526 144.77 97.4557 144.84 97.3881 144.9C97.0131 145.233 96.652 145.551 96.3011 145.851C96.227 145.913 96.1558 145.973 96.0854 146.032C95.3317 146.667 94.6309 147.227 94.004 147.704L94.0531 147.726C94.0531 147.726 97.3566 149.51 102.858 150.852C102.872 150.837 102.89 150.822 102.903 150.811C106.71 151.749 110.682 152.268 114.774 152.268C117.164 152.268 119.511 152.089 121.809 151.76C110.89 157.806 98.3399 161.252 85.0009 161.252ZM114.774 144.071C113.029 144.071 111.301 143.956 109.609 143.743C118.165 133.292 123.547 120.15 124.255 105.794C134.132 97.8464 141.642 87.0823 145.575 74.7349C152.234 82.103 156.298 91.8579 156.298 102.55C156.299 125.446 137.672 144.071 114.774 144.071Z" fill="white"/>
</g>
</svg>
