<svg width="573" height="573" viewBox="0 0 573 573" fill="none" xmlns="http://www.w3.org/2000/svg">
<g filter="url(#filter0_d)">
<path d="M286.502 76C172.633 76 80 168.639 80 282.495C80 396.361 172.633 489 286.502 489C400.369 489 493 396.361 493 282.495C493 168.637 400.369 76 286.502 76ZM308.123 215.558C277.084 229.992 253.156 257.213 243.167 290.42C235.054 286.616 227.539 281.756 220.768 276.024C230.049 243.573 251.382 216.55 278.87 198.24C287.472 192.511 298.302 187.072 305.853 184.955C320.361 179.782 335.931 176.815 352.202 176.815C352.9 176.815 353.597 176.842 354.301 176.847C363.944 176.842 374.358 177.839 385.11 180.423C386.169 180.682 387.226 180.952 388.292 181.24C388.439 181.278 388.594 181.314 388.749 181.357C391.158 182.013 393.567 182.756 396.001 183.59C396.379 183.714 396.775 183.86 397.155 183.995C397.953 184.278 398.754 184.566 399.561 184.868C401.669 185.664 403.777 186.523 405.891 187.466C405.882 187.257 405.857 187.052 405.839 186.847C405.857 186.861 405.875 186.865 405.891 186.865C404.445 168.477 396.671 150.716 391.759 141.116C387.993 134.235 383.553 127.762 378.557 121.776C434.154 153.746 471.697 213.727 471.758 282.32C454.433 236.803 410.365 204.36 358.833 204.36C348.864 204.36 339.181 205.586 329.909 207.874C322.921 209.592 315.622 212.267 308.123 215.558ZM417.122 242.887C411.024 267.537 398.347 289.608 380.998 307.083C377.471 276.179 365.008 247.95 346.266 225.054C350.387 224.541 354.584 224.267 358.831 224.267C380.541 224.265 400.641 231.177 417.122 242.887ZM286.014 255.454C297.042 267.031 305.351 281.211 309.859 296.992C302.153 298.893 294.118 299.921 285.839 299.921C277.615 299.921 269.63 298.911 261.976 297.049C266.564 281.238 274.934 267.034 286.014 255.454ZM205.201 259.573C192.497 242.703 184.957 221.741 184.957 199.043C184.957 196.773 185.065 194.529 185.207 192.295C197.454 188.721 210.39 186.764 223.778 186.764C234.687 186.764 245.288 188.073 255.473 190.475C232.892 208.263 215.316 232.126 205.201 259.573ZM285.839 98.1739C327.284 98.1739 362.936 123.31 378.418 159.135C369.902 157.682 361.139 156.904 352.202 156.904C325.006 156.904 299.418 163.884 277.1 176.131C260.435 170.139 242.486 166.857 223.778 166.857C211.839 166.857 200.21 168.229 189.022 170.762C201.287 128.864 240.032 98.1739 285.839 98.1739ZM191.84 123.308C175.099 144.045 165.046 170.389 165.046 199.043C165.046 265.65 219.228 319.832 285.839 319.832C295.315 319.832 304.517 318.705 313.368 316.622C313.564 319.22 313.703 321.83 313.703 324.47C313.703 332.039 312.835 339.417 311.233 346.512C305.626 347.024 300.216 347.324 294.978 347.45C290.976 347.809 286.936 348.039 282.843 348.039C262.273 348.039 242.753 343.513 225.191 335.422C206.044 327.178 191.44 315.428 180.299 302.407C161.38 281.506 148.75 254.829 145.41 225.369C143.039 227.094 140.819 228.853 138.671 230.624C122.028 243.917 108.98 261.527 101.247 281.744C101.519 214.469 137.836 155.543 191.84 123.308ZM304.483 366.402C295.081 386.714 279.095 403.348 259.254 413.589C242.434 397.954 229.516 378.184 222.226 355.851C240.907 363.633 261.382 367.948 282.847 367.948C290.191 367.948 297.405 367.39 304.483 366.402ZM113.281 324.473C113.281 301.547 121.039 280.392 134.055 263.495C146.118 296.747 169.014 324.848 198.482 343.495C204.297 373.369 218.652 400.21 238.869 421.426C230.762 423.553 222.26 424.689 213.496 424.689C158.24 424.687 113.281 379.734 113.281 324.473ZM286.502 467.753C252.864 467.753 221.293 458.74 194.071 443.008C200.399 444.04 206.879 444.6 213.496 444.6C279.73 444.6 333.616 390.711 333.616 324.473C333.616 292.777 321.241 263.952 301.114 242.466C308.262 237.455 316.087 233.354 324.421 230.318C340.558 247.44 352.384 268.649 358.154 292.228L358.284 292.098C358.395 292.548 358.498 293.022 358.611 293.513C358.845 294.77 359.083 296.032 359.29 297.276C360.374 302.551 361.121 307.938 361.577 313.408C362.214 319.281 362.567 325.604 362.421 332.217C362.455 332.217 362.482 332.226 362.506 332.226C362.455 334.806 362.308 337.433 362.095 340.096C362.061 340.105 362.034 340.114 362 340.114C360.918 353.131 357.7 366.859 350.974 380.002C343.441 397.763 333.103 411.355 323.753 421.084C323.479 421.363 323.211 421.648 322.943 421.918C322.005 422.879 321.094 423.794 320.183 424.667C319.934 424.901 319.693 425.137 319.452 425.369C318.661 426.127 317.869 426.858 317.104 427.55C316.931 427.71 316.76 427.879 316.596 428.025C315.685 428.835 314.808 429.606 313.955 430.335C313.775 430.486 313.602 430.632 313.431 430.776C311.6 432.319 309.897 433.678 308.375 434.838L308.494 434.89C308.494 434.89 316.519 439.225 329.885 442.486C329.918 442.45 329.961 442.412 329.995 442.387C339.242 444.666 348.891 445.925 358.833 445.925C364.639 445.925 370.341 445.491 375.924 444.69C349.397 459.381 318.908 467.753 286.502 467.753ZM358.833 426.012C354.593 426.012 350.396 425.733 346.284 425.216C367.072 399.825 380.145 367.898 381.866 333.02C405.862 313.712 424.106 287.561 433.661 257.564C449.838 275.464 459.712 299.163 459.712 325.138C459.715 380.762 414.463 426.012 358.833 426.012Z" fill="url(#paint0_linear)"/>
</g>
<defs>
<filter id="filter0_d" x="0" y="0" width="573" height="573" filterUnits="userSpaceOnUse" color-interpolation-filters="sRGB">
<feFlood flood-opacity="0" result="BackgroundImageFix"/>
<feColorMatrix in="SourceAlpha" type="matrix" values="0 0 0 0 0 0 0 0 0 0 0 0 0 0 0 0 0 0 127 0" result="hardAlpha"/>
<feOffset dy="4"/>
<feGaussianBlur stdDeviation="40"/>
<feComposite in2="hardAlpha" operator="out"/>
<feColorMatrix type="matrix" values="0 0 0 0 0.552941 0 0 0 0 0.764706 0 0 0 0 0.247059 0 0 0 1 0"/>
<feBlend mode="normal" in2="BackgroundImageFix" result="effect1_dropShadow"/>
<feBlend mode="normal" in="SourceGraphic" in2="effect1_dropShadow" result="shape"/>
</filter>
<linearGradient id="paint0_linear" x1="167.573" y1="113.77" x2="407.116" y2="453.611" gradientUnits="userSpaceOnUse">
<stop stop-color="#8DC33F"/>
<stop offset="1" stop-color="#00A7A7"/>
</linearGradient>
</defs>
</svg>
