<svg width="110" height="59" viewBox="0 0 110 59" fill="none" xmlns="http://www.w3.org/2000/svg">
<g clip-path="url(#clip0)">
<path d="M59.054 2.66489C58.6955 2.72018 58.3509 4.04011 57.6581 4.72772C57.1514 5.22397 56.519 5.19292 56.1831 5.80644C56.0555 6.03564 56.0968 6.42689 55.9521 6.80254C55.6695 7.55385 54.6735 7.62102 54.6735 8.43962C54.67 9.32365 55.5041 9.49249 56.2261 10.1197C56.7896 10.6247 56.8448 10.9727 57.5271 11.2174C58.1097 11.4157 58.9764 10.7676 59.757 11.0003C60.3981 11.1917 61.0115 11.3295 61.1564 11.9877C61.2838 12.5943 61.1477 13.5351 60.3706 13.4267C60.1086 13.3974 58.9729 13.0148 57.5772 13.163C55.8935 13.3543 53.972 13.9039 53.7843 15.7807C53.6809 16.8301 54.9784 18.0674 56.2313 17.8158C57.098 17.6451 56.688 16.6234 57.1601 16.127C57.7787 15.4912 61.2838 18.3466 64.5425 18.3466C65.9142 18.3466 66.9343 18.0002 67.9477 16.9387C68.0424 16.8577 68.1579 16.6836 68.3044 16.6732C68.4423 16.6836 68.6835 16.8197 68.7628 16.8783C71.3873 18.9875 73.3707 23.2182 83.0158 23.2682C84.3719 23.275 85.9176 23.923 87.179 25.0741C88.3044 26.115 88.9627 27.733 89.6019 29.3753C90.567 31.8396 92.2972 34.2366 94.9198 36.9042C95.063 37.0472 97.2221 38.7257 97.3944 38.8515C97.422 38.8687 97.5806 39.2478 97.5256 39.4597C97.4617 41.0589 97.2291 45.7099 100.696 45.9202C101.544 45.9632 101.322 45.367 101.322 44.9569C101.32 44.1469 101.172 43.3422 101.599 42.5133C102.183 41.3726 100.36 40.8469 100.414 38.381C100.452 36.5423 98.9075 36.8558 98.1234 35.4549C97.6719 34.6432 97.2704 34.2125 97.2997 33.2198C97.4755 27.6332 96.1106 23.9626 95.43 23.0614C94.8993 22.3807 94.4598 22.1102 94.9457 21.7947C97.8391 19.8837 98.4957 18.1052 98.4957 18.1052C100.034 14.4882 101.418 11.1846 103.326 9.73035C103.71 9.4304 104.696 8.69467 105.301 8.40511C107.081 7.56585 108.018 7.0576 108.535 6.55429C109.354 5.75647 110 4.09354 109.216 3.08544C108.241 1.84122 106.554 2.82866 105.809 3.26975C100.489 6.42689 99.7054 11.9963 97.8631 15.1947C96.3933 17.7502 94.0032 19.6269 91.8664 19.7803C90.2637 19.8991 88.537 19.5752 86.8172 18.8204C82.6349 16.9869 80.3463 14.6192 79.807 14.2005C78.6834 13.3337 69.9604 4.77076 62.8933 4.42096C62.8933 4.42096 62.0163 2.66501 61.7956 2.6357C61.2786 2.57014 60.7497 3.68511 60.3706 3.81449C60.0138 3.93324 59.4142 2.60638 59.054 2.66501V2.66489ZM27.9425 53.7713C27.2773 53.7558 26.7121 53.2095 26.7121 52.534L26.7138 30.4902H19.4486V54.7897C19.4486 55.9805 20.4135 56.9525 21.5974 56.9525H34.2961C35.4885 56.9525 36.4415 55.9805 36.4415 54.7897V30.4902H29.1832L29.1763 52.534C29.1763 53.2095 28.611 53.7558 27.9425 53.7713ZM52.2678 30.4902H41.2718C39.9708 30.4902 38.911 31.5483 38.911 32.8632V56.9524H46.1829V34.8554C46.188 34.1781 46.736 33.6422 47.4116 33.6422C48.0906 33.6422 48.6351 34.166 48.6505 34.8364V56.9525H55.8934V34.8362C55.902 34.1659 56.4465 33.642 57.1237 33.642C57.7959 33.642 58.3508 34.178 58.356 34.8552V56.9525H65.628V32.8632C65.628 31.5483 64.5665 30.4902 63.2655 30.4902H52.2678ZM9.72598 34.9017C9.73117 34.1659 9.13151 33.642 8.4956 33.642H7.26176V47.0265H8.4956C9.1367 47.0265 9.73129 46.5164 9.72598 45.7841V34.9017ZM14.6011 50.3024H7.26176V56.9525H0V30.4902H14.6477C15.959 30.4902 16.9825 31.5552 16.9825 32.8735V47.9192C16.9825 49.2392 15.9194 50.3024 14.6011 50.3024ZM90.548 51.0348C89.0885 51.0348 87.8632 52.2962 87.8632 53.8248C87.8632 55.3584 89.0885 56.6095 90.5946 56.6095C92.0886 56.6095 93.2984 55.3584 93.2984 53.8248C93.2984 52.2927 92.0886 51.0348 90.5944 51.0348H90.548ZM93.8187 53.8161C93.8187 55.6134 92.3781 57.0748 90.5946 57.0748C88.792 57.0748 87.3445 55.6239 87.3445 53.8161C87.3445 52.0429 88.792 50.5609 90.5411 50.5609C92.3781 50.5609 93.8187 51.9982 93.8187 53.8161Z" fill="white"/>
<path d="M90.2586 53.6093C90.7635 53.6093 91.0289 53.4301 91.0289 53.0717C91.0289 52.7529 90.7722 52.5892 90.281 52.5892H90.1363V53.6093H90.2586ZM92.1181 55.7013H91.2512L90.1363 54.2176V55.7013H89.428V51.9498H90.1725C91.1841 51.9498 91.7216 52.3324 91.7216 53.0631C91.7216 53.5507 91.4046 53.9834 90.9617 54.1125L90.9099 54.1315L92.1181 55.7013ZM77.8202 47.0317V34.8467C77.8029 34.1728 77.2602 33.6559 76.5829 33.6559C75.9125 33.6559 75.3576 34.1935 75.3526 34.8656V47.0317H77.8202ZM77.8202 56.9525V50.3093H75.3526V56.9525H68.0942V32.8632C68.0942 31.5483 69.1539 30.4902 70.455 30.4902H82.7176C84.0222 30.4902 85.082 31.5483 85.082 32.8632V56.9524L77.8202 56.9525Z" fill="white"/>
</g>
<defs>
<clipPath id="clip0">
<rect width="110" height="58.916" fill="white"/>
</clipPath>
</defs>
</svg>
