<svg width="73" height="13" viewBox="0 0 73 13" fill="none" xmlns="http://www.w3.org/2000/svg">
<path fill-rule="evenodd" clip-rule="evenodd" d="M13.045 11.9252H10.7137V11.5707C11.0306 11.5015 11.1864 11.3368 11.1864 11.072L11.1689 10.9194L9.64193 2.14695L6.92379 9.21339H6.3246L3.47136 2.24794L1.86588 10.9199L1.84882 11.0464C1.84882 11.3521 2.01893 11.5276 2.35601 11.5796V11.9257H0.29541V11.5711C0.621264 11.493 0.814262 11.2857 0.86902 10.9544L2.61813 1.43824C2.61813 1.21966 2.57504 1.06616 2.49155 0.982676C2.4642 0.942872 2.42753 0.91036 2.38473 0.887973C2.32317 0.860801 2.25953 0.838587 2.19443 0.821544V0.466965H4.00996L6.77971 7.19633L9.39642 0.466965H11.264V0.813017C10.9754 0.859247 10.8318 1.03743 10.8318 1.35476C10.8318 1.46697 10.8372 1.55629 10.8488 1.62271L12.4714 10.9544C12.532 11.1506 12.6038 11.2946 12.6814 11.3835C12.7595 11.4356 12.817 11.4697 12.8547 11.4899C12.8919 11.5101 12.9557 11.5366 13.0445 11.5711V11.9252H13.045ZM30.3686 6.22461C30.3686 7.08592 30.2304 7.87587 29.9535 8.5931C29.6873 9.29766 29.2792 9.94004 28.7546 10.4805C28.2676 10.9993 27.6478 11.4113 26.8987 11.7228C26.1725 12.0137 25.3686 12.1609 24.484 12.1609C23.6164 12.1609 22.8237 12.0141 22.1007 11.7174C21.3776 11.4235 20.7604 11.0146 20.2533 10.4899C19.7488 9.96519 19.3511 9.33143 19.063 8.59086C18.775 7.83553 18.6293 7.03341 18.6334 6.22506C18.6334 5.25647 18.795 4.39426 19.1146 3.63663C19.4346 2.88169 19.8726 2.25333 20.4288 1.75467C20.9806 1.25748 21.6235 0.871867 22.3219 0.619121C23.0195 0.361766 23.7571 0.230015 24.5006 0.22998C25.2555 0.22998 25.9849 0.359695 26.6877 0.619121C27.0248 0.737614 27.3534 0.892911 27.6702 1.08591C27.9871 1.28205 28.2869 1.50377 28.5693 1.75736C29.12 2.24704 29.558 2.87541 29.8834 3.64202C30.207 4.40593 30.3686 5.26769 30.3686 6.22461ZM28.8812 6.22461C28.8812 5.64471 28.8152 5.08906 28.6824 4.55539C28.5537 4.03131 28.3478 3.52927 28.0715 3.06571C27.7971 2.60627 27.4323 2.20729 26.9992 1.89291C26.7905 1.72724 26.5585 1.59324 26.3107 1.49524C26.0512 1.38976 25.7818 1.31066 25.5064 1.25916C25.3717 1.23539 25.2362 1.21623 25.1002 1.20171C24.8793 1.17324 24.6569 1.15885 24.4341 1.15862C23.549 1.15862 22.7797 1.38034 22.1258 1.82155C21.4687 2.2623 20.9727 2.86778 20.6357 3.63439C20.2986 4.39785 20.1285 5.26231 20.1285 6.2255C20.1285 6.57964 20.1482 6.91357 20.1886 7.23089C20.2259 7.54508 20.2923 7.85881 20.3816 8.16761C20.5465 8.751 20.8225 9.29706 21.1945 9.77578C21.5634 10.2453 22.0302 10.6169 22.598 10.8907C23.1626 11.1645 23.791 11.3 24.4826 11.3C25.1913 11.3 25.8255 11.1645 26.3875 10.8907C26.9467 10.6169 27.4077 10.248 27.7708 9.78431C28.1339 9.32022 28.4072 8.78117 28.5921 8.16716C28.687 7.85483 28.7593 7.53608 28.8085 7.21339C28.8583 6.90145 28.8812 6.57335 28.8812 6.22461ZM46.098 11.9252H45.0926L38.0257 1.88394V10.8525C38.0257 11.0828 38.0774 11.2583 38.1783 11.3768C38.2852 11.4661 38.4378 11.5294 38.6344 11.5702V11.9248H36.4463V11.5787C36.6487 11.5446 36.8013 11.4755 36.8992 11.3714C36.997 11.2673 37.0455 11.0949 37.0455 10.853V1.54686C37.0455 1.30449 36.9912 1.129 36.8844 1.01365C36.8009 0.935997 36.6537 0.872712 36.4463 0.820647V0.466068H38.4984L45.0922 10.0841V1.54686C45.0922 1.29866 45.0455 1.11553 44.9396 1.00512C44.8547 0.916699 44.6968 0.861042 44.4836 0.820647V0.466068H46.6716V0.820647C46.4638 0.855207 46.3166 0.915799 46.2273 1.00781C46.1416 1.09713 46.0976 1.27577 46.0976 1.54686V11.9252H46.098ZM63.5393 6.06707C63.5393 9.80271 60.6524 11.9252 57.1205 11.9252H53.0433V11.5792C53.2448 11.5451 53.3983 11.476 53.4993 11.3687C53.6003 11.2623 53.6519 11.0895 53.6519 10.8534V1.54686C53.6519 1.31616 53.594 1.13752 53.4818 1.01365C53.3983 0.935997 53.2511 0.872712 53.0433 0.820647V0.466068H57.6851C61.033 0.466068 63.5393 2.33142 63.5393 6.06707ZM62.0384 6.05001C62.0384 2.86419 60.3534 1.37989 57.7246 1.37989H55.0204V10.9621H57.0989C59.7538 10.9621 62.0384 9.42659 62.0384 6.05001ZM72.217 11.9252H69.5397V11.5707C69.7587 11.5298 69.9149 11.467 70.0096 11.3804C70.1017 11.2942 70.1483 11.1178 70.1483 10.853V1.54686C70.1483 1.30449 70.0904 1.129 69.9782 1.01365C69.9001 0.935997 69.7529 0.872712 69.5397 0.820647V0.466068H72.217V0.81212C72.1589 0.821842 72.1012 0.834273 72.0442 0.849374C72.0177 0.85835 71.9576 0.883932 71.8629 0.921185C71.8145 0.941793 71.7707 0.971753 71.734 1.00934C71.6972 1.04693 71.6683 1.0914 71.6488 1.14022C71.6057 1.22639 71.5833 1.36239 71.5833 1.54641V10.8521C71.5833 10.9585 71.586 11.0393 71.5922 11.0913C71.5998 11.1501 71.6192 11.2067 71.6492 11.2578C71.6959 11.3588 71.7736 11.4342 71.8885 11.4858C71.9199 11.4971 71.9692 11.5119 72.0357 11.5325C72.0999 11.5523 72.1591 11.5666 72.217 11.5783V11.9252Z" fill="white"/>
</svg>
