<svg width="110" height="27" viewBox="0 0 110 27" fill="none" xmlns="http://www.w3.org/2000/svg">
<g clip-path="url(#clip0)">
<path fill-rule="evenodd" clip-rule="evenodd" d="M0 5.344V26.5227H3.25744V25.0328H1.6661V6.95136H3.25744V5.344H0ZM8.44798 23.6871V8.33978H4.92354V23.6871H8.44798ZM11.9724 8.33978V14.4275H9.06743V17.0014H11.9724V23.6871H15.5396V8.33978H11.9724ZM17.3819 12.2914V19.3083C17.3819 22.288 19.0854 23.858 22.4763 23.9968V21.5191C21.4884 21.4229 20.9865 20.8569 20.9865 19.8743V12.1366C20.9865 11.1647 21.4884 10.6253 22.4763 10.5078V8.00869C19.0854 8.10482 17.3819 9.54129 17.3819 12.2914ZM24.6497 12.1366V19.869C24.6497 20.8729 24.1478 21.4176 23.1171 21.5137V23.9915C26.5882 23.9114 28.329 22.3841 28.329 19.383V12.3715C28.329 9.48255 26.5882 8.00869 23.1171 7.99267V10.5132C24.1424 10.604 24.6497 11.1487 24.6497 12.1366ZM30.0539 12.2914V19.3083C30.0539 22.288 31.7574 23.858 35.1483 23.9968V21.5191C34.1604 21.4229 33.6584 20.8569 33.6584 19.8743V12.1366C33.6584 11.1647 34.1604 10.6253 35.1483 10.5078V8.00869C31.7627 8.10482 30.0539 9.54129 30.0539 12.2914ZM37.3217 12.1366V19.869C37.3217 20.8729 36.8198 21.4176 35.7891 21.5137V23.9915C39.2602 23.9114 41.001 22.3841 41.001 19.383V12.3715C41.001 9.48255 39.2602 8.00869 35.7891 7.99267V10.5132C36.8198 10.604 37.3217 11.1487 37.3217 12.1366ZM46.1221 8.33978H42.8273V23.6871H46.1221V8.33978ZM50.3835 22.6618V17.3698L46.544 9.54129V14.8867L50.3835 22.6618ZM54.1429 8.33978H50.7894V23.6871H54.1429V8.33978ZM56.06 8.33978V23.6871H59.6592V8.33978H56.06ZM61.5229 12.1953V19.4631C61.5229 21.0331 61.9287 22.1599 62.7244 22.8754C63.5201 23.591 64.7964 23.9381 66.5639 23.9381V21.5191C65.6134 21.4229 65.1328 20.8943 65.1328 19.9865V12.0618C65.1328 11.1487 65.6134 10.6253 66.5639 10.5078V8.00869C63.2104 8.00869 61.5229 9.40245 61.5229 12.1953ZM67.1246 7.99267V10.4918C68.23 10.5292 68.7907 11.0525 68.7907 12.0618V13.6264H72.219V12.2327C72.219 9.40245 70.5156 7.99267 67.1246 7.99267ZM67.1246 21.5191V23.9541H67.2795C68.4436 23.9541 69.298 23.4949 69.816 22.5817L70.5903 23.6818H72.219V14.6197H66.8309V16.9266H67.9737C68.5184 16.9266 68.7854 17.2577 68.7854 17.8985V19.9918C68.7907 20.9744 68.23 21.4977 67.1246 21.5191ZM81.7137 8.33978H77.1586L73.2657 23.6871H76.7528L79.4655 11.656L80.667 17.8985H78.6325L78.1305 20.4777H81.1904L81.9059 23.6925H85.6066L81.7137 8.33978ZM89.9481 8.33978H86.6532V23.6871H89.9481V8.33978ZM94.2094 22.6618V17.3698L90.3699 9.54129V14.8867L94.2094 22.6618ZM97.9742 8.33978H94.6206V23.6871H97.9742V8.33978ZM102.892 26.512V5.38672H99.6349V6.99408H101.242V25.0275H99.6349V26.512H102.892ZM104.692 6.7164L105.894 7.1436L106.63 4.21725L108.259 6.67902L109.247 5.86733L107.116 3.758L110 3.56576L109.765 2.26812L107.015 3.12253L108.216 0.489883L106.994 0.00927734L106.374 2.89825L104.633 0.457843L103.661 1.32827L105.888 3.34148L103.005 3.53372L103.256 4.83136L106.027 3.95559L104.692 6.7164Z" fill="white"/>
</g>
<defs>
<clipPath id="clip0">
<rect width="110" height="26.532" fill="white"/>
</clipPath>
</defs>
</svg>
