<svg width="73" height="16" viewBox="0 0 73 16" fill="none" xmlns="http://www.w3.org/2000/svg">
<path fill-rule="evenodd" clip-rule="evenodd" d="M6.16187 3.78016H7.76156C8.29479 3.78016 8.69462 3.88996 8.87263 4.16472C9.05024 4.38483 9.09485 4.71424 9.00604 5.09931C8.96144 5.53852 8.78383 5.9236 8.51742 6.1432C8.2506 6.36331 7.85078 6.47312 7.27294 6.47312H5.71785L6.16187 3.78016ZM0.606934 15.1546H6.7839C7.05072 15.1546 7.58396 15.0995 8.42821 14.9897C9.05065 14.8799 9.53927 14.7149 9.8507 14.4953C10.3831 14.1627 10.8526 13.6945 11.2282 13.1215C11.6284 12.5168 11.8948 11.8575 11.9836 11.0874C12.1616 10.209 12.117 9.43982 11.806 8.83515C11.5396 8.23047 11.006 7.84591 10.2063 7.57115C10.7842 7.35104 11.2728 7.02163 11.6284 6.63656C12.1616 6.03239 12.4727 5.31791 12.6061 4.43897C12.7841 3.44973 12.6503 2.62596 12.1616 1.91148C11.673 1.25216 10.873 0.922241 9.7619 0.922241H3.09548L0.606934 15.1546ZM5.22841 9.21971H7.05072C7.67276 9.21971 8.11719 9.32951 8.2952 9.60427C8.51742 9.87903 8.56161 10.209 8.51742 10.5935C8.42821 11.0879 8.2506 11.4178 7.93958 11.6926C7.62856 11.9673 7.18413 12.0771 6.5621 12.0771H4.74019L5.22841 9.21971ZM14.7386 4.82405H17.7604L17.4493 6.52726C17.8496 5.75763 18.2494 5.26326 18.6046 4.9885C18.9602 4.71424 19.3601 4.60393 19.8045 4.60393C20.2935 4.60393 20.7821 4.76889 21.2712 5.15346L19.8045 7.95571C19.4489 7.7356 19.1825 7.6263 18.9602 7.6263C18.5158 7.6263 18.1602 7.84591 17.8492 8.28563C17.4489 8.8903 17.0491 10.044 16.7827 11.6921L16.2049 15.1541H12.9609L14.7386 4.82405ZM26.7815 10.8683C26.7373 11.3626 26.6035 11.8024 26.3817 12.0771C26.1947 12.4179 25.9325 12.685 25.6262 12.8468C25.2706 13.0664 24.9154 13.1757 24.5598 13.1757C24.2042 13.1757 23.9824 13.1215 23.8489 12.9009C23.7159 12.6813 23.6709 12.4612 23.7159 12.1318C23.7601 11.857 23.8935 11.6364 24.1158 11.4173C24.2938 11.1977 24.7382 10.9776 25.449 10.758L26.9157 10.2626L26.7815 10.8683ZM25.1376 7.24174C25.4486 7.02213 25.8485 6.96698 26.3821 6.96698C26.7819 6.96698 27.0487 7.02213 27.1822 7.24174C27.3156 7.40669 27.3602 7.79126 27.271 8.23047C26.8265 8.45109 26.4267 8.61503 26.0265 8.72585C25.6709 8.83565 24.8712 9.05475 23.5821 9.32951C22.5599 9.60427 21.8044 9.98884 21.3158 10.4837C20.8714 10.9781 20.5603 11.6369 20.4269 12.407C20.2935 13.2855 20.4269 13.9999 20.8714 14.5495C21.2716 15.099 21.9824 15.4289 22.9601 15.4289C23.7159 15.4289 24.4268 15.2639 25.0488 14.9892C25.4932 14.7696 25.9377 14.3845 26.4709 13.8901V14.5495C26.4709 14.7144 26.5151 14.8794 26.6039 15.1541H29.6261C29.4927 14.7144 29.4481 14.3845 29.4481 14.1097C29.4481 13.835 29.4923 13.4504 29.5815 12.9566L30.3815 8.39543C30.4708 7.90106 30.4708 7.40619 30.3815 6.85667C30.3373 6.30715 30.2039 5.92259 29.9817 5.59267C29.6261 5.20811 29.2263 4.93334 28.6484 4.76838C28.0706 4.65858 27.3156 4.60343 26.3821 4.60343C25.7601 4.60343 25.2264 4.65808 24.6936 4.76838C24.1604 4.87819 23.7159 4.98799 23.3603 5.2081C22.9486 5.46028 22.5732 5.79449 22.2493 6.19735C21.9828 6.58191 21.716 7.07678 21.4938 7.79075L24.4714 8.17532C24.6932 7.7361 24.9154 7.40669 25.1376 7.24174ZM31.0478 12.2972L34.2918 11.9117C34.3364 12.407 34.4698 12.7359 34.6474 12.9009C34.8696 13.1215 35.1364 13.2308 35.5362 13.2308C35.9807 13.2308 36.3363 13.121 36.6027 12.9009C36.8245 12.7359 36.9583 12.5163 37.0029 12.2416C37.0467 11.9668 36.9583 11.7472 36.7361 11.5823C36.6027 11.4724 36.1583 11.3616 35.4474 11.1977C34.381 10.9229 33.6251 10.7023 33.2253 10.5373C32.8251 10.3177 32.5145 9.98783 32.3364 9.49397C32.1142 8.9996 32.07 8.45058 32.1584 7.79075C32.2918 7.13143 32.5141 6.52675 32.9585 6.03239C33.3583 5.53751 33.8469 5.20811 34.4694 4.93334C35.0472 4.71374 35.8022 4.60393 36.7803 4.60393C37.758 4.60393 38.4684 4.65858 38.9128 4.87869C39.3573 5.04365 39.7129 5.31841 39.9351 5.75763C40.2019 6.14219 40.3795 6.69171 40.4683 7.35104L37.3573 7.68045C37.3573 7.35104 37.2685 7.13092 37.0913 6.96597C36.8691 6.80101 36.6023 6.69121 36.2467 6.69121C35.8911 6.69121 35.6246 6.74585 35.4028 6.91081C35.2248 7.07577 35.0914 7.24073 35.0914 7.51498C35.0472 7.73509 35.0914 7.9547 35.3136 8.064C35.4916 8.1743 35.9361 8.28461 36.6023 8.39391C37.6246 8.55887 38.3796 8.77848 38.869 9.05324C39.3573 9.328 39.6691 9.65791 39.8467 10.1523C40.0689 10.6477 40.1135 11.1967 39.9801 11.8008C39.8913 12.4055 39.6245 13.0097 39.2689 13.5592C38.869 14.1087 38.3362 14.5485 37.6696 14.8784C36.9583 15.2629 36.0695 15.4279 35.003 15.4279C33.4921 15.4279 32.4257 15.1531 31.892 14.6036C31.3146 14.0556 31.0478 13.286 31.0478 12.2972ZM47.8902 11.143L50.8682 11.5828C50.5563 12.3519 50.1569 13.0107 49.6675 13.6159C49.1793 14.1654 48.646 14.6051 47.9794 14.934C47.3128 15.2639 46.5565 15.4294 45.6239 15.4294C44.735 15.4294 44.0237 15.3196 43.4459 15.0995C42.9127 14.8799 42.4245 14.55 42.1134 14.1103C41.7538 13.6694 41.4932 13.1205 41.3572 12.5173C41.2246 11.858 41.2684 11.0337 41.446 10.0445C41.6244 9.00112 41.935 8.06602 42.3357 7.35205C42.6467 6.85717 43.0015 6.41796 43.4459 5.97825C43.8903 5.59368 44.3348 5.26377 44.7792 5.04416C45.4458 4.71424 46.2905 4.60444 47.2682 4.60444C48.6014 4.60444 49.6237 4.8792 50.2015 5.48337C50.8236 6.08754 51.1792 6.96698 51.2676 8.12067L48.1566 8.61504C48.1566 8.17583 48.0232 7.84591 47.801 7.6263C47.6234 7.40619 47.3128 7.29639 46.8683 7.29639C46.3343 7.29639 45.8899 7.57115 45.4454 8.01087C45.0456 8.50523 44.7788 9.21971 44.6016 10.1533C44.4682 10.9776 44.5128 11.6369 44.7792 12.0766C45.0014 12.5163 45.4016 12.7359 45.8903 12.7359C46.2909 12.7359 46.6903 12.6261 47.0013 12.3514C47.357 12.0771 47.6242 11.6926 47.8902 11.143ZM58.1112 10.8683C58.0224 11.3626 57.889 11.8024 57.7114 12.0771C57.5243 12.4178 57.2621 12.6849 56.9559 12.8468C56.6003 13.0664 56.2447 13.1757 55.8891 13.1757C55.5334 13.1757 55.3112 13.1215 55.1786 12.9009C55.0002 12.6813 54.9564 12.4612 55.0452 12.1318C55.089 11.857 55.2228 11.6364 55.4008 11.4173C55.6231 11.1977 56.0675 10.9776 56.7779 10.758L58.2446 10.2626L58.1112 10.8683ZM56.4673 7.24174C56.7783 7.02213 57.1786 6.96698 57.7118 6.96698C58.1116 6.96698 58.3784 7.02213 58.5118 7.24174C58.6444 7.40669 58.6444 7.79126 58.6006 8.23047C58.1562 8.45109 57.756 8.61503 57.3562 8.72585C57.0005 8.83565 56.1563 9.05475 54.9118 9.32951C53.8896 9.60427 53.1341 9.98884 52.6451 10.4837C52.2015 10.9781 51.8896 11.6369 51.757 12.407C51.6236 13.2855 51.757 13.9999 52.2015 14.5495C52.6013 15.099 53.3125 15.4289 54.2902 15.4289C55.0456 15.4289 55.7561 15.2639 56.3339 14.9892C56.8229 14.7696 57.2674 14.3845 57.8006 13.8901C57.756 14.2201 57.756 14.4397 57.8006 14.5495C57.8006 14.7144 57.8452 14.8794 57.934 15.1541H60.9112C60.8224 14.7144 60.7778 14.3845 60.7778 14.1097C60.7778 13.835 60.8224 13.4504 60.9112 12.9566L61.7112 8.39543C61.755 7.90106 61.8 7.40619 61.7112 6.85667C61.6666 6.30715 61.5328 5.92259 61.3106 5.59267C60.9558 5.20811 60.5114 4.93334 59.9773 4.76838C59.4003 4.65858 58.644 4.60343 57.7114 4.60343C57.0889 4.60343 56.5115 4.65808 55.9779 4.76838C55.4446 4.87819 55.0452 4.98799 54.6896 5.2081C54.2779 5.46028 53.9025 5.79449 53.5785 6.19735C53.3125 6.58191 53.0453 7.07678 52.8231 7.79075L55.8003 8.17532C56.0229 7.7361 56.2451 7.40669 56.4673 7.24174ZM64.1994 4.82405H67.1765L66.9105 6.47261C67.4438 5.81329 67.9766 5.31842 68.5098 5.04416C68.9989 4.71424 69.5767 4.60444 70.2433 4.60444C71.1322 4.60444 71.7538 4.93385 72.1536 5.53853C72.5543 6.19785 72.6427 7.24224 72.3759 8.56089L71.2648 15.1546H68.0654L69.0439 9.44033C69.1327 8.83565 69.1327 8.34129 68.9993 8.06552C68.8208 7.79126 68.5994 7.68146 68.2438 7.68146C67.8432 7.68146 67.4884 7.84641 67.177 8.23047C66.8659 8.56039 66.6437 9.21971 66.4665 10.209L65.6219 15.1541H62.4225L64.1994 4.82405Z" fill="white"/>
</svg>
