<svg width="73" height="13" viewBox="0 0 73 13" fill="none" xmlns="http://www.w3.org/2000/svg">
<path fill-rule="evenodd" clip-rule="evenodd" d="M52.0445 0.152703C54.1472 0.452487 55.7238 1.57589 56.775 3.44837L53.2459 4.79662C53.0203 4.49684 52.7198 4.19744 52.3446 4.04755C51.9695 3.82271 51.5936 3.74777 51.2185 3.74777C50.768 3.74777 50.3172 3.89766 49.9417 4.04755C49.5713 4.26751 49.2618 4.57652 49.0412 4.94651C48.7406 5.32085 48.6653 5.77053 48.6653 6.21981C48.6653 6.66871 48.7406 7.11878 48.9658 7.49312C49.2664 7.86746 49.5666 8.16724 49.9417 8.39208C50.3176 8.61691 50.6927 8.76641 51.1432 8.76641C52.0445 8.69186 52.7198 8.31752 53.2459 7.71795L56.4745 8.99125C56.2489 9.74071 55.1227 11.3884 53.8467 11.9126C53.1706 12.2124 52.3446 12.4372 51.1432 12.4372C50.2419 12.4372 49.4163 12.2869 48.5907 11.9126C47.8397 11.6128 47.1636 11.1631 46.6382 10.5639C46.0725 10.0029 45.6144 9.34301 45.2864 8.61691C44.9859 7.86746 44.836 7.11877 44.836 6.37009V6.29476C44.836 5.17135 45.1366 4.12289 45.6623 3.14898C46.2623 2.17546 46.9388 1.426 47.8397 0.902162C48.8155 0.302595 49.7914 0.0781469 50.768 0.0781469C51.2189 0.0777566 51.594 0.0777573 52.0445 0.152703ZM36.7399 0.594961H40.4196V12.3548H36.7399V0.594961ZM0.729492 0.302203H4.90266L7.85873 3.82271L10.9018 0.302203H15.0746V12.1374H10.9018V5.3958L7.85873 8.76641L4.90266 5.3958V12.1374H0.729492V0.302203ZM27.8357 8.13328L25.9586 4.61277L24.2317 8.05872L27.8357 8.13328ZM23.7059 0.193688L28.5864 0.343581L33.8423 11.954H29.3374L28.7367 10.5308H23.4053L22.8799 11.954H17.9241L23.7059 0.193688ZM63.7907 6.29086C63.7907 6.74053 63.866 7.18982 64.0912 7.63949C64.3918 8.01383 64.692 8.31362 65.0679 8.53845C65.5183 8.76329 65.8935 8.91279 66.3443 8.91279C66.7952 8.91279 67.2456 8.76329 67.6207 8.53845C67.9966 8.31362 68.3718 8.01383 68.5974 7.56494C68.8222 7.18982 68.9725 6.74092 68.9725 6.29086C68.9725 5.84196 68.8222 5.39229 68.5974 5.01795C68.3718 4.64322 67.9966 4.34382 67.6207 4.04404C67.2456 3.81959 66.7952 3.74425 66.3443 3.74425C65.8935 3.74425 65.5187 3.8192 65.0679 4.04404C64.692 4.26888 64.3918 4.64322 64.0912 5.01795C63.866 5.39229 63.7907 5.84157 63.7907 6.29086ZM66.3439 0.0738525C67.3951 0.0738525 68.371 0.29869 69.3476 0.822922C70.3235 1.27221 71.0745 2.02128 71.7498 2.99518C72.3505 3.89376 72.6511 5.01756 72.6511 6.29047C72.6511 7.11448 72.5008 7.93889 72.2006 8.7629C71.8255 9.51158 71.3751 10.1857 70.8489 10.7099C70.2489 11.3091 69.5725 11.6835 68.8218 11.9832C68.0712 12.283 67.3198 12.4329 66.4189 12.4329H66.3443C65.5187 12.4329 64.7677 12.2826 64.0167 11.9832C63.3414 11.7584 62.6649 11.3091 62.0642 10.7849C61.4635 10.2607 61.013 9.58653 60.7124 8.83785C60.3373 8.08839 60.187 7.18943 60.187 6.29086C60.187 5.31734 60.3373 4.41838 60.7124 3.6697C61.0883 2.92063 61.5388 2.24651 62.1395 1.72227C62.8148 1.1231 63.4905 0.748366 64.1666 0.448972C64.8419 0.223744 65.5929 0.0738525 66.3439 0.0738525Z" fill="white"/>
</svg>
