<svg width="110" height="16" viewBox="0 0 110 16" fill="none" xmlns="http://www.w3.org/2000/svg">
<path d="M102.393 2.1475L101.187 4.0977H99.728L101.366 1.37337H103.36L103.301 3.21936L104.432 1.37337H105.906L104.254 4.0977H102.393V2.1475ZM107.514 1.37344L104.641 4.09777H106.323L106.933 3.4874H108.02L107.856 4.09777H109.523L110 1.37344H107.514ZM108.511 1.79028L108.199 2.9217H107.38L108.511 1.79028ZM107.946 9.17417C107.946 9.17417 102.705 8.37027 97.5843 10.4098C97.5843 10.4098 95.917 11.0797 94.0114 12.1665L91.5699 13.5658C91.5699 13.5658 89.2922 14.727 87.208 14.9057C87.208 14.9057 84.9899 15.0843 84.4391 13.9529C84.4391 13.9529 83.8882 12.8066 84.4986 11.1988C84.4986 11.1988 85.0197 9.84409 86.1362 8.59358C86.1362 8.59358 85.109 8.75733 84.4242 8.32561C84.4242 8.32561 83.7691 7.93855 83.7989 7.26863C83.7989 7.26863 83.8287 6.59872 84.5284 6.06278C84.5284 6.06278 85.2281 5.51196 86.1957 5.40775C86.1957 5.40775 87.1485 5.30354 87.7886 5.69061C87.7886 5.69061 88.6967 6.22654 88.3246 7.14954C88.3246 7.14954 89.5304 7.01555 92.0017 7.22397C92.0017 7.22397 89.7835 9.3677 88.6819 11.5263C88.6819 11.5263 88.2948 12.2558 88.3841 12.7619C88.3841 12.7619 88.4585 13.2532 88.9201 13.417C88.9201 13.417 89.9621 13.7891 91.8379 12.5833L95.9914 9.97807C95.9914 9.97807 98.4775 8.51914 100.502 7.64081C100.502 7.64081 105.832 5.37798 109.97 6.42007C109.97 6.42007 108.779 7.83434 107.946 9.17417ZM14.8125 2.16238C14.8125 2.16238 11.8202 1.92419 9.34893 2.50478C9.34893 2.50478 6.95212 3.07049 5.73138 4.23168C5.73138 4.23168 4.46598 5.45241 4.85305 6.956C4.85305 6.956 5.28477 8.60846 7.65181 10.2758C7.65181 10.2758 3.81096 10.1121 1.81609 8.45959C1.81609 8.45959 -0.000122249 6.97089 0.372053 4.96114C0.372053 4.96114 0.759116 2.9514 3.11127 1.67111C3.11127 1.67111 5.73138 0.241957 9.75088 0.465262L14.604 0.896986L18.4747 1.3436C18.4747 1.3436 22.5239 1.74555 26.2457 1.04586C26.2457 1.04586 21.6307 4.18702 19.5316 6.40518C19.5316 6.40518 16.2565 9.87386 15.3037 14.2358C15.3037 14.2358 17.6559 13.9082 19.9931 12.3749C19.9931 12.3749 21.9433 11.0946 23.3725 9.32304C23.3725 9.32304 27.6302 3.99349 32.7513 2.1475C32.7513 2.1475 29.4911 5.16956 28.4192 8.29584C28.4192 8.29584 27.4962 10.9755 28.0619 14.1911C28.0619 14.1911 29.1338 13.804 30.2652 12.5684C30.2652 12.5684 31.084 11.6752 32.2898 9.90364L34.3293 6.94112C34.3293 6.94112 35.5203 5.30354 36.5475 4.42521C36.5475 4.42521 40.3586 1.0012 46.8196 0.465262C46.8196 0.465262 49.4843 0.256844 52.1342 0.584358C52.1342 0.584358 54.5906 0.896986 56.4068 1.61156C56.4068 1.61156 53.5783 2.78764 52.2533 4.05303C52.2533 4.05303 52.0598 2.66854 50.6306 1.83487C50.6306 1.83487 49.2015 1.0012 47.2662 1.12029C47.2662 1.12029 45.1373 1.23939 43.202 2.4899C43.202 2.4899 40.9838 3.91905 39.4951 6.55405C39.4951 6.55405 37.1281 10.7224 34.1209 12.7024C34.1209 12.7024 31.5008 14.4144 27.6004 14.9206C27.6004 14.9206 26.6476 14.4293 26.0075 13.417C26.0075 13.417 25.4865 12.5833 25.3376 11.7347C25.3376 11.7347 23.6405 13.0448 21.0203 13.8934C21.0203 13.8934 17.9387 14.8908 14.5743 14.9057C14.5743 14.9057 11.4778 10.7224 13.294 7.49194C13.294 7.49194 15.2442 3.99349 22.7026 2.07306L19.1892 2.43035L14.8125 2.16238Z" fill="white"/>
<path d="M47.162 6.07769C47.162 6.07769 46.507 5.69063 46.5516 5.02071C46.5516 5.02071 46.5814 4.35079 47.2811 3.81486C47.2811 3.81486 47.9808 3.26404 48.9336 3.14495C48.9336 3.14495 49.8863 3.04074 50.5414 3.44269C50.5414 3.44269 51.1964 3.82975 51.1517 4.49967C51.1517 4.49967 51.122 5.15469 50.4223 5.70551C50.4223 5.70551 49.7226 6.25633 48.7698 6.36054C48.7698 6.36054 47.817 6.46475 47.162 6.07769ZM45.2713 11.5859C45.2713 11.5859 44.5419 13.0299 45.3458 13.2979C45.3458 13.2979 46.0604 13.5212 48.353 12.9108L47.9659 13.6403C47.9659 13.6403 46.4325 14.6228 44.0953 14.861C44.0953 14.861 41.5645 15.1141 41.0285 14.0125C41.0285 14.0125 40.2246 12.3451 41.8175 9.85899C41.8175 9.85899 42.4428 8.89134 43.2318 8.14699C43.2318 8.14699 44.0059 7.43241 44.527 7.28354C44.527 7.28354 45.4946 7.01557 48.606 7.28354C48.606 7.28354 46.4325 9.36772 45.2713 11.5859ZM67.6615 5.02071C67.6615 5.02071 67.6912 4.35079 68.3909 3.81486C68.3909 3.81486 69.1055 3.26404 70.0583 3.14495C70.0583 3.14495 71.0111 3.04074 71.6512 3.44269C71.6512 3.44269 72.3062 3.82975 72.2765 4.49967C72.2765 4.49967 72.2467 5.15469 71.547 5.70551C71.547 5.70551 70.8473 6.25633 69.8796 6.36054C69.8796 6.36054 68.9269 6.46475 68.2867 6.07769C68.2867 6.07769 67.6317 5.69063 67.6615 5.02071ZM63.4782 6.10746C63.4782 6.10746 62.5701 7.73015 59.816 9.45704C59.816 9.45704 56.9279 11.2435 54.412 11.5859V11.0202C54.412 11.0202 56.124 10.6927 58.0147 9.57614C58.0147 9.57614 59.7713 8.53405 61.0814 7.2091C61.0814 7.2091 62.3915 5.88416 62.6296 4.88673C62.6296 4.88673 62.8827 3.78509 61.7066 3.50223C61.7066 3.50223 60.2775 3.14495 57.9998 5.05049C57.9998 5.05049 55.8411 6.85181 54.6502 9.12953C54.6502 9.12953 53.3699 11.6008 54.412 12.6875C54.412 12.6875 55.6476 13.9827 59.9797 12.7024L59.5778 13.4468C59.5778 13.4468 57.2703 14.5335 55.0372 14.8313C55.0372 14.8313 52.7744 15.1141 51.375 14.474C51.375 14.474 49.8566 13.7892 49.797 12.1665C49.797 12.1665 49.7375 10.3503 51.5388 7.65571C51.5388 7.65571 53.4294 4.81229 56.1538 3.14495C56.1538 3.14495 58.5804 1.65624 60.8283 1.53715C60.8283 1.53715 63.0018 1.41805 63.8355 2.60901C63.8355 2.60901 64.7287 3.8893 63.4782 6.10746ZM74.4202 1.37339H78.4397L78.0675 1.98376H76.8766L75.6112 4.09772H73.9587L75.2241 1.98376H74.048L74.4202 1.37339ZM62.9423 9.85899C62.9423 9.85899 63.5675 8.89134 64.3565 8.14699C64.3565 8.14699 65.1307 7.43241 65.6517 7.28354C65.6517 7.28354 66.6045 7.01557 69.7159 7.28354C69.7159 7.28354 67.4977 9.42727 66.3961 11.5859C66.3961 11.5859 65.6666 13.0299 66.4705 13.2979C66.4705 13.2979 67.1851 13.5212 69.4777 12.9108L69.0757 13.6403C69.0757 13.6403 67.5424 14.6228 65.22 14.861C65.22 14.861 62.6892 15.1141 62.1533 14.0125C62.1533 14.0125 61.3494 12.3451 62.9423 9.85899ZM71.9787 9.87388C71.9787 9.87388 73.125 7.96834 75.2241 6.71783C75.2241 6.71783 77.0999 5.61619 79.0054 5.42266C79.0054 5.42266 80.8812 5.22913 81.6851 6.04791C81.6851 6.04791 82.5634 6.92625 81.6255 8.65314C81.6255 8.65314 80.9556 9.88877 79.3776 10.916C79.3776 10.916 77.6507 12.0474 75.5516 12.4047L75.5069 11.9432C75.5069 11.9432 78.4248 11.0797 79.9582 9.36772C79.9582 9.36772 80.5983 8.65314 80.6579 8.08744C80.6579 8.08744 80.7323 7.50684 80.1368 7.31331C80.1368 7.31331 78.6183 6.80715 76.8766 8.53405C76.8766 8.53405 75.1794 10.2163 75.0752 12.1218C75.0752 12.1218 75.0454 13.7594 77.8591 13.3128C77.8591 13.3128 79.3478 13.0895 81.2087 12.3749L80.8514 13.0746C80.8514 13.0746 79.0352 14.1465 76.9063 14.6228C76.9063 14.6228 74.7924 15.0992 73.2441 14.8015C73.2441 14.8015 71.5768 14.474 71.1599 13.3128C71.1599 13.3128 70.6984 12.0027 71.9787 9.87388ZM91.6594 2.34105L92.2995 2.51969C92.2995 2.51969 93.2374 2.80254 92.9397 3.27893C92.9397 3.27893 92.4186 4.14238 90.2451 4.14238C90.2451 4.14238 89.3668 4.14238 88.9351 3.91907L89.337 3.24916C89.337 3.24916 89.605 3.5469 90.4833 3.5469C90.4833 3.5469 91.2426 3.5469 91.3765 3.32359C91.3765 3.32359 91.451 3.18961 91.1681 3.0854L90.4982 2.90675C90.4982 2.90675 89.5454 2.6239 89.8432 2.13263C89.8432 2.13263 90.3493 1.31384 92.3442 1.31384C92.3442 1.31384 93.3565 1.31384 93.8031 1.56692L93.4012 2.22195C93.4012 2.22195 93.1928 1.9391 92.3293 1.9391C92.3293 1.9391 91.5552 1.9391 91.4212 2.14752C91.4212 2.14752 91.3617 2.25173 91.6594 2.34105ZM89.4263 1.96887H87.5506L87.2528 2.44526H89.1435L88.7862 3.04074H86.8955L86.6127 3.50223H88.5033L88.1461 4.09772H84.6029L86.2554 1.37339H89.7836L89.4263 1.96887ZM97.8971 1.98376H96.721L95.4407 4.09772H93.7882L95.0685 1.98376H93.8776L94.2497 1.37339H98.2692L97.8971 1.98376ZM97.1081 4.09772L98.7456 1.37339H100.398L98.7605 4.09772H97.1081ZM78.8861 1.37347L77.2336 4.09779H78.8266L79.5411 2.95149L79.7644 4.09779H81.4467L81.0298 2.89194C82.1315 2.78773 82.5186 2.1327 82.5186 2.1327C82.98 1.37347 81.1787 1.37347 81.1787 1.37347H78.8861ZM80.1217 1.93917H80.3302C81.0001 1.93917 80.8065 2.22203 80.8065 2.22203C80.6279 2.51977 80.092 2.51977 80.092 2.51977H79.7793L80.1217 1.93917ZM85.2877 1.37339L83.6353 4.09772H81.9828L83.6353 1.37339H85.2877Z" fill="white"/>
</svg>
