<svg width="73" height="30" viewBox="0 0 73 30" fill="none" xmlns="http://www.w3.org/2000/svg">
<path fill-rule="evenodd" clip-rule="evenodd" d="M34.72 0.741601C26.4044 0.741601 19.6182 7.16307 19.6182 15.0319C19.6182 22.9234 26.4044 29.3453 34.72 29.3453H34.7434L38.3071 22.8527H33.4029C31.2505 22.8527 29.7101 21.5352 28.3693 19.8772C27.2164 18.4541 26.5578 16.7956 26.5578 15.0319C26.5578 11.7031 28.9451 8.75113 32.5445 7.02198L35.9905 0.788502C35.5678 0.755401 35.144 0.739754 34.72 0.741601Z" fill="white"/>
<path fill-rule="evenodd" clip-rule="evenodd" d="M9.60975 29.3456L25.4051 0.741635H17.7484L7.48079 19.3244V0.741635H0.729492V29.3456H9.60975ZM36.1079 29.3456H56.855L60.5836 22.5944H48.2573L50.9514 17.7133H63.2769L66.7113 11.5037H54.3735L56.9023 6.92821H69.2282L72.6511 0.730103H51.9032L36.1079 29.3456Z" fill="white"/>
<path fill-rule="evenodd" clip-rule="evenodd" d="M33.238 12.4563H36.1547L36.7075 11.4448H42.6L42.0472 12.4563H45.5874L35.0956 21.2304L33.238 12.4563ZM37.1899 10.586H31.5327V9.71567H43.5641L43.082 10.586H37.1899ZM38.1072 8.91569H32.4031V8.05726H38.5893L39.0248 7.25765H33.2499V6.38731H39.5069L39.9424 5.59962H34.1203V4.72889H40.4245L40.8601 3.92929H34.9906V3.07087H41.3417L41.7765 2.27087H35.861V1.40053H42.2594L42.5881 0.812744H48.4805L43.9997 8.91607H38.1072V8.91569Z" fill="white"/>
</svg>
