<svg width="73" height="22" viewBox="0 0 73 22" fill="none" xmlns="http://www.w3.org/2000/svg">
<path fill-rule="evenodd" clip-rule="evenodd" d="M6.0565 18.5531V18.2572C6.05077 17.9126 5.96442 17.8042 5.66608 17.8042C5.29327 17.8042 5.31005 18.1062 5.31005 18.4139V19.6523C5.31578 20.1 5.47661 20.1839 5.70046 20.1839C5.97588 20.1839 6.0565 19.9727 6.04463 19.5438H6.79067C6.81931 20.3046 6.52098 20.7883 5.75775 20.7883C4.89713 20.7883 4.54723 20.359 4.56401 19.3568V18.463C4.52963 17.6597 4.92005 17.2001 5.65463 17.2001C6.69327 17.2001 6.80213 17.7686 6.80213 18.6979V19.1575H5.31005V18.5531H6.0565ZM34.4809 18.2089C34.4923 17.762 34.4293 17.2001 33.4136 17.2001C32.4781 17.2001 32.2775 17.6532 32.2833 18.3002H32.9949C32.9892 17.9916 33.0465 17.8046 33.3849 17.8046C33.5859 17.8046 33.7005 17.8287 33.7348 17.9797C33.7978 18.258 33.6833 18.409 33.3677 18.5473C32.7825 18.8015 32.2603 18.9885 32.2603 19.7677C32.2603 20.4687 32.5243 20.7883 33.1267 20.7883C33.3792 20.7883 33.6088 20.6308 33.7807 20.3472H33.7921C33.7807 20.4687 33.7864 20.5894 33.838 20.6979H34.5439C34.5027 20.5421 34.4815 20.3818 34.4809 20.2207L33.7348 19.2721C33.7176 19.5983 33.7978 20.1843 33.3563 20.1843C33.0809 20.1843 33.0064 20.0091 33.0064 19.7497C33.0064 19.6048 33.0236 19.4354 33.1328 19.3388C33.328 19.1702 33.5515 19.0376 33.7352 18.9042V19.2725L34.4813 20.2211V18.2089H34.4809ZM30.9733 18.5531V18.2572C30.9676 17.9126 30.8812 17.8042 30.5829 17.8042C30.2101 17.8042 30.2273 18.1062 30.2273 18.4139V19.6523C30.233 20.1 30.3938 20.1839 30.6177 20.1839C30.8931 20.1839 30.9733 19.9727 30.9618 19.5438H31.7079C31.7365 20.3046 31.4382 20.7883 30.675 20.7883C29.8143 20.7883 29.4644 20.359 29.4812 19.3568V18.463C29.4468 17.6597 29.8368 17.2001 30.5714 17.2001C31.6101 17.2001 31.7189 17.7686 31.7189 18.6979V19.1575H30.2268V18.5531H30.9733ZM38.3351 18.5531V18.2572C38.3293 17.9126 38.243 17.8042 37.9451 17.8042C37.5718 17.8042 37.5894 18.1062 37.5894 18.4139V19.6523C37.5952 20.1 37.7556 20.1839 37.9794 20.1839C38.2544 20.1839 38.3351 19.9727 38.324 19.5438H39.0696C39.0983 20.3046 38.8004 20.7883 38.0371 20.7883C37.1761 20.7883 36.8262 20.359 36.8438 19.3568V18.463C36.8094 17.6597 37.1994 17.2001 37.934 17.2001C38.9722 17.2001 39.0811 17.7686 39.0811 18.6979V19.1575H37.5894V18.5531H38.3351ZM51.2178 18.2089C51.2297 17.762 51.1667 17.2001 50.151 17.2001C49.2158 17.2001 49.0145 17.6532 49.0206 18.3002H49.7319C49.7262 17.9916 49.783 17.8046 50.1219 17.8046C50.3224 17.8046 50.4374 17.8287 50.4718 17.9797C50.5348 18.258 50.4198 18.409 50.1043 18.5473C49.5191 18.8015 48.9973 18.9885 48.9973 19.7677C48.9973 20.4687 49.2613 20.7883 49.8637 20.7883C50.1162 20.7883 50.3458 20.6308 50.5176 20.3472H50.5295C50.5176 20.4687 50.523 20.5894 50.5749 20.6979H51.2809C51.2399 20.5421 51.2187 20.3818 51.2178 20.2207L50.4722 19.2721C50.4546 19.5983 50.5352 20.1843 50.0933 20.1843C49.8182 20.1843 49.7434 20.0091 49.7434 19.7497C49.7434 19.6048 49.7609 19.4354 49.8698 19.3388C50.065 19.1702 50.2885 19.0376 50.4726 18.9042V19.2725L51.2182 20.2211V18.2089H51.2178ZM40.3268 3.86597V6.13109H44.1016V12.0454H46.7449V6.13109H50.0167V3.86597H40.3268ZM30.8264 9.32764C30.8263 9.68459 30.8966 10.0381 31.0332 10.3678C31.1698 10.6976 31.37 10.9973 31.6224 11.2496C31.8748 11.502 32.1745 11.7022 32.5043 11.8387C32.8341 11.9753 33.1876 12.0455 33.5445 12.0454H39.8108V9.78067H33.4684V8.83656H39.3827V7.07479H33.4684V6.13068H39.823V3.86597H30.8256L30.8264 9.32764ZM27.1637 3.86597C27.8846 3.86597 28.576 4.15234 29.0857 4.6621C29.5955 5.17185 29.8819 5.86322 29.8819 6.58412V12.0454H27.239V6.13109H24.2188V12.0454H21.5764V6.13109H18.5562V12.0454H15.9134V3.86597H27.1637ZM65.0951 6.13109C64.7947 6.13109 64.5516 6.37459 64.5516 6.67497V9.23679C64.5516 9.53717 64.7947 9.78067 65.0951 9.78067H69.2938C69.438 9.78045 69.5761 9.72307 69.678 9.6211C69.7799 9.51914 69.8372 9.38093 69.8373 9.23679V6.67497C69.8372 6.53083 69.7799 6.39261 69.678 6.29065C69.5761 6.18869 69.438 6.13131 69.2938 6.13109H65.0951ZM64.6899 3.86597H69.6982C70.0551 3.86591 70.4086 3.93618 70.7385 4.07276C71.0683 4.20933 71.368 4.40954 71.6204 4.66195C71.8729 4.91436 72.0731 5.21402 72.2098 5.54383C72.3464 5.87364 72.4167 6.22713 72.4167 6.58412V9.32764C72.4167 9.68461 72.3464 10.0381 72.2098 10.3679C72.0731 10.6977 71.8729 10.9973 71.6204 11.2497C71.368 11.502 71.0683 11.7022 70.7384 11.8387C70.4086 11.9753 70.0551 12.0455 69.6982 12.0454H64.6899C64.333 12.0454 63.9795 11.9752 63.6497 11.8386C63.3199 11.7021 63.0202 11.5019 62.7678 11.2495C62.5153 10.9972 62.3151 10.6976 62.1784 10.3678C62.0418 10.038 61.9714 9.6846 61.9714 9.32764V6.58412C61.9716 5.86321 62.2581 5.17191 62.7679 4.66219C63.2777 4.15247 63.969 3.86608 64.6899 3.86597ZM53.5398 9.71805H58.0615C58.3619 9.71805 58.6058 9.96114 58.6058 10.2615V12.0376L61.2634 12.0425V9.97301C61.2635 9.61678 61.1587 9.26842 60.9619 8.97145C60.7652 8.67449 60.4853 8.44209 60.1572 8.30332C60.6393 7.97798 61.0125 7.47707 61.0125 6.85176V5.66252C61.0124 5.18195 60.8214 4.7211 60.4816 4.38129C60.1418 4.04148 59.681 3.85052 59.2004 3.85042H50.8974V12.0454H53.5398V9.71805ZM53.5398 6.13109H58.0615C58.3619 6.13109 58.6058 6.37459 58.6058 6.67497V7.34939C58.6057 7.49367 58.5483 7.63201 58.4462 7.73399C58.3442 7.83598 58.2058 7.89327 58.0615 7.89327H53.5398V6.13109ZM7.48473 2.54495C7.48464 2.23126 7.40651 1.92252 7.25736 1.64656C7.10822 1.37059 6.89276 1.13607 6.63039 0.964132C6.36802 0.792191 6.06699 0.688231 5.75444 0.661623C5.44188 0.635014 5.12761 0.686592 4.83995 0.811708C4.5523 0.936825 4.30029 1.13155 4.10664 1.37833C3.913 1.62511 3.78379 1.9162 3.73068 2.22536C3.67757 2.53452 3.70221 2.85204 3.8024 3.1493C3.90258 3.44656 4.07515 3.71422 4.30455 3.92817L7.48146 7.16933L7.48473 2.54495ZM3.72385 4.41271C3.50196 4.19095 3.22838 4.0279 2.92777 3.93823C2.62715 3.84856 2.30895 3.83511 2.00184 3.89907C1.69473 3.96303 1.40836 4.10241 1.16854 4.30463C0.928721 4.50686 0.742988 4.76557 0.628079 5.05747C0.513171 5.34937 0.472699 5.66527 0.510311 5.97671C0.547923 6.28815 0.662437 6.58534 0.843533 6.84149C1.02463 7.09764 1.26661 7.3047 1.54768 7.44402C1.82875 7.58333 2.14007 7.65053 2.45357 7.63954L7.01411 7.63135L3.72385 4.41271ZM4.25299 12.1542C3.51432 12.8929 3.51432 14.0899 4.25299 14.8286C4.52138 15.0973 4.86449 15.279 5.23761 15.35C5.61074 15.4209 5.99658 15.3778 6.34487 15.2263C6.69316 15.0749 6.98775 14.822 7.19026 14.5007C7.39278 14.1793 7.49382 13.8045 7.48023 13.4249L7.47205 8.86398L4.25299 12.1542ZM2.38523 8.39335C2.07152 8.39345 1.76276 8.4716 1.48678 8.62077C1.21081 8.76994 0.976284 8.98543 0.804353 9.24783C0.632422 9.51023 0.528486 9.81129 0.501913 10.1239C0.47534 10.4365 0.526965 10.7507 0.652135 11.0384C0.777305 11.3261 0.972086 11.5781 1.21892 11.7717C1.46576 11.9653 1.7569 12.0944 2.06609 12.1475C2.37528 12.2005 2.69282 12.1758 2.99007 12.0755C3.28733 11.9753 3.55497 11.8026 3.76886 11.5731L7.01002 8.39663L2.38523 8.39335ZM8.23364 2.54495C8.23351 2.23107 8.3115 1.9221 8.46059 1.64589C8.60968 1.36969 8.82518 1.13493 9.08765 0.962805C9.35012 0.790676 9.6513 0.686583 9.96405 0.659915C10.2768 0.633246 10.5912 0.684842 10.8791 0.810047C11.1669 0.935252 11.419 1.13013 11.6127 1.3771C11.8064 1.62408 11.9356 1.91538 11.9886 2.22475C12.0416 2.53412 12.0168 2.85182 11.9164 3.14919C11.816 3.44657 11.6431 3.71428 11.4134 3.92817L8.2365 7.16933L8.23364 2.54495ZM11.9945 4.41271C12.2164 4.19096 12.49 4.02791 12.7906 3.93824C13.0911 3.84856 13.4093 3.83509 13.7164 3.89903C14.0235 3.96297 14.3099 4.10232 14.5497 4.30452C14.7895 4.50671 14.9753 4.7654 15.0902 5.05727C15.2052 5.34914 15.2457 5.66502 15.2081 5.97645C15.1705 6.28788 15.0561 6.58506 14.875 6.84123C14.694 7.09739 14.452 7.30449 14.171 7.44385C13.89 7.58321 13.5787 7.65046 13.2652 7.63954L8.70467 7.63135L11.9945 4.41271ZM11.4654 12.1542C11.6871 12.3761 11.8502 12.6497 11.9398 12.9503C12.0295 13.2509 12.043 13.569 11.9791 13.8761C11.9151 14.1832 11.7758 14.4696 11.5736 14.7094C11.3714 14.9493 11.1127 15.135 10.8208 15.2499C10.5289 15.3649 10.2131 15.4054 9.90164 15.3678C9.59021 15.3303 9.29303 15.2158 9.03686 15.0347C8.78069 14.8537 8.5736 14.6118 8.43424 14.3307C8.29488 14.0497 8.22762 13.7384 8.23855 13.4249L8.24673 8.86398L11.4654 12.1542ZM13.3335 8.39335C13.6473 8.39338 13.9561 8.47147 14.2321 8.6206C14.5081 8.76972 14.7427 8.98519 14.9147 9.24758C15.0866 9.50996 15.1906 9.81103 15.2173 10.1236C15.2439 10.4362 15.1923 10.7505 15.0671 11.0382C14.942 11.3259 14.7472 11.5779 14.5004 11.7716C14.2535 11.9652 13.9624 12.0944 13.6532 12.1475C13.344 12.2005 13.0264 12.1758 12.7292 12.0755C12.4319 11.9753 12.1642 11.8026 11.9503 11.5731L8.70917 8.39663L13.3335 8.39335ZM2.09958 16.8314H2.69625C3.00031 16.838 3.20084 16.9227 3.20084 17.4293C3.20084 17.8823 2.99418 18.064 2.73022 18.0824H2.09917V18.7466H2.24282C2.4724 18.7466 2.70771 18.7401 2.92542 18.8072C3.20084 18.8911 3.19511 19.2717 3.20084 19.5496C3.20657 19.8516 3.18938 20.4073 3.28678 20.6975H4.17032V20.6128C3.97512 20.4802 3.99844 19.3683 3.99844 19.1812C3.99844 18.7466 3.8548 18.4258 3.37845 18.3595V18.3476C3.91782 18.2695 4.03855 17.7497 4.03855 17.2542C4.03855 16.4214 3.51063 16.1672 2.81657 16.1672H1.29584V20.6975H2.09917V16.8314H2.09958ZM8.66293 18.4749V18.0943C8.65147 17.9065 8.56553 17.8042 8.4047 17.8042C8.11782 17.8042 8.11782 18.1487 8.12355 18.5649V19.3683C8.10636 20.0333 8.18084 20.154 8.4047 20.1835C8.63428 20.1777 8.64001 19.9539 8.66293 19.6822V19.3679H9.40897V19.6822C9.40897 20.395 9.12782 20.7875 8.38751 20.7875C7.72782 20.7875 7.34928 20.4192 7.37792 19.5135V18.4082C7.37219 17.4539 7.8199 17.1997 8.38751 17.1997C9.13928 17.1997 9.41469 17.6953 9.40897 18.2028V18.4745H8.66293V18.4749ZM10.4005 17.291L10.7275 19.0965C10.7791 19.3986 10.8077 19.701 10.8368 20.003H10.8483C10.8712 19.7063 10.9113 19.4108 10.9628 19.1207L11.2898 17.291H12.0473L11.2616 20.7454C11.0721 21.5184 11.0549 22.0017 10.022 21.8454V21.2348C10.1427 21.2348 10.464 21.3011 10.464 21.0838C10.464 20.9631 10.4239 20.7695 10.3952 20.6492L9.61481 17.2914H10.4005V17.291ZM13.6302 18.4749V18.0943C13.6188 17.9065 13.5328 17.8042 13.372 17.8042C13.0851 17.8042 13.0851 18.1487 13.0909 18.5649V19.3683C13.0737 20.0333 13.1482 20.154 13.372 20.1835C13.6016 20.1777 13.6073 19.9539 13.6302 19.6822V19.3679H14.3763V19.6822C14.3763 20.395 14.0951 20.7875 13.3548 20.7875C12.6951 20.7875 12.3166 20.4192 12.3452 19.5135V18.4082C12.3395 17.4539 12.7872 17.1997 13.3548 17.1997C14.1066 17.1997 14.382 17.6953 14.3763 18.2028V18.4745H13.6302V18.4749ZM14.9459 20.6979V16.1672H15.692V20.6979H14.9459ZM16.6214 20.6979V17.291H17.367V20.6979H16.6214ZM16.6214 16.8805V16.1672H17.367V16.8805H16.6214ZM18.8996 17.6413H18.911C19.0776 17.2488 19.4103 17.2001 19.5822 17.2001C20.007 17.2001 20.3511 17.46 20.3282 18.0706V20.6979H19.5822V18.4262C19.5822 18.0943 19.5478 17.877 19.2667 17.8643C18.9851 17.8525 18.8877 18.1303 18.8996 18.4925V20.6979H18.1535V17.2914H18.8996V17.6413ZM22.9367 17.291H22.1907V17.6409H22.1792C22.0761 17.3331 21.8694 17.194 21.531 17.1997C21.0489 17.2116 20.7735 17.478 20.7563 18.4139V19.6466C20.7735 20.19 20.8999 20.7879 21.531 20.7879C21.8522 20.7695 22.0646 20.6672 22.2136 20.341L22.225 20.3529V20.7454C22.225 21.0114 22.1677 21.277 21.8522 21.277C21.7601 21.277 21.6799 21.2651 21.6226 21.2291C21.5956 21.2145 21.5732 21.1926 21.558 21.1659C21.5428 21.1392 21.5354 21.1088 21.5367 21.0781H20.7907C20.8308 21.6518 21.2384 21.8454 21.7315 21.8454C22.753 21.8454 22.9363 21.2892 22.9363 20.5943L22.1903 19.5798C22.1903 19.9723 22.0699 20.1835 21.8289 20.1835C21.5993 20.1835 21.5191 19.9236 21.5019 19.5974V18.4626C21.5252 18.1246 21.4905 17.8042 21.8404 17.8042C22.1903 17.8042 22.2021 18.2871 22.1903 18.5596V19.5803L22.9363 20.5948V17.291H22.9367ZM24.987 16.1672H27.6667V16.8314H26.7316V20.6979H25.9282V16.8314H24.987V16.1672Z" fill="white"/>
<path fill-rule="evenodd" clip-rule="evenodd" d="M28.2534 17.8946H28.2645C28.3566 17.6475 28.4482 17.5087 28.5571 17.4117C28.7695 17.2247 28.9127 17.2366 29.022 17.2304V18.1606C28.6091 18.1181 28.2931 18.2269 28.2817 18.7282V20.6975H27.5356V17.291H28.253V17.8946H28.2534ZM36.3788 20.7098C35.9369 20.7642 35.3173 20.8064 35.3173 20.172V17.8643H35.0132V17.2914H35.3116V16.3547H36.0633V17.2914H36.3788V17.8643H36.0633V19.9785C36.0805 20.1237 36.2872 20.1057 36.3788 20.0935V20.7098ZM41.2913 18.5596C41.3024 18.2871 41.2913 17.8042 40.9414 17.8042C40.5915 17.8042 40.6259 18.1246 40.6026 18.4627V19.5975C40.6202 19.9236 40.7 20.1835 40.9304 20.1835C41.171 20.1835 41.2917 19.9723 41.2917 19.5799L42.0374 20.6971H41.2917V20.3341H41.2799C41.1366 20.6787 40.9304 20.7687 40.6382 20.7871C40.0067 20.7871 39.875 20.1827 39.8574 19.6392V18.4074C39.875 17.4707 40.1557 17.2108 40.6382 17.1989C40.9533 17.1932 41.1546 17.3078 41.3032 17.6335H41.3151C41.2986 17.534 41.2907 17.4332 41.2917 17.3323V16.166H42.0374V20.6963L41.2917 19.579V18.5596H41.2913ZM47.0517 18.5109C47.1315 18.964 47.1716 19.5434 47.2294 20.1237H47.2412C47.2523 20.0149 47.258 19.9064 47.2699 19.7976C47.2977 19.4109 47.3321 19.0237 47.3898 18.6378L47.711 16.1672H48.543L47.7454 20.6975H46.7816L46.4604 18.9095C46.3749 18.4324 46.3462 17.9486 46.2885 17.4662H46.2766C46.2198 17.9491 46.1911 18.4324 46.1048 18.9095L45.8179 20.6975H44.8537L44.0336 16.1672H44.8656L45.227 18.6378C45.2847 19.0237 45.319 19.4109 45.3477 19.7976C45.3587 19.9064 45.3645 20.0149 45.3702 20.1237H45.3821C45.4451 19.5434 45.4852 18.964 45.565 18.5109L45.9558 16.1672H46.6208L47.0517 18.5109ZM52.5752 19.5741C52.5175 20.2023 52.7479 20.1839 52.9198 20.1839C53.1326 20.1839 53.2811 20.021 53.23 19.8033C53.2181 19.6106 53.0061 19.5021 52.8625 19.399L52.4557 19.1031C52.0825 18.8314 51.841 18.5171 51.841 18.028C51.841 17.5022 52.2376 17.2002 52.9546 17.2002C53.6781 17.2002 54.0104 17.5992 53.9928 18.3296H53.2472C53.2648 17.9491 53.1608 17.8046 52.9034 17.8046C52.725 17.8046 52.5879 17.8893 52.5879 18.0829C52.5879 18.2818 52.7254 18.3722 52.8686 18.4753L53.4768 18.9099C53.6662 19.0241 53.9642 19.3511 53.9875 19.5807C54.0505 20.172 53.913 20.7883 52.8805 20.7883C52.484 20.7883 51.7441 20.6132 51.8304 19.5741H52.5752ZM55.7873 20.7098C55.3453 20.7642 54.7249 20.8064 54.7249 20.172V17.8643H54.4213V17.2914H54.7196V16.3547H55.4718V17.2914H55.7873V17.8643H55.4718V19.9785C55.4886 20.1237 55.6956 20.1057 55.7873 20.0935V20.7098ZM69.3347 18.5531V18.2572C69.3281 17.9126 69.2418 17.8042 68.9439 17.8042C68.5715 17.8042 68.5882 18.1062 68.5882 18.414V19.6523C68.594 20.1 68.7544 20.1839 68.9782 20.1839C69.2541 20.1839 69.3347 19.9727 69.3228 19.5439H70.0685C70.0971 20.3046 69.7992 20.7883 69.0359 20.7883C68.1749 20.7883 67.825 20.3591 67.8426 19.3568V18.4631C67.8082 17.6597 68.1982 17.2002 68.9328 17.2002C69.9711 17.2002 70.0807 17.7686 70.0807 18.698V19.1575H68.5886V18.5531H69.3347ZM61.5089 19.3806C61.549 19.6228 61.5719 19.8643 61.5833 20.1119H61.6009C61.6009 19.9609 61.6464 19.4596 61.664 19.3564L61.9103 17.291H62.6625L62.0077 20.6975H61.1933L60.9462 19.3204C60.895 19.0368 60.8717 18.752 60.8488 18.4627H60.8254C60.8153 18.7335 60.7904 19.0036 60.7509 19.2717L60.5214 20.6975H59.6894L59.0236 17.291H59.8101L60.0741 19.3683C60.0917 19.4714 60.1371 19.9727 60.1371 20.1237H60.1481C60.16 19.8762 60.1825 19.6347 60.2234 19.3924L60.5328 17.291H61.1467L61.5089 19.3806ZM65.3757 18.2089C65.3868 17.762 65.3238 17.2002 64.308 17.2002C63.3729 17.2002 63.1724 17.6532 63.1777 18.3002H63.889C63.8832 17.9916 63.9409 17.8046 64.279 17.8046C64.4803 17.8046 64.5945 17.8287 64.6289 17.9798C64.6919 18.258 64.5777 18.409 64.2622 18.5474C63.677 18.8015 63.1544 18.9885 63.1544 19.7677C63.1544 20.4687 63.4184 20.7883 64.0207 20.7883C64.2732 20.7883 64.5028 20.6308 64.6755 20.3472H64.6866C64.6755 20.4687 64.6808 20.5895 64.7328 20.6979H65.4388C65.3974 20.5422 65.3762 20.3818 65.3757 20.2207L64.6293 19.2721C64.6125 19.5983 64.6923 20.1843 64.2503 20.1843C63.9753 20.1843 63.9008 20.0092 63.9008 19.7497C63.9008 19.6048 63.9176 19.4354 64.0273 19.3388C64.2225 19.1702 64.4459 19.0376 64.6293 18.9042V19.2725L65.3757 20.2211V18.2089ZM67.2918 20.7098C66.8498 20.7642 66.2302 20.8064 66.2302 20.172V17.8643H65.9258V17.2914H66.2241V16.3547H66.9763V17.2914H67.2918V17.8643H66.9763V19.9785C66.993 20.1237 67.2001 20.1057 67.2918 20.0935V20.7098ZM57.935 18.5531V18.2572C57.9293 17.9126 57.8429 17.8042 57.545 17.8042C57.1718 17.8042 57.1894 18.1062 57.1894 18.414V19.6523C57.1951 20.1 57.3555 20.1839 57.5794 20.1839C57.8544 20.1839 57.935 19.9727 57.9239 19.5439H58.6696C58.6982 20.3046 58.3995 20.7883 57.6371 20.7883C56.776 20.7883 56.4261 20.3591 56.4429 19.3568V18.4631C56.4085 17.6597 56.7994 17.2002 57.5331 17.2002C58.5722 17.2002 58.681 17.7686 58.681 18.698V19.1575H57.1894V18.5531H57.935ZM71.4639 17.8946H71.475C71.5671 17.6475 71.6587 17.5087 71.7676 17.4117C71.9804 17.2247 72.1232 17.2366 72.2329 17.2304V18.1606C71.8196 18.1181 71.5041 18.2269 71.4926 18.7282V20.6975H70.747V17.291H71.4639V17.8946Z" fill="white"/>
</svg>
