<svg width="32" height="33" viewBox="0 0 32 33" fill="none" xmlns="http://www.w3.org/2000/svg">
<circle cx="16" cy="16.0249" r="16" fill="#8DC33F"/>
<g clip-path="url(#clip0)">
<path d="M22.9965 23.0247V23.0241H23V17.8896C23 15.3778 22.4593 13.4429 19.5228 13.4429C18.1111 13.4429 17.1637 14.2175 16.777 14.952H16.7362V13.6774H13.9519V23.0241H16.8511V18.396C16.8511 17.1774 17.0821 15.999 18.5912 15.999C20.0781 15.999 20.1003 17.3897 20.1003 18.4741V23.0247H22.9965Z" fill="black"/>
<path d="M9.23096 13.6782H12.1336V23.025H9.23096V13.6782Z" fill="black"/>
<path d="M10.6812 9.0249C9.75308 9.0249 9 9.77799 9 10.7061C9 11.6342 9.75308 12.403 10.6812 12.403C11.6092 12.403 12.3623 11.6342 12.3623 10.7061C12.3617 9.77799 11.6087 9.0249 10.6812 9.0249V9.0249Z" fill="black"/>
</g>
<defs>
<clipPath id="clip0">
<rect width="14" height="14" fill="white" transform="translate(9 9.0249)"/>
</clipPath>
</defs>
</svg>
