<svg width="665" height="350" viewBox="0 0 665 350" fill="none" xmlns="http://www.w3.org/2000/svg">
<path d="M58.9683 239.269H664.626" stroke="#101428" stroke-width="2" stroke-miterlimit="22.9256" stroke-dasharray="22.8 22.8"/>
<path d="M5.753 235.621C5.753 236.237 5.555 236.747 5.159 237.15C4.763 237.553 4.24967 237.806 3.619 237.909V239.053H2.805V237.942C2.26967 237.898 1.782 237.733 1.342 237.447C0.909333 237.154 0.575667 236.761 0.341 236.27L1.166 235.599C1.584 236.464 2.222 236.897 3.08 236.897C3.52733 236.897 3.883 236.78 4.147 236.545C4.41833 236.31 4.554 236.024 4.554 235.687C4.554 235.24 4.27533 234.858 3.718 234.543C3.65933 234.506 3.39533 234.382 2.926 234.169C2.50067 233.964 2.18533 233.795 1.98 233.663C1.17333 233.157 0.77 232.515 0.77 231.738C0.77 231.159 0.964333 230.667 1.353 230.264C1.74167 229.861 2.255 229.626 2.893 229.56V228.548H3.707V229.582C4.48433 229.721 5.10767 230.11 5.577 230.748L4.829 231.452C4.389 230.873 3.85 230.583 3.212 230.583C2.84533 230.583 2.541 230.686 2.299 230.891C2.06433 231.089 1.947 231.349 1.947 231.672C1.947 232.09 2.18167 232.446 2.651 232.739C2.84167 232.849 3.15333 233.01 3.586 233.223C4.06267 233.45 4.40733 233.626 4.62 233.751C5.37533 234.213 5.753 234.836 5.753 235.621ZM6.81373 231.628L9.11273 229.692H9.98173V237.821H8.89273V231.155L7.41873 232.387L6.81373 231.628ZM15.3029 237.953C14.7456 237.953 14.2542 237.832 13.8289 237.59C13.4036 237.341 13.0662 237.003 12.8169 236.578C12.3549 235.764 12.1239 234.822 12.1239 233.751C12.1239 232.68 12.3549 231.738 12.8169 230.924C13.0662 230.499 13.4036 230.165 13.8289 229.923C14.2542 229.674 14.7456 229.549 15.3029 229.549C15.8676 229.549 16.3626 229.674 16.7879 229.923C17.2132 230.172 17.5432 230.506 17.7779 230.924C18.0126 231.335 18.1849 231.778 18.2949 232.255C18.4122 232.732 18.4709 233.23 18.4709 233.751C18.4709 234.272 18.4122 234.77 18.2949 235.247C18.1849 235.724 18.0126 236.171 17.7779 236.589C17.5432 237 17.2132 237.33 16.7879 237.579C16.3626 237.828 15.8676 237.953 15.3029 237.953ZM17.3599 233.751C17.3599 232.82 17.1912 232.061 16.8539 231.474C16.5166 230.873 15.9996 230.572 15.3029 230.572C14.6062 230.572 14.0892 230.873 13.7519 231.474C13.4146 232.061 13.2459 232.82 13.2459 233.751C13.2459 234.69 13.4146 235.452 13.7519 236.039C14.0966 236.633 14.6136 236.93 15.3029 236.93C15.9922 236.93 16.5092 236.633 16.8539 236.039C17.1912 235.452 17.3599 234.69 17.3599 233.751ZM23.3187 237.953C22.7614 237.953 22.27 237.832 21.8447 237.59C21.4194 237.341 21.082 237.003 20.8327 236.578C20.3707 235.764 20.1397 234.822 20.1397 233.751C20.1397 232.68 20.3707 231.738 20.8327 230.924C21.082 230.499 21.4194 230.165 21.8447 229.923C22.27 229.674 22.7614 229.549 23.3187 229.549C23.8834 229.549 24.3784 229.674 24.8037 229.923C25.229 230.172 25.559 230.506 25.7937 230.924C26.0284 231.335 26.2007 231.778 26.3107 232.255C26.428 232.732 26.4867 233.23 26.4867 233.751C26.4867 234.272 26.428 234.77 26.3107 235.247C26.2007 235.724 26.0284 236.171 25.7937 236.589C25.559 237 25.229 237.33 24.8037 237.579C24.3784 237.828 23.8834 237.953 23.3187 237.953ZM25.3757 233.751C25.3757 232.82 25.207 232.061 24.8697 231.474C24.5324 230.873 24.0154 230.572 23.3187 230.572C22.622 230.572 22.105 230.873 21.7677 231.474C21.4304 232.061 21.2617 232.82 21.2617 233.751C21.2617 234.69 21.4304 235.452 21.7677 236.039C22.1124 236.633 22.6294 236.93 23.3187 236.93C24.008 236.93 24.525 236.633 24.8697 236.039C25.207 235.452 25.3757 234.69 25.3757 233.751Z" fill="#DFDFDF"/>
<path d="M58.9683 182.563H664.626" stroke="#101428" stroke-width="2" stroke-miterlimit="22.9256" stroke-dasharray="22.8 22.8"/>
<path d="M5.753 178.916C5.753 179.532 5.555 180.042 5.159 180.445C4.763 180.848 4.24967 181.101 3.619 181.204V182.348H2.805V181.237C2.26967 181.193 1.782 181.028 1.342 180.742C0.909333 180.449 0.575667 180.056 0.341 179.565L1.166 178.894C1.584 179.759 2.222 180.192 3.08 180.192C3.52733 180.192 3.883 180.075 4.147 179.84C4.41833 179.605 4.554 179.319 4.554 178.982C4.554 178.535 4.27533 178.153 3.718 177.838C3.65933 177.801 3.39533 177.677 2.926 177.464C2.50067 177.259 2.18533 177.09 1.98 176.958C1.17333 176.452 0.77 175.81 0.77 175.033C0.77 174.454 0.964333 173.962 1.353 173.559C1.74167 173.156 2.255 172.921 2.893 172.855V171.843H3.707V172.877C4.48433 173.016 5.10767 173.405 5.577 174.043L4.829 174.747C4.389 174.168 3.85 173.878 3.212 173.878C2.84533 173.878 2.541 173.981 2.299 174.186C2.06433 174.384 1.947 174.644 1.947 174.967C1.947 175.385 2.18167 175.741 2.651 176.034C2.84167 176.144 3.15333 176.305 3.586 176.518C4.06267 176.745 4.40733 176.921 4.62 177.046C5.37533 177.508 5.753 178.131 5.753 178.916ZM6.81373 174.923L9.11273 172.987H9.98173V181.116H8.89273V174.45L7.41873 175.682L6.81373 174.923ZM17.6019 181.116H16.2159L13.9939 178.366L13.4329 178.872V181.116H12.3769V172.789H13.4329V177.607L16.0729 175.22H17.5029L14.7419 177.695L17.6019 181.116Z" fill="#DFDFDF"/>
<path d="M58.9683 125.858H664.626" stroke="#101428" stroke-width="2" stroke-miterlimit="22.9256" stroke-dasharray="22.8 22.8"/>
<path d="M5.753 122.211C5.753 122.827 5.555 123.336 5.159 123.74C4.763 124.143 4.24967 124.396 3.619 124.499V125.643H2.805V124.532C2.26967 124.488 1.782 124.323 1.342 124.037C0.909333 123.743 0.575667 123.351 0.341 122.86L1.166 122.189C1.584 123.054 2.222 123.487 3.08 123.487C3.52733 123.487 3.883 123.369 4.147 123.135C4.41833 122.9 4.554 122.614 4.554 122.277C4.554 121.829 4.27533 121.448 3.718 121.133C3.65933 121.096 3.39533 120.971 2.926 120.759C2.50067 120.553 2.18533 120.385 1.98 120.253C1.17333 119.747 0.77 119.105 0.77 118.328C0.77 117.748 0.964333 117.257 1.353 116.854C1.74167 116.45 2.255 116.216 2.893 116.15V115.138H3.707V116.172C4.48433 116.311 5.10767 116.7 5.577 117.338L4.829 118.042C4.389 117.462 3.85 117.173 3.212 117.173C2.84533 117.173 2.541 117.275 2.299 117.481C2.06433 117.679 1.947 117.939 1.947 118.262C1.947 118.68 2.18167 119.035 2.651 119.329C2.84167 119.439 3.15333 119.6 3.586 119.813C4.06267 120.04 4.40733 120.216 4.62 120.341C5.37533 120.803 5.753 121.426 5.753 122.211ZM11.1367 120.902L8.87073 123.399H12.3687V124.411H7.29773V123.498L9.90473 120.704C10.3741 120.212 10.7077 119.813 10.9057 119.505C11.1037 119.189 11.2027 118.863 11.2027 118.526C11.2027 118.13 11.0597 117.803 10.7737 117.547C10.4951 117.283 10.1467 117.151 9.72873 117.151C9.05406 117.151 8.39773 117.459 7.75973 118.075L7.15473 117.294C7.93939 116.524 8.80473 116.139 9.75073 116.139C10.4914 116.139 11.0964 116.362 11.5657 116.81C12.0351 117.257 12.2697 117.847 12.2697 118.581C12.2697 119.299 11.8921 120.073 11.1367 120.902ZM14.0363 123.872C14.0363 123.681 14.1023 123.52 14.2343 123.388C14.3736 123.256 14.5423 123.19 14.7403 123.19C14.9383 123.19 15.1033 123.256 15.2353 123.388C15.3746 123.52 15.4443 123.681 15.4443 123.872C15.4443 124.077 15.3746 124.249 15.2353 124.389C15.1033 124.521 14.9383 124.587 14.7403 124.587C14.5423 124.587 14.3736 124.521 14.2343 124.389C14.1023 124.249 14.0363 124.077 14.0363 123.872ZM19.7059 119.109C20.4906 119.109 21.1396 119.365 21.6529 119.879C22.1736 120.385 22.4339 121.026 22.4339 121.804C22.4339 122.596 22.1626 123.252 21.6199 123.773C21.0846 124.286 20.3952 124.543 19.5519 124.543C18.5986 124.543 17.7296 124.216 16.9449 123.564L17.4619 122.706C18.1219 123.256 18.8039 123.531 19.5079 123.531C20.0359 123.531 20.4722 123.369 20.8169 123.047C21.1542 122.717 21.3229 122.306 21.3229 121.815C21.3229 121.331 21.1579 120.927 20.8279 120.605C20.4979 120.275 20.0799 120.11 19.5739 120.11C18.9872 120.11 18.4886 120.326 18.0779 120.759L17.3519 120.341L17.8139 116.282H21.8839V117.261H18.6609L18.3859 119.428C18.7966 119.215 19.2366 119.109 19.7059 119.109ZM29.4548 124.411H28.0688L25.8468 121.661L25.2858 122.167V124.411H24.2298V116.084H25.2858V120.902L27.9258 118.515H29.3558L26.5948 120.99L29.4548 124.411Z" fill="#DFDFDF"/>
<path d="M58.9683 69.1528H664.626" stroke="#101428" stroke-width="2" stroke-miterlimit="22.9256" stroke-dasharray="22.8 22.8"/>
<path d="M5.753 65.5053C5.753 66.1213 5.555 66.631 5.159 67.0343C4.763 67.4376 4.24967 67.6906 3.619 67.7933V68.9373H2.805V67.8263C2.26967 67.7823 1.782 67.6173 1.342 67.3313C0.909333 67.038 0.575667 66.6456 0.341 66.1543L1.166 65.4833C1.584 66.3486 2.222 66.7813 3.08 66.7813C3.52733 66.7813 3.883 66.664 4.147 66.4293C4.41833 66.1946 4.554 65.9086 4.554 65.5713C4.554 65.124 4.27533 64.7426 3.718 64.4273C3.65933 64.3906 3.39533 64.266 2.926 64.0533C2.50067 63.848 2.18533 63.6793 1.98 63.5473C1.17333 63.0413 0.77 62.3996 0.77 61.6223C0.77 61.043 0.964333 60.5516 1.353 60.1483C1.74167 59.745 2.255 59.5103 2.893 59.4443V58.4323H3.707V59.4663C4.48433 59.6056 5.10767 59.9943 5.577 60.6323L4.829 61.3363C4.389 60.757 3.85 60.4673 3.212 60.4673C2.84533 60.4673 2.541 60.57 2.299 60.7753C2.06433 60.9733 1.947 61.2336 1.947 61.5563C1.947 61.9743 2.18167 62.33 2.651 62.6233C2.84167 62.7333 3.15333 62.8946 3.586 63.1073C4.06267 63.3346 4.40733 63.5106 4.62 63.6353C5.37533 64.0973 5.753 64.7206 5.753 65.5053ZM9.90473 62.4033C10.6894 62.4033 11.3384 62.66 11.8517 63.1733C12.3724 63.6793 12.6327 64.321 12.6327 65.0983C12.6327 65.8903 12.3614 66.5466 11.8187 67.0673C11.2834 67.5806 10.5941 67.8373 9.75073 67.8373C8.79739 67.8373 7.92839 67.511 7.14373 66.8583L7.66073 66.0003C8.32073 66.5503 9.00273 66.8253 9.70673 66.8253C10.2347 66.8253 10.6711 66.664 11.0157 66.3413C11.3531 66.0113 11.5217 65.6006 11.5217 65.1093C11.5217 64.6253 11.3567 64.222 11.0267 63.8993C10.6967 63.5693 10.2787 63.4043 9.77273 63.4043C9.18606 63.4043 8.68739 63.6206 8.27673 64.0533L7.55073 63.6353L8.01273 59.5763H12.0827V60.5553H8.85973L8.58473 62.7223C8.99539 62.5096 9.43539 62.4033 9.90473 62.4033ZM19.6536 67.7053H18.2676L16.0456 64.9553L15.4846 65.4613V67.7053H14.4286V59.3783H15.4846V64.1963L18.1246 61.8093H19.5546L16.7936 64.2843L19.6536 67.7053Z" fill="#DFDFDF"/>
<path d="M58.9683 12.4475H664.626" stroke="#101428" stroke-width="2" stroke-miterlimit="22.9256" stroke-dasharray="22.8 22.8"/>
<path d="M5.753 8.8C5.753 9.416 5.555 9.92567 5.159 10.329C4.763 10.7323 4.24967 10.9853 3.619 11.088V12.232H2.805V11.121C2.26967 11.077 1.782 10.912 1.342 10.626C0.909333 10.3327 0.575667 9.94033 0.341 9.449L1.166 8.778C1.584 9.64333 2.222 10.076 3.08 10.076C3.52733 10.076 3.883 9.95867 4.147 9.724C4.41833 9.48933 4.554 9.20333 4.554 8.866C4.554 8.41867 4.27533 8.03733 3.718 7.722C3.65933 7.68533 3.39533 7.56067 2.926 7.348C2.50067 7.14267 2.18533 6.974 1.98 6.842C1.17333 6.336 0.77 5.69433 0.77 4.917C0.77 4.33767 0.964333 3.84633 1.353 3.443C1.74167 3.03967 2.255 2.805 2.893 2.739V1.727H3.707V2.761C4.48433 2.90033 5.10767 3.289 5.577 3.927L4.829 4.631C4.389 4.05167 3.85 3.762 3.212 3.762C2.84533 3.762 2.541 3.86467 2.299 4.07C2.06433 4.268 1.947 4.52833 1.947 4.851C1.947 5.269 2.18167 5.62467 2.651 5.918C2.84167 6.028 3.15333 6.18933 3.586 6.402C4.06267 6.62933 4.40733 6.80533 4.62 6.93C5.37533 7.392 5.753 8.01533 5.753 8.8ZM7.00073 3.85V2.871H12.1157V3.52L8.94773 11H7.77073L10.8727 3.85H7.00073ZM12.5861 10.461C12.5861 10.2703 12.6521 10.109 12.7841 9.977C12.9234 9.845 13.0921 9.779 13.2901 9.779C13.4881 9.779 13.6531 9.845 13.7851 9.977C13.9244 10.109 13.9941 10.2703 13.9941 10.461C13.9941 10.6663 13.9244 10.8387 13.7851 10.978C13.6531 11.11 13.4881 11.176 13.2901 11.176C13.0921 11.176 12.9234 11.11 12.7841 10.978C12.6521 10.8387 12.5861 10.6663 12.5861 10.461ZM18.2557 5.698C19.0404 5.698 19.6894 5.95467 20.2027 6.468C20.7234 6.974 20.9837 7.61567 20.9837 8.393C20.9837 9.185 20.7124 9.84133 20.1697 10.362C19.6344 10.8753 18.945 11.132 18.1017 11.132C17.1484 11.132 16.2794 10.8057 15.4947 10.153L16.0117 9.295C16.6717 9.845 17.3537 10.12 18.0577 10.12C18.5857 10.12 19.022 9.95867 19.3667 9.636C19.704 9.306 19.8727 8.89533 19.8727 8.404C19.8727 7.92 19.7077 7.51667 19.3777 7.194C19.0477 6.864 18.6297 6.699 18.1237 6.699C17.537 6.699 17.0384 6.91533 16.6277 7.348L15.9017 6.93L16.3637 2.871H20.4337V3.85H17.2107L16.9357 6.017C17.3464 5.80433 17.7864 5.698 18.2557 5.698ZM28.0046 11H26.6186L24.3966 8.25L23.8356 8.756V11H22.7796V2.673H23.8356V7.491L26.4756 5.104H27.9056L25.1446 7.579L28.0046 11Z" fill="#DFDFDF"/>
<path d="M58.9683 295.974H664.626" stroke="#101428" stroke-width="2" stroke-miterlimit="22.9256" stroke-dasharray="22.8 22.8"/>
<path d="M5.753 292.326C5.753 292.942 5.555 293.452 5.159 293.855C4.763 294.259 4.24967 294.512 3.619 294.614V295.758H2.805V294.647C2.26967 294.603 1.782 294.438 1.342 294.152C0.909333 293.859 0.575667 293.467 0.341 292.975L1.166 292.304C1.584 293.17 2.222 293.602 3.08 293.602C3.52733 293.602 3.883 293.485 4.147 293.25C4.41833 293.016 4.554 292.73 4.554 292.392C4.554 291.945 4.27533 291.564 3.718 291.248C3.65933 291.212 3.39533 291.087 2.926 290.874C2.50067 290.669 2.18533 290.5 1.98 290.368C1.17333 289.862 0.77 289.221 0.77 288.443C0.77 287.864 0.964333 287.373 1.353 286.969C1.74167 286.566 2.255 286.331 2.893 286.265V285.253H3.707V286.287C4.48433 286.427 5.10767 286.815 5.577 287.453L4.829 288.157C4.389 287.578 3.85 287.288 3.212 287.288C2.84533 287.288 2.541 287.391 2.299 287.596C2.06433 287.794 1.947 288.055 1.947 288.377C1.947 288.795 2.18167 289.151 2.651 289.444C2.84167 289.554 3.15333 289.716 3.586 289.928C4.06267 290.156 4.40733 290.332 4.62 290.456C5.37533 290.918 5.753 291.542 5.753 292.326ZM10.5097 294.658C9.95239 294.658 9.46106 294.537 9.03573 294.295C8.61039 294.046 8.27306 293.709 8.02373 293.283C7.56173 292.469 7.33073 291.527 7.33073 290.456C7.33073 289.386 7.56173 288.443 8.02373 287.629C8.27306 287.204 8.61039 286.87 9.03573 286.628C9.46106 286.379 9.95239 286.254 10.5097 286.254C11.0744 286.254 11.5694 286.379 11.9947 286.628C12.4201 286.878 12.7501 287.211 12.9847 287.629C13.2194 288.04 13.3917 288.484 13.5017 288.96C13.6191 289.437 13.6777 289.936 13.6777 290.456C13.6777 290.977 13.6191 291.476 13.5017 291.952C13.3917 292.429 13.2194 292.876 12.9847 293.294C12.7501 293.705 12.4201 294.035 11.9947 294.284C11.5694 294.534 11.0744 294.658 10.5097 294.658ZM12.5667 290.456C12.5667 289.525 12.3981 288.766 12.0607 288.179C11.7234 287.578 11.2064 287.277 10.5097 287.277C9.81306 287.277 9.29606 287.578 8.95873 288.179C8.62139 288.766 8.45273 289.525 8.45273 290.456C8.45273 291.395 8.62139 292.158 8.95873 292.744C9.30339 293.338 9.82039 293.635 10.5097 293.635C11.1991 293.635 11.7161 293.338 12.0607 292.744C12.3981 292.158 12.5667 291.395 12.5667 290.456Z" fill="#DFDFDF"/>
<path d="M61.4433 343.065C60.4973 343.065 59.7199 342.717 59.1113 342.02L59.7823 341.217C60.2223 341.753 60.7759 342.02 61.4433 342.02C61.9346 342.02 62.3269 341.866 62.6203 341.558C62.9136 341.243 63.0603 340.803 63.0603 340.238V334.804H64.1603V340.293C64.1603 341.173 63.9073 341.855 63.4013 342.339C62.9099 342.823 62.2573 343.065 61.4433 343.065ZM71.0763 337.895V337.037H72.0883V342.933H71.0763V342.097C70.5483 342.75 69.8553 343.076 68.9973 343.076C68.1467 343.076 67.4427 342.776 66.8853 342.174C66.328 341.573 66.0493 340.829 66.0493 339.941C66.0493 339.054 66.328 338.328 66.8853 337.763C67.4427 337.184 68.1467 336.894 68.9973 336.894C69.8333 336.894 70.5263 337.228 71.0763 337.895ZM71.1423 339.974C71.1423 339.38 70.9553 338.882 70.5813 338.478C70.2073 338.068 69.7197 337.862 69.1183 337.862C68.517 337.862 68.033 338.068 67.6663 338.478C67.2997 338.889 67.1163 339.391 67.1163 339.985C67.1163 340.579 67.2997 341.082 67.6663 341.492C68.033 341.903 68.517 342.108 69.1183 342.108C69.7197 342.108 70.2073 341.903 70.5813 341.492C70.9553 341.089 71.1423 340.583 71.1423 339.974ZM75.3338 342.933H74.2778V337.037H75.3118V337.873C75.6858 337.213 76.3091 336.883 77.1818 336.883C77.8418 336.883 78.3954 337.096 78.8428 337.521C79.2901 337.947 79.5138 338.559 79.5138 339.358V342.933H78.4688V339.655C78.4688 339.091 78.3294 338.651 78.0508 338.335C77.7794 338.02 77.4164 337.862 76.9618 337.862C76.4851 337.862 76.0928 338.031 75.7848 338.368C75.4841 338.713 75.3338 339.146 75.3338 339.666V342.933Z" fill="#DFDFDF"/>
<path d="M113.091 342.933H111.991V334.804H116.963V335.871H113.091V338.28H116.468V339.347H113.091V342.933ZM123.966 339.875C123.966 339.949 123.955 340.128 123.933 340.414H119.236C119.331 340.935 119.551 341.346 119.896 341.646C120.24 341.947 120.71 342.097 121.304 342.097C121.656 342.097 122.019 342.039 122.393 341.921C122.767 341.797 123.089 341.635 123.361 341.437L123.812 342.24C123.504 342.475 123.122 342.673 122.668 342.834C122.213 342.988 121.751 343.065 121.282 343.065C120.746 343.065 120.27 342.977 119.852 342.801C119.441 342.625 119.115 342.387 118.873 342.086C118.631 341.786 118.447 341.456 118.323 341.096C118.198 340.737 118.136 340.359 118.136 339.963C118.136 339.083 118.411 338.35 118.961 337.763C119.518 337.184 120.237 336.894 121.117 336.894C121.953 336.894 122.635 337.162 123.163 337.697C123.698 338.233 123.966 338.959 123.966 339.875ZM119.236 339.501H122.877C122.847 338.995 122.668 338.592 122.338 338.291C122.015 337.983 121.608 337.829 121.117 337.829C120.64 337.829 120.229 337.987 119.885 338.302C119.54 338.61 119.324 339.01 119.236 339.501ZM128.897 336.894C129.733 336.894 130.43 337.195 130.987 337.796C131.552 338.398 131.834 339.127 131.834 339.985C131.834 340.843 131.552 341.577 130.987 342.185C130.422 342.779 129.722 343.076 128.886 343.076C128.035 343.076 127.346 342.743 126.818 342.075V342.933H125.762V334.606H126.818V337.928C127.353 337.239 128.046 336.894 128.897 336.894ZM128.765 342.086C129.366 342.086 129.847 341.885 130.206 341.481C130.58 341.078 130.767 340.576 130.767 339.974C130.767 339.395 130.58 338.9 130.206 338.489C129.847 338.086 129.366 337.884 128.765 337.884C128.156 337.884 127.672 338.086 127.313 338.489C126.954 338.893 126.774 339.388 126.774 339.974C126.774 340.576 126.954 341.078 127.313 341.481C127.672 341.885 128.156 342.086 128.765 342.086Z" fill="#DFDFDF"/>
<path d="M165.08 342.933H163.991V334.804H164.519L168.028 339.963L171.515 334.804H172.054V342.933H170.954V337.444L168.16 341.547H167.874L165.08 337.444V342.933ZM179.051 337.895V337.037H180.063V342.933H179.051V342.097C178.523 342.75 177.83 343.076 176.972 343.076C176.121 343.076 175.417 342.776 174.86 342.174C174.303 341.573 174.024 340.829 174.024 339.941C174.024 339.054 174.303 338.328 174.86 337.763C175.417 337.184 176.121 336.894 176.972 336.894C177.808 336.894 178.501 337.228 179.051 337.895ZM179.117 339.974C179.117 339.38 178.93 338.882 178.556 338.478C178.182 338.068 177.694 337.862 177.093 337.862C176.492 337.862 176.008 338.068 175.641 338.478C175.274 338.889 175.091 339.391 175.091 339.985C175.091 340.579 175.274 341.082 175.641 341.492C176.008 341.903 176.492 342.108 177.093 342.108C177.694 342.108 178.182 341.903 178.556 341.492C178.93 341.089 179.117 340.583 179.117 339.974ZM183.308 342.933H182.252V337.037H183.253V337.906C183.598 337.224 184.163 336.883 184.947 336.883C185.16 336.883 185.391 336.913 185.64 336.971L185.541 337.994C185.329 337.928 185.123 337.895 184.925 337.895C184.441 337.895 184.049 338.06 183.748 338.39C183.455 338.72 183.308 339.193 183.308 339.809V342.933Z" fill="#DFDFDF"/>
<path d="M223.239 342.933H222.04L221.215 340.821H218.124L217.299 342.933H216.1L219.389 334.804H219.983L223.239 342.933ZM220.841 339.787L219.675 336.718L218.498 339.787H220.841ZM227.901 336.894C228.745 336.894 229.445 337.195 230.002 337.796C230.567 338.405 230.849 339.135 230.849 339.985C230.849 340.843 230.567 341.577 230.002 342.185C229.445 342.779 228.741 343.076 227.89 343.076C227.032 343.076 226.336 342.743 225.8 342.075V345.364H224.744V337.037H225.8V337.928C226.35 337.239 227.051 336.894 227.901 336.894ZM229.793 339.974C229.793 339.38 229.606 338.882 229.232 338.478C228.858 338.068 228.371 337.862 227.769 337.862C227.168 337.862 226.68 338.068 226.306 338.478C225.94 338.889 225.756 339.388 225.756 339.974C225.756 340.576 225.94 341.082 226.306 341.492C226.68 341.903 227.168 342.108 227.769 342.108C228.371 342.108 228.858 341.903 229.232 341.492C229.606 341.089 229.793 340.583 229.793 339.974ZM233.72 342.933H232.664V337.037H233.665V337.906C234.009 337.224 234.574 336.883 235.359 336.883C235.571 336.883 235.802 336.913 236.052 336.971L235.953 337.994C235.74 337.928 235.535 337.895 235.337 337.895C234.853 337.895 234.46 338.06 234.16 338.39C233.866 338.72 233.72 339.193 233.72 339.809V342.933Z" fill="#DFDFDF"/>
<path d="M269.388 343.933H267.903V335.804H268.849L272.105 340.545L275.35 335.804H276.307V343.933H274.811V339.115L272.347 342.679H271.852L269.388 339.115V343.933ZM283.026 338.719V337.96H284.39V343.933H283.026V343.196C282.505 343.783 281.856 344.076 281.079 344.076C280.221 344.076 279.513 343.776 278.956 343.174C278.398 342.573 278.12 341.821 278.12 340.919C278.12 340.017 278.398 339.277 278.956 338.697C279.52 338.111 280.228 337.817 281.079 337.817C281.841 337.817 282.49 338.118 283.026 338.719ZM283.059 340.941C283.059 340.435 282.894 340.006 282.564 339.654C282.234 339.302 281.812 339.126 281.299 339.126C280.785 339.126 280.364 339.302 280.034 339.654C279.711 340.014 279.55 340.443 279.55 340.941C279.55 341.447 279.711 341.88 280.034 342.239C280.364 342.591 280.785 342.767 281.299 342.767C281.812 342.767 282.234 342.591 282.564 342.239C282.894 341.887 283.059 341.455 283.059 340.941ZM289.052 341.997L290.471 337.96H292.033L289.613 344.318C289.319 345.059 288.978 345.602 288.59 345.946C288.208 346.298 287.739 346.474 287.182 346.474C286.727 346.474 286.36 346.379 286.082 346.188L286.313 344.978C286.591 345.11 286.844 345.176 287.072 345.176C287.556 345.176 287.944 344.854 288.238 344.208L288.381 343.878L285.774 337.96H287.435L289.052 341.997Z" fill="#DFDFDF"/>
<path d="M325.443 343.065C324.497 343.065 323.72 342.717 323.111 342.02L323.782 341.217C324.222 341.753 324.776 342.02 325.443 342.02C325.935 342.02 326.327 341.866 326.62 341.558C326.914 341.243 327.06 340.803 327.06 340.238V334.804H328.16V340.293C328.16 341.173 327.907 341.855 327.401 342.339C326.91 342.823 326.257 343.065 325.443 343.065ZM332.855 343.076C332.085 343.076 331.469 342.849 331.007 342.394C330.552 341.94 330.325 341.327 330.325 340.557V337.037H331.381V340.524C331.381 341.008 331.509 341.393 331.766 341.679C332.03 341.958 332.393 342.097 332.855 342.097C333.317 342.097 333.68 341.958 333.944 341.679C334.208 341.393 334.34 341.008 334.34 340.524V337.037H335.385V340.557C335.385 341.342 335.157 341.958 334.703 342.405C334.255 342.853 333.639 343.076 332.855 343.076ZM338.55 342.933H337.494V337.037H338.528V337.873C338.902 337.213 339.525 336.883 340.398 336.883C341.058 336.883 341.611 337.096 342.059 337.521C342.506 337.947 342.73 338.559 342.73 339.358V342.933H341.685V339.655C341.685 339.091 341.545 338.651 341.267 338.335C340.995 338.02 340.632 337.862 340.178 337.862C339.701 337.862 339.309 338.031 339.001 338.368C338.7 338.713 338.55 339.146 338.55 339.666V342.933Z" fill="#DFDFDF"/>
<path d="M376.443 343.065C375.497 343.065 374.72 342.717 374.111 342.02L374.782 341.217C375.222 341.753 375.776 342.02 376.443 342.02C376.935 342.02 377.327 341.866 377.62 341.558C377.914 341.243 378.06 340.803 378.06 340.238V334.804H379.16V340.293C379.16 341.173 378.907 341.855 378.401 342.339C377.91 342.823 377.257 343.065 376.443 343.065ZM383.855 343.076C383.085 343.076 382.469 342.849 382.007 342.394C381.552 341.94 381.325 341.327 381.325 340.557V337.037H382.381V340.524C382.381 341.008 382.509 341.393 382.766 341.679C383.03 341.958 383.393 342.097 383.855 342.097C384.317 342.097 384.68 341.958 384.944 341.679C385.208 341.393 385.34 341.008 385.34 340.524V337.037H386.385V340.557C386.385 341.342 386.157 341.958 385.703 342.405C385.255 342.853 384.639 343.076 383.855 343.076ZM389.55 334.606V342.933H388.494V334.606H389.55Z" fill="#DFDFDF"/>
<path d="M428.239 342.933H427.04L426.215 340.821H423.124L422.299 342.933H421.1L424.389 334.804H424.983L428.239 342.933ZM425.841 339.787L424.675 336.718L423.498 339.787H425.841ZM432.111 343.076C431.341 343.076 430.725 342.849 430.263 342.394C429.809 341.94 429.581 341.327 429.581 340.557V337.037H430.637V340.524C430.637 341.008 430.766 341.393 431.022 341.679C431.286 341.958 431.649 342.097 432.111 342.097C432.573 342.097 432.936 341.958 433.2 341.679C433.464 341.393 433.596 341.008 433.596 340.524V337.037H434.641V340.557C434.641 341.342 434.414 341.958 433.959 342.405C433.512 342.853 432.896 343.076 432.111 343.076ZM441.414 337.807V337.037H442.459V342.328C442.459 343.274 442.173 344.03 441.601 344.594C441.022 345.159 440.256 345.441 439.302 345.441C438.342 345.441 437.473 345.163 436.695 344.605L437.19 343.769C437.836 344.246 438.536 344.484 439.291 344.484C439.944 344.484 440.461 344.297 440.842 343.923C441.224 343.564 441.414 343.091 441.414 342.504V342.02C440.886 342.636 440.197 342.944 439.346 342.944C438.496 342.944 437.792 342.655 437.234 342.075C436.67 341.489 436.387 340.766 436.387 339.908C436.387 339.05 436.677 338.335 437.256 337.763C437.836 337.184 438.551 336.894 439.401 336.894C440.215 336.894 440.886 337.199 441.414 337.807ZM438.026 341.404C438.415 341.8 438.895 341.998 439.467 341.998C440.047 341.998 440.527 341.8 440.908 341.404C441.29 341.016 441.48 340.521 441.48 339.919C441.48 339.318 441.29 338.827 440.908 338.445C440.52 338.049 440.039 337.851 439.467 337.851C438.888 337.851 438.408 338.049 438.026 338.445C437.645 338.827 437.454 339.318 437.454 339.919C437.454 340.521 437.645 341.016 438.026 341.404Z" fill="#DFDFDF"/>
<path d="M477.037 343.065C476.436 343.065 475.886 342.922 475.387 342.636C474.896 342.343 474.522 341.929 474.265 341.393L475.079 340.722C475.519 341.588 476.168 342.02 477.026 342.02C477.481 342.02 477.844 341.903 478.115 341.668C478.387 341.434 478.522 341.14 478.522 340.788C478.522 340.356 478.24 339.978 477.675 339.655C477.573 339.604 477.294 339.472 476.839 339.259C476.465 339.091 476.161 338.937 475.926 338.797C475.112 338.284 474.705 337.639 474.705 336.861C474.705 336.238 474.929 335.717 475.376 335.299C475.824 334.874 476.418 334.661 477.158 334.661C478.17 334.661 478.966 335.061 479.545 335.86L478.808 336.564C478.368 335.985 477.822 335.695 477.169 335.695C476.795 335.695 476.487 335.798 476.245 336.003C476.003 336.201 475.882 336.465 475.882 336.795C475.882 337.221 476.113 337.569 476.575 337.84C476.766 337.958 477.081 338.119 477.521 338.324C477.983 338.544 478.324 338.717 478.544 338.841C479.329 339.318 479.721 339.949 479.721 340.733C479.721 341.43 479.465 341.991 478.951 342.416C478.438 342.849 477.8 343.065 477.037 343.065ZM487.019 339.875C487.019 339.949 487.008 340.128 486.986 340.414H482.289C482.385 340.935 482.605 341.346 482.949 341.646C483.294 341.947 483.763 342.097 484.357 342.097C484.709 342.097 485.072 342.039 485.446 341.921C485.82 341.797 486.143 341.635 486.414 341.437L486.865 342.24C486.557 342.475 486.176 342.673 485.721 342.834C485.267 342.988 484.805 343.065 484.335 343.065C483.8 343.065 483.323 342.977 482.905 342.801C482.495 342.625 482.168 342.387 481.926 342.086C481.684 341.786 481.501 341.456 481.376 341.096C481.252 340.737 481.189 340.359 481.189 339.963C481.189 339.083 481.464 338.35 482.014 337.763C482.572 337.184 483.29 336.894 484.17 336.894C485.006 336.894 485.688 337.162 486.216 337.697C486.752 338.233 487.019 338.959 487.019 339.875ZM482.289 339.501H485.93C485.901 338.995 485.721 338.592 485.391 338.291C485.069 337.983 484.662 337.829 484.17 337.829C483.694 337.829 483.283 337.987 482.938 338.302C482.594 338.61 482.377 339.01 482.289 339.501ZM491.973 336.894C492.816 336.894 493.517 337.195 494.074 337.796C494.639 338.405 494.921 339.135 494.921 339.985C494.921 340.843 494.639 341.577 494.074 342.185C493.517 342.779 492.813 343.076 491.962 343.076C491.104 343.076 490.407 342.743 489.872 342.075V345.364H488.816V337.037H489.872V337.928C490.422 337.239 491.122 336.894 491.973 336.894ZM493.865 339.974C493.865 339.38 493.678 338.882 493.304 338.478C492.93 338.068 492.442 337.862 491.841 337.862C491.24 337.862 490.752 338.068 490.378 338.478C490.011 338.889 489.828 339.388 489.828 339.974C489.828 340.576 490.011 341.082 490.378 341.492C490.752 341.903 491.24 342.108 491.841 342.108C492.442 342.108 492.93 341.903 493.304 341.492C493.678 341.089 493.865 340.583 493.865 339.974Z" fill="#DFDFDF"/>
<path d="M526.463 338.918C526.463 337.73 526.874 336.726 527.695 335.904C528.524 335.076 529.514 334.661 530.665 334.661C531.817 334.661 532.807 335.076 533.635 335.904C534.464 336.733 534.878 337.723 534.878 338.874C534.878 340.026 534.464 341.016 533.635 341.844C532.807 342.658 531.806 343.065 530.632 343.065C529.452 343.065 528.462 342.666 527.662 341.866C526.863 341.067 526.463 340.084 526.463 338.918ZM533.734 338.885C533.734 337.991 533.437 337.243 532.843 336.641C532.249 336.04 531.523 335.739 530.665 335.739C529.815 335.739 529.092 336.044 528.498 336.652C527.904 337.261 527.607 338.005 527.607 338.885C527.607 339.758 527.901 340.499 528.487 341.107C529.067 341.701 529.793 341.998 530.665 341.998C531.538 341.998 532.264 341.701 532.843 341.107C533.437 340.513 533.734 339.773 533.734 338.885ZM539.492 343.065C538.576 343.065 537.828 342.776 537.248 342.196C536.669 341.617 536.379 340.88 536.379 339.985C536.379 339.091 536.673 338.35 537.259 337.763C537.846 337.184 538.609 336.894 539.547 336.894C540.127 336.894 540.658 337.034 541.142 337.312C541.634 337.591 541.993 337.965 542.22 338.434L541.351 338.94C541.153 338.603 540.893 338.339 540.57 338.148C540.255 337.958 539.914 337.862 539.547 337.862C538.946 337.862 538.444 338.064 538.04 338.467C537.644 338.878 537.446 339.384 537.446 339.985C537.446 340.579 537.641 341.082 538.029 341.492C538.411 341.896 538.898 342.097 539.492 342.097C539.859 342.097 540.211 341.998 540.548 341.8C540.893 341.602 541.15 341.349 541.318 341.041L542.198 341.547C541.949 342.009 541.582 342.376 541.098 342.647C540.6 342.926 540.064 343.065 539.492 343.065ZM547.331 341.767L547.727 342.581C547.302 342.911 546.778 343.076 546.154 343.076C545.538 343.076 545.069 342.886 544.746 342.504C544.431 342.123 544.273 341.577 544.273 340.865V337.939H543.228V337.037H544.284V334.947H545.318V337.037H547.408V337.939H545.318V340.942C545.318 341.72 545.637 342.108 546.275 342.108C546.62 342.108 546.972 341.995 547.331 341.767Z" fill="#DFDFDF"/>
<path d="M584.436 340.601V334.804H585.525V342.933H584.953L580.08 337.169V342.933H578.991V334.804H579.486L584.436 340.601ZM590.601 343.076C589.699 343.076 588.954 342.779 588.368 342.185C587.788 341.584 587.499 340.847 587.499 339.974C587.499 339.102 587.788 338.372 588.368 337.785C588.947 337.184 589.691 336.883 590.601 336.883C591.495 336.883 592.232 337.184 592.812 337.785C593.398 338.394 593.692 339.124 593.692 339.974C593.692 340.84 593.398 341.577 592.812 342.185C592.225 342.779 591.488 343.076 590.601 343.076ZM592.636 339.974C592.636 339.395 592.438 338.9 592.042 338.489C591.646 338.071 591.165 337.862 590.601 337.862C590.036 337.862 589.556 338.071 589.16 338.489C588.764 338.9 588.566 339.395 588.566 339.974C588.566 340.561 588.764 341.063 589.16 341.481C589.556 341.899 590.036 342.108 590.601 342.108C591.165 342.108 591.646 341.899 592.042 341.481C592.438 341.063 592.636 340.561 592.636 339.974ZM597.553 341.448L599.335 337.037H600.501L597.905 342.922H597.168L594.572 337.037H595.749L597.553 341.448Z" fill="#DFDFDF"/>
<path d="M634.906 342.933H631.991V334.804H635.016C636.168 334.804 637.077 335.171 637.744 335.904C638.419 336.645 638.756 337.639 638.756 338.885C638.756 340.139 638.412 341.126 637.722 341.844C637.04 342.57 636.102 342.933 634.906 342.933ZM633.091 335.849V341.888H634.95C635.779 341.888 636.432 341.606 636.908 341.041C637.378 340.477 637.612 339.747 637.612 338.852C637.612 337.972 637.378 337.254 636.908 336.696C636.432 336.132 635.779 335.849 634.95 335.849H633.091ZM646.146 339.875C646.146 339.949 646.135 340.128 646.113 340.414H641.416C641.512 340.935 641.732 341.346 642.076 341.646C642.421 341.947 642.89 342.097 643.484 342.097C643.836 342.097 644.199 342.039 644.573 341.921C644.947 341.797 645.27 341.635 645.541 341.437L645.992 342.24C645.684 342.475 645.303 342.673 644.848 342.834C644.394 342.988 643.932 343.065 643.462 343.065C642.927 343.065 642.45 342.977 642.032 342.801C641.622 342.625 641.295 342.387 641.053 342.086C640.811 341.786 640.628 341.456 640.503 341.096C640.379 340.737 640.316 340.359 640.316 339.963C640.316 339.083 640.591 338.35 641.141 337.763C641.699 337.184 642.417 336.894 643.297 336.894C644.133 336.894 644.815 337.162 645.343 337.697C645.879 338.233 646.146 338.959 646.146 339.875ZM641.416 339.501H645.057C645.028 338.995 644.848 338.592 644.518 338.291C644.196 337.983 643.789 337.829 643.297 337.829C642.821 337.829 642.41 337.987 642.065 338.302C641.721 338.61 641.504 339.01 641.416 339.501ZM650.693 343.065C649.776 343.065 649.028 342.776 648.449 342.196C647.869 341.617 647.58 340.88 647.58 339.985C647.58 339.091 647.873 338.35 648.46 337.763C649.046 337.184 649.809 336.894 650.748 336.894C651.327 336.894 651.859 337.034 652.343 337.312C652.834 337.591 653.193 337.965 653.421 338.434L652.552 338.94C652.354 338.603 652.093 338.339 651.771 338.148C651.455 337.958 651.114 337.862 650.748 337.862C650.146 337.862 649.644 338.064 649.241 338.467C648.845 338.878 648.647 339.384 648.647 339.985C648.647 340.579 648.841 341.082 649.23 341.492C649.611 341.896 650.099 342.097 650.693 342.097C651.059 342.097 651.411 341.998 651.749 341.8C652.093 341.602 652.35 341.349 652.519 341.041L653.399 341.547C653.149 342.009 652.783 342.376 652.299 342.647C651.8 342.926 651.265 343.065 650.693 343.065Z" fill="#DFDFDF"/>
<g clip-path="url(#clip0)">
<g filter="url(#filter0_d)">
<path d="M62.6543 291.812C99.0528 293.358 85.0198 156.296 108.905 155.684C130.097 153.227 131.705 237.912 155.41 234.902C182.557 232.828 178.065 170.823 196.172 167.458C208.037 165.671 213.873 213.516 233.774 214.484C262.355 214.875 256.613 135.666 273.306 132.382C282.951 128.568 291.338 139.178 303.15 138.78C350.504 137.187 345.005 34.1169 366.251 38.8862C384.107 39.7136 391.416 124.646 415.298 127.679C432.309 130.008 437.558 103.608 449.251 103.775C457.193 103.81 463.041 127.654 475.333 128.148C499.121 127.359 509.853 64.0644 530.124 60.1485C541.822 58.872 546.823 92.889 561.197 93.085C572.294 93.2775 582.138 85.7498 588.841 93.8001C606.323 123.376 583.122 215.635 641.285 182.523" stroke="#8DC33F" stroke-width="3.67" stroke-miterlimit="11.4737"/>
</g>
</g>
<defs>
<filter id="filter0_d" x="42.5767" y="20.8888" width="619.616" height="296.771" filterUnits="userSpaceOnUse" color-interpolation-filters="sRGB">
<feFlood flood-opacity="0" result="BackgroundImageFix"/>
<feColorMatrix in="SourceAlpha" type="matrix" values="0 0 0 0 0 0 0 0 0 0 0 0 0 0 0 0 0 0 127 0" result="hardAlpha"/>
<feOffset dy="4"/>
<feGaussianBlur stdDeviation="10"/>
<feColorMatrix type="matrix" values="0 0 0 0 0.552941 0 0 0 0 0.764706 0 0 0 0 0.247059 0 0 0 1 0"/>
<feBlend mode="normal" in2="BackgroundImageFix" result="effect1_dropShadow"/>
<feBlend mode="normal" in="SourceGraphic" in2="effect1_dropShadow" result="shape"/>
</filter>
<clipPath id="clip0">
<rect width="578.631" height="260.015" fill="white" transform="translate(62.6543 31.8103)"/>
</clipPath>
</defs>
</svg>
