<svg width="34" height="34" viewBox="0 0 34 34" fill="none" xmlns="http://www.w3.org/2000/svg">
<rect y="34" width="34" height="34" rx="6" transform="rotate(-90 0 34)" fill="#1F1F1F"/>
<g clip-path="url(#clip0)">
<path d="M23.5842 25H15.1749C14.9229 25 14.7186 24.7957 14.7186 24.5438C14.7186 24.2918 14.9229 24.0876 15.1749 24.0876H23.5842C23.7825 24.0876 23.9438 23.9263 23.9438 23.728V12.9247C23.9438 12.7264 23.7825 12.5651 23.5842 12.5651H13.068C12.8696 12.5651 12.7083 12.7264 12.7083 12.9247C12.7083 13.1766 12.5041 13.3809 12.2521 13.3809C12.0001 13.3809 11.7959 13.1766 11.7959 12.9247C11.7959 12.2232 12.3665 11.6526 13.068 11.6526H23.5842C24.2856 11.6526 24.8562 12.2232 24.8562 12.9247V23.728C24.8562 24.4294 24.2856 25 23.5842 25Z" fill="white"/>
<path d="M12.2524 22.3474H10.4156C9.71415 22.3474 9.14355 21.7768 9.14355 21.0753V10.272C9.14355 9.57063 9.71415 9 10.4156 9H20.9318C21.6333 9 22.2039 9.57063 22.2039 10.272V12.1089C22.2039 12.3608 21.9996 12.5651 21.7477 12.5651H13.0682C12.8699 12.5651 12.7086 12.7264 12.7086 12.9247V21.8912C12.7086 22.1431 12.5044 22.3474 12.2524 22.3474ZM10.4156 9.91244C10.2173 9.91244 10.056 10.0738 10.056 10.272V21.0753C10.056 21.2737 10.2173 21.435 10.4156 21.435H11.7962V12.9247C11.7962 12.2233 12.3668 11.6526 13.0682 11.6526H21.2915V10.272C21.2915 10.0738 21.1301 9.91244 20.9319 9.91244H10.4156Z" fill="white"/>
<path d="M15.5876 21.5208C15.4708 21.5208 15.354 21.4763 15.265 21.3872C15.0868 21.2091 15.0868 20.9202 15.265 20.742L20.8194 15.1875C20.9976 15.0094 21.2865 15.0094 21.4647 15.1875C21.6428 15.3657 21.6428 15.6545 21.4647 15.8327L15.9102 21.3872C15.8211 21.4763 15.7043 21.5208 15.5876 21.5208Z" fill="white"/>
<path d="M21.217 18.47C21.1946 18.47 21.1719 18.4684 21.149 18.465C20.8999 18.4278 20.728 18.1955 20.7652 17.9463L21.1269 15.5253L18.7058 15.887C18.4566 15.9239 18.2244 15.7524 18.1872 15.5032C18.15 15.254 18.3218 15.0218 18.571 14.9846L21.6018 14.5318C21.7446 14.5107 21.8895 14.5582 21.9917 14.6604C22.094 14.7627 22.1417 14.9073 22.1203 15.0504L21.6676 18.0812C21.6338 18.3075 21.4391 18.47 21.217 18.47Z" fill="white"/>
<path d="M14.9835 22.1247C14.8635 22.1247 14.7471 22.0773 14.661 21.9911C14.5587 21.8888 14.511 21.7442 14.5324 21.6011L14.9851 18.5702C15.0223 18.321 15.2546 18.1493 15.5037 18.1864C15.7529 18.2237 15.9248 18.4559 15.8875 18.7051L15.5259 21.1261L17.9469 20.7644C18.196 20.7274 18.4283 20.8991 18.4655 21.1482C18.5028 21.3974 18.3309 21.6297 18.0817 21.6669L15.051 22.1196C15.0285 22.123 15.006 22.1247 14.9835 22.1247Z" fill="white"/>
</g>
<defs>
<clipPath id="clip0">
<rect width="16" height="16" fill="white" transform="translate(9 9)"/>
</clipPath>
</defs>
</svg>
