<svg width="24" height="24" viewBox="0 0 24 24" fill="none" xmlns="http://www.w3.org/2000/svg">
<g clip-path="url(#clip0)">
<path d="M23.25 7.50002H0.750044C0.336027 7.50002 6.29425e-05 7.164 6.29425e-05 6.75004C6.29425e-05 6.33603 0.336088 6.00006 0.750044 6.00006H23.25C23.664 6.00006 24 6.33609 24 6.75004C24 7.164 23.664 7.50002 23.25 7.50002Z" fill="white"/>
<path d="M0.750044 11.2501H23.25C23.664 11.2501 24 11.5861 24 12C24 12.414 23.664 12.75 23.25 12.75H0.750044C0.336027 12.75 6.29425e-05 12.414 6.29425e-05 12C6.29425e-05 11.5861 0.336027 11.2501 0.750044 11.2501Z" fill="white"/>
<path d="M0.750034 16.5H15.75C16.164 16.5 16.5 16.836 16.5 17.25C16.5 17.664 16.164 18 15.75 18H0.750034C0.336018 18 5.34058e-05 17.6639 5.34058e-05 17.25C-9.53674e-06 16.836 0.336018 16.5 0.750034 16.5Z" fill="white"/>
</g>
<defs>
<clipPath id="clip0">
<rect width="24" height="24" fill="white" transform="matrix(-1 0 0 1 24 0)"/>
</clipPath>
</defs>
</svg>
