<svg width="100" height="32" viewBox="0 0 100 32" fill="none" xmlns="http://www.w3.org/2000/svg">
<path d="M43.1081 18.5067C42.7041 18.85 42.2543 19.1131 41.7582 19.297C41.2611 19.4803 40.7445 19.5724 40.2077 19.5724C39.7963 19.5724 39.3995 19.5187 39.0179 19.4113C38.6362 19.3052 38.2803 19.1534 37.9494 18.9573C37.6178 18.7618 37.3156 18.5278 37.0412 18.2553C36.7663 17.9828 36.5324 17.6797 36.3385 17.3471C36.1448 17.014 35.9942 16.6556 35.8873 16.2722C35.7804 15.8888 35.7268 15.4908 35.7268 15.0794C35.7268 14.668 35.7805 14.2722 35.8873 13.893C35.9941 13.513 36.1446 13.1566 36.3385 12.8239C36.5324 12.4913 36.7663 12.1884 37.0412 11.9158C37.3156 11.6433 37.6178 11.4105 37.9494 11.2161C38.2803 11.0229 38.6362 10.8723 39.0179 10.7655C39.3995 10.6588 39.7965 10.605 40.2077 10.605C40.7447 10.605 41.2611 10.6972 41.7582 10.8805C42.2543 11.0637 42.7041 11.3275 43.1081 11.6706L42.2001 13.1844C41.9375 12.9177 41.6346 12.7094 41.2914 12.5577C40.9488 12.4059 40.587 12.3301 40.2076 12.3301C39.8283 12.3301 39.4717 12.403 39.1391 12.5483C38.8057 12.6942 38.5139 12.8904 38.2637 13.1388C38.0139 13.3863 37.816 13.677 37.6708 14.0107C37.5254 14.3433 37.4526 14.6999 37.4526 15.0794C37.4526 15.4628 37.5254 15.8222 37.6708 16.1572C37.816 16.4921 38.014 16.7851 38.2637 17.035C38.5139 17.2857 38.8059 17.4831 39.1391 17.6285C39.4717 17.7738 39.8283 17.8467 40.2076 17.8467C40.4253 17.8467 40.6377 17.8206 40.8431 17.7679C41.0497 17.7154 41.2453 17.6431 41.4306 17.5497V15.0794H43.1079V18.5067H43.1081Z" fill="white"/>
<path d="M50.5378 16.0843C50.5378 16.5693 50.4508 17.0198 50.2769 17.4377C50.1031 17.8555 49.8673 18.2167 49.5691 18.522C49.2703 18.8266 48.9196 19.0671 48.5181 19.2422C48.1166 19.4183 47.6859 19.506 47.226 19.506C46.7691 19.506 46.3408 19.4183 45.9386 19.2422C45.5371 19.0671 45.1857 18.8266 44.8852 18.522C44.5841 18.2167 44.3478 17.8555 44.1739 17.4377C44.0005 17.0198 43.9136 16.5693 43.9136 16.0843C43.9136 15.5924 44.0005 15.136 44.1739 14.7159C44.3478 14.2963 44.5841 13.9338 44.8852 13.6291C45.1859 13.3245 45.5371 13.0852 45.9386 12.9114C46.3408 12.7385 46.7691 12.6511 47.226 12.6511C47.6859 12.6511 48.1166 12.7328 48.5181 12.8962C48.9196 13.0595 49.2703 13.2925 49.5691 13.593C49.8673 13.8936 50.1031 14.2548 50.2769 14.6773C50.4508 15.0986 50.5378 15.5679 50.5378 16.0843ZM48.8727 16.0843C48.8727 15.8183 48.829 15.5771 48.7421 15.3614C48.6551 15.1454 48.5372 14.9599 48.3884 14.8041C48.2385 14.6483 48.0639 14.5292 47.8643 14.4462C47.6647 14.364 47.4517 14.3226 47.2258 14.3226C46.9987 14.3226 46.7864 14.364 46.5863 14.4462C46.3867 14.5292 46.2133 14.6481 46.0657 14.8041C45.9186 14.9599 45.8024 15.1454 45.7179 15.3614C45.6327 15.5773 45.5907 15.8183 45.5907 16.0843C45.5907 16.3346 45.6327 16.5669 45.7179 16.7813C45.8024 16.9953 45.9186 17.1803 46.0657 17.3379C46.2133 17.4954 46.3867 17.6197 46.5863 17.7103C46.7864 17.8013 46.9989 17.8468 47.2258 17.8468C47.4517 17.8468 47.6647 17.8042 47.8643 17.7197C48.0638 17.6352 48.2383 17.5161 48.3884 17.3626C48.5372 17.209 48.6551 17.0235 48.7421 16.8053C48.829 16.5867 48.8727 16.3474 48.8727 16.0843Z" fill="white"/>
<path d="M48.9878 21.8548V20.1899L49.9017 20.2015C50.1241 20.2015 50.3302 20.156 50.5192 20.0661C50.7092 19.9752 50.8737 19.8536 51.0126 19.702C51.1516 19.5514 51.2625 19.3763 51.3428 19.1784C51.4235 18.9806 51.4642 18.7728 51.4642 18.5545V12.8996H53.1531V18.5545H53.1415C53.1369 18.858 53.0959 19.1504 53.0166 19.4335C52.9384 19.7154 52.8264 19.9786 52.6803 20.2236C52.5357 20.4669 52.3618 20.6895 52.1599 20.8889C51.958 21.089 51.7362 21.2607 51.491 21.4036C51.2472 21.5472 50.9845 21.6581 50.7033 21.7369C50.4235 21.8157 50.1316 21.8548 49.8294 21.8548H48.9878ZM53.4251 11.1378C53.4251 11.2913 53.3959 11.4343 53.3374 11.5673C53.2792 11.701 53.2009 11.8165 53.1018 11.9156C53.0027 12.0149 52.8859 12.0931 52.7504 12.1514C52.615 12.2103 52.4725 12.2395 52.3232 12.2395C52.1656 12.2395 52.0198 12.2103 51.8845 12.1514C51.749 12.0931 51.6311 12.0149 51.5308 11.9156C51.4293 11.8165 51.35 11.7008 51.2915 11.5673C51.2331 11.4343 51.2027 11.2913 51.2027 11.1378C51.2027 10.9877 51.2331 10.8466 51.2915 10.7106C51.35 10.5758 51.4293 10.4591 51.5308 10.3592C51.6311 10.2606 51.749 10.1823 51.8845 10.1229C52.0198 10.0644 52.1656 10.0354 52.3232 10.0354C52.4725 10.0354 52.615 10.0644 52.7504 10.1229C52.8857 10.1823 53.0025 10.2606 53.1018 10.3592C53.2009 10.459 53.2794 10.5758 53.3374 10.7106C53.3959 10.8467 53.4251 10.9879 53.4251 11.1378Z" fill="white"/>
<path d="M56.3499 11.1378C56.3499 11.2913 56.3207 11.4343 56.2623 11.5673C56.204 11.701 56.1245 11.8165 56.023 11.9156C55.9214 12.0149 55.8036 12.0931 55.6695 12.1514C55.534 12.2103 55.3894 12.2395 55.2365 12.2395C55.0823 12.2395 54.9376 12.2103 54.8034 12.1514C54.6681 12.0931 54.5502 12.0149 54.4521 11.9156C54.3529 11.8165 54.2746 11.7008 54.2151 11.5673C54.1567 11.4343 54.1277 11.2913 54.1277 11.1378C54.1277 10.9877 54.1567 10.8466 54.2151 10.7106C54.2748 10.5758 54.3529 10.4591 54.4521 10.3592C54.55 10.2606 54.6679 10.1823 54.8034 10.1229C54.9376 10.0644 55.0823 10.0354 55.2365 10.0354C55.3894 10.0354 55.534 10.0644 55.6695 10.1229C55.8036 10.1823 55.9214 10.2606 56.023 10.3592C56.1245 10.459 56.204 10.5758 56.2623 10.7106C56.3207 10.8467 56.3499 10.9879 56.3499 11.1378ZM56.0652 19.3845H54.4009V12.8997H56.0652V19.3845Z" fill="white"/>
<path d="M67.9028 18.494C67.4989 18.8418 67.0472 19.1078 66.5466 19.2935C66.0458 19.4796 65.5276 19.5724 64.9907 19.5724C64.5788 19.5724 64.182 19.5187 63.8001 19.4112C63.4185 19.3052 63.0613 19.1534 62.7287 18.9572C62.396 18.7618 62.0926 18.5265 61.8184 18.2523C61.5428 17.9779 61.3082 17.674 61.1121 17.3408C60.916 17.0082 60.7655 16.6509 60.6581 16.2694C60.5508 15.8877 60.4983 15.4907 60.4983 15.0793C60.4983 14.6679 60.5508 14.2699 60.6581 13.887C60.7655 13.5031 60.916 13.1447 61.1121 12.8114C61.3082 12.4788 61.5428 12.1746 61.8184 11.9004C62.0926 11.626 62.396 11.3903 62.7287 11.1948C63.0613 10.9994 63.4185 10.8476 63.8001 10.7408C64.1818 10.6341 64.5788 10.5803 64.9907 10.5803C65.5276 10.5803 66.0458 10.6725 66.5466 10.8557C67.0472 11.039 67.4989 11.3068 67.9028 11.6582L66.983 13.1715C66.7286 12.8973 66.4275 12.6871 66.0809 12.5389C65.7332 12.3918 65.3701 12.3183 64.9907 12.3183C64.6068 12.3183 64.2482 12.3906 63.9123 12.5365C63.5772 12.6812 63.2856 12.8785 63.0345 13.127C62.7847 13.3744 62.5863 13.6674 62.4416 14.0047C62.2957 14.3415 62.2234 14.6997 62.2234 15.0792C62.2234 15.4586 62.2957 15.815 62.4416 16.1478C62.5863 16.481 62.7848 16.7722 63.0345 17.0231C63.2854 17.273 63.5772 17.4712 63.9123 17.6161C64.2484 17.762 64.6068 17.8343 64.9907 17.8343C65.3701 17.8343 65.7332 17.7607 66.0809 17.6131C66.4275 17.466 66.7288 17.2554 66.983 16.9805L67.9028 18.494Z" fill="white"/>
<path d="M70.3852 19.3844H68.7324V12.8997H69.1315L69.6766 13.6688C69.9428 13.4261 70.2462 13.2398 70.5848 13.1086C70.9244 12.9773 71.2758 12.9114 71.6388 12.9114H73.0979V14.5582H71.6388C71.465 14.5582 71.3015 14.5909 71.1487 14.6551C70.9946 14.7204 70.8616 14.8091 70.7482 14.9223C70.6361 15.0345 70.5464 15.168 70.4822 15.3214C70.418 15.4749 70.3853 15.6389 70.3853 15.8115V19.3844H70.3852Z" fill="white"/>
<path d="M75.3808 21.8548V20.1899L76.3017 20.2016C76.4627 20.2016 76.618 20.1758 76.7673 20.1233C76.9167 20.0708 77.0544 19.9978 77.1829 19.9051C77.3102 19.8122 77.4211 19.702 77.518 19.5758C77.615 19.4486 77.6943 19.3097 77.7548 19.1602C77.5728 19.2372 77.3885 19.3137 77.2005 19.3902C77.0125 19.4671 76.8246 19.5057 76.6343 19.5057C76.2339 19.5057 75.8593 19.4346 75.5079 19.2932C75.1565 19.1525 74.8484 18.9512 74.5846 18.6909C74.3198 18.4306 74.1118 18.1138 73.96 17.7403C73.8096 17.3673 73.7336 16.9482 73.7336 16.4843V12.8992H75.3806V16.4843C75.3806 16.7142 75.4133 16.9145 75.481 17.0866C75.5474 17.2576 75.6373 17.4012 75.7494 17.5161C75.8625 17.6311 75.9957 17.7175 76.1462 17.7735C76.2979 17.8305 76.4603 17.8585 76.6342 17.8585C76.8033 17.8585 76.9644 17.8189 77.1151 17.7401C77.2667 17.6613 77.3987 17.5573 77.5119 17.4283C77.6251 17.2995 77.7138 17.1529 77.7779 16.9891C77.8433 16.8262 77.8748 16.6575 77.8748 16.4843V12.8992H79.5404V18.5671C79.5359 19.0228 79.4482 19.4506 79.2744 19.851C79.1005 20.2501 78.8635 20.5992 78.5623 20.8979C78.2613 21.1968 77.9122 21.4325 77.5119 21.6063C77.1127 21.7804 76.6842 21.8666 76.228 21.8666L75.3808 21.8548Z" fill="white"/>
<path d="M82.4655 21.8548H80.8V12.8997H81.1991L81.8599 13.6806C82.0092 13.5394 82.1727 13.4062 82.35 13.2814C82.5274 13.156 82.7129 13.048 82.9044 12.9569C83.0958 12.8658 83.2952 12.7947 83.5008 12.7422C83.7063 12.6897 83.9139 12.6639 84.1241 12.6639C84.5804 12.6639 85.0088 12.7457 85.4102 12.9091C85.8129 13.0726 86.1643 13.3037 86.4642 13.6024C86.7652 13.9006 87.0024 14.2607 87.1763 14.6832C87.3489 15.1045 87.4366 15.5719 87.4366 16.0844C87.4366 16.6171 87.3489 17.0969 87.1763 17.5224C87.0024 17.9491 86.7654 18.3097 86.4642 18.606C86.1643 18.9031 85.813 19.1302 85.4102 19.2878C85.0087 19.4453 84.5804 19.5234 84.1241 19.5234C83.9793 19.5234 83.8346 19.5076 83.691 19.4756C83.5475 19.4429 83.4062 19.3998 83.2672 19.3448C83.1283 19.2911 82.9906 19.2293 82.8553 19.1603C82.72 19.092 82.5905 19.0214 82.4655 18.9478V21.8548ZM85.7769 16.0844C85.7769 15.8107 85.7336 15.5638 85.6473 15.3461C85.5609 15.1278 85.4418 14.9434 85.2924 14.7917C85.1431 14.6401 84.968 14.5245 84.7661 14.444C84.5642 14.3628 84.3505 14.3226 84.1243 14.3226C83.8977 14.3226 83.6854 14.3628 83.4858 14.444C83.2862 14.5245 83.1111 14.6399 82.9617 14.7917C82.8124 14.9435 82.6943 15.1278 82.6081 15.3461C82.5204 15.5638 82.4773 15.8107 82.4773 16.0844C82.4773 16.3476 82.5204 16.5869 82.6081 16.8053C82.6943 17.0235 82.8124 17.209 82.9617 17.3626C83.1109 17.5161 83.286 17.635 83.4858 17.7197C83.6853 17.8042 83.8977 17.8468 84.1243 17.8468C84.3507 17.8468 84.5642 17.8042 84.7661 17.7197C84.968 17.6352 85.1431 17.5161 85.2924 17.3626C85.4418 17.209 85.5609 17.0235 85.6473 16.8053C85.7336 16.5867 85.7769 16.3474 85.7769 16.0844Z" fill="white"/>
<path d="M91.5531 19.3844C91.1539 19.3844 90.7781 19.3085 90.4279 19.158C90.0765 19.0062 89.7684 18.7986 89.5036 18.5335C89.2396 18.2697 89.032 17.9616 88.8802 17.6102C88.7286 17.2587 88.6526 16.8837 88.6526 16.4844V14.558H87.8472V12.9112H88.6526V10.32H90.2996V12.9112H92.8066V14.558H90.2996V16.4844C90.2996 16.6576 90.3323 16.82 90.3975 16.9717C90.4616 17.1229 90.5503 17.2554 90.6635 17.3679C90.7767 17.4811 90.9087 17.571 91.0628 17.6376C91.2156 17.7042 91.3803 17.7374 91.5529 17.7374H92.8064V19.3843H91.5531V19.3844Z" fill="white"/>
<path d="M100 16.0843C100 16.5693 99.9136 17.0198 99.7398 17.4377C99.5659 17.8555 99.3301 18.2167 99.0314 18.522C98.7325 18.8266 98.3824 19.0671 97.9809 19.2422C97.5793 19.4183 97.1488 19.506 96.6888 19.506C96.2324 19.506 95.8029 19.4183 95.4014 19.2422C94.9999 19.0671 94.6487 18.8266 94.3486 18.522C94.0476 18.2167 93.8092 17.8555 93.6365 17.4377C93.4626 17.0198 93.3762 16.5693 93.3762 16.0843C93.3762 15.5924 93.4626 15.136 93.6365 14.7159C93.8092 14.2963 94.0474 13.9338 94.3486 13.6291C94.6487 13.3245 94.9999 13.0852 95.4014 12.9114C95.8031 12.7385 96.2324 12.6511 96.6888 12.6511C97.1488 12.6511 97.5793 12.7328 97.9809 12.8962C98.3824 13.0595 98.7325 13.2925 99.0314 13.593C99.3301 13.8936 99.5659 14.2548 99.7398 14.6773C99.9135 15.0986 100 15.5679 100 16.0843ZM98.3343 16.0843C98.3343 15.8183 98.2912 15.5771 98.2047 15.3614C98.1185 15.1454 98.0006 14.9599 97.85 14.8041C97.7017 14.6483 97.5268 14.5292 97.327 14.4462C97.1275 14.364 96.9138 14.3226 96.6887 14.3226C96.4621 14.3226 96.2486 14.364 96.049 14.4462C95.8495 14.5292 95.6755 14.6481 95.5284 14.8041C95.3812 14.9599 95.2658 15.1454 95.1806 15.3614C95.0954 15.5773 95.0535 15.8183 95.0535 16.0843C95.0535 16.3346 95.0954 16.5669 95.1806 16.7813C95.2658 16.9953 95.3812 17.1803 95.5284 17.3379C95.6755 17.4954 95.8495 17.6197 96.049 17.7103C96.2484 17.8013 96.4621 17.8468 96.6887 17.8468C96.9138 17.8468 97.1274 17.8042 97.327 17.7197C97.5266 17.6352 97.7017 17.5161 97.85 17.3626C98.0006 17.209 98.1185 17.0235 98.2047 16.8053C98.2912 16.5867 98.3343 16.3474 98.3343 16.0843Z" fill="white"/>
<path d="M15.9635 0C7.16095 0 0 7.1613 0 15.9628C0 24.765 7.16095 31.9263 15.9635 31.9263C24.7659 31.9263 31.9267 24.765 31.9267 15.9628C31.9267 7.16113 24.7659 0 15.9635 0ZM17.6349 10.7883C15.2355 11.9041 13.3857 14.0084 12.6135 16.5754C11.9863 16.2814 11.4054 15.9056 10.882 15.4626C11.5994 12.954 13.2485 10.865 15.3735 9.44958C16.0385 9.00671 16.8757 8.58626 17.4594 8.42264C18.581 8.02271 19.7846 7.79336 21.0424 7.79336C21.0963 7.79336 21.1502 7.79545 21.2046 7.79579C21.9501 7.79545 22.7552 7.87248 23.5863 8.07227C23.6682 8.09226 23.7499 8.11313 23.8323 8.13539C23.8436 8.13834 23.8556 8.14112 23.8676 8.14443C24.0539 8.1952 24.2401 8.25258 24.4282 8.31709C24.4574 8.32666 24.4881 8.33796 24.5174 8.34839C24.5792 8.3703 24.6411 8.39256 24.7035 8.41586C24.8664 8.47741 25.0293 8.54383 25.1928 8.61669C25.1921 8.60052 25.1902 8.5847 25.1888 8.56887C25.1902 8.56992 25.1916 8.57026 25.1928 8.57026C25.081 7.14878 24.4801 5.77582 24.1003 5.03369C23.8092 4.50179 23.466 4.00136 23.0798 3.53866C27.3776 6.01003 30.2799 10.6468 30.2846 15.9493C28.9453 12.4306 25.5386 9.92271 21.555 9.92271C20.7844 9.92271 20.0358 10.0175 19.3191 10.1943C18.7788 10.3272 18.2146 10.5339 17.6349 10.7883ZM26.061 12.901C25.5896 14.8065 24.6096 16.5126 23.2684 17.8635C22.9958 15.4746 22.0323 13.2924 20.5835 11.5224C20.9021 11.4828 21.2266 11.4616 21.5548 11.4616C23.2332 11.4614 24.787 11.9957 26.061 12.901ZM15.9258 13.8724C16.7783 14.7674 17.4206 15.8635 17.7691 17.0835C17.1734 17.2304 16.5523 17.3099 15.9122 17.3099C15.2765 17.3099 14.6592 17.2318 14.0675 17.0878C14.4222 15.8656 15.0692 14.7676 15.9258 13.8724ZM9.67858 14.1908C8.6965 12.8867 8.11365 11.2663 8.11365 9.51166C8.11365 9.33621 8.12199 9.16268 8.13295 8.99001C9.07973 8.71372 10.0797 8.56244 11.1147 8.56244C11.958 8.56244 12.7775 8.66364 13.5648 8.84935C11.8192 10.2244 10.4605 12.0691 9.67858 14.1908ZM15.9122 1.71412C19.1162 1.71412 21.8722 3.65725 23.069 6.42665C22.4107 6.31433 21.7332 6.25416 21.0424 6.25416C18.94 6.25416 16.9619 6.79372 15.2367 7.7405C13.9484 7.27728 12.5608 7.02359 11.1147 7.02359C10.1917 7.02359 9.29274 7.12966 8.42785 7.32545C9.37603 4.08656 12.3711 1.71412 15.9122 1.71412ZM8.64573 3.65707C7.35153 5.26009 6.57445 7.29658 6.57445 9.51166C6.57445 14.6606 10.7629 18.8491 15.9122 18.8491C16.6448 18.8491 17.3561 18.762 18.0404 18.601C18.0555 18.8018 18.0663 19.0035 18.0663 19.2076C18.0663 19.7927 17.9991 20.3631 17.8753 20.9115C17.4419 20.9511 17.0237 20.9743 16.6187 20.984C16.3094 21.0118 15.9971 21.0296 15.6806 21.0296C14.0905 21.0296 12.5815 20.6797 11.2239 20.0543C9.74378 19.417 8.61477 18.5086 7.75354 17.502C6.29103 15.8863 5.31468 13.8241 5.05647 11.5468C4.8732 11.6801 4.70158 11.8161 4.53552 11.953C3.24897 12.9806 2.24029 14.3419 1.64248 15.9048C1.66352 10.7041 4.47101 6.14897 8.64573 3.65707ZM17.3535 22.4491C16.6267 24.0193 15.3909 25.3051 13.8571 26.0968C12.5568 24.8882 11.5582 23.3599 10.9947 21.6334C12.4388 22.2351 14.0216 22.5686 15.681 22.5686C16.2487 22.5686 16.8063 22.5255 17.3535 22.4491ZM2.57275 19.2078C2.57275 17.4356 3.17246 15.8002 4.17871 14.4941C5.11124 17.0645 6.88118 19.2368 9.1592 20.6783C9.60868 22.9876 10.7184 25.0626 12.2812 26.7026C11.6546 26.8671 10.9973 26.9549 10.3199 26.9549C6.04829 26.9547 2.57275 23.4797 2.57275 19.2078ZM15.9635 30.2839C13.3631 30.2839 10.9225 29.5871 8.81822 28.371C9.30734 28.4508 9.8083 28.4941 10.3199 28.4941C15.44 28.4941 19.6056 24.3283 19.6056 19.2078C19.6056 16.7576 18.6489 14.5293 17.0931 12.8684C17.6456 12.481 18.2506 12.164 18.8948 11.9293C20.1422 13.2529 21.0565 14.8924 21.5025 16.7152L21.5126 16.7051C21.5211 16.7399 21.5291 16.7766 21.5378 16.8145C21.5559 16.9117 21.5743 17.0092 21.5903 17.1054C21.6741 17.5132 21.7319 17.9296 21.7672 18.3525C21.8164 18.8065 21.8437 19.2953 21.8324 19.8065C21.835 19.8065 21.8371 19.8072 21.839 19.8072C21.835 20.0066 21.8237 20.2097 21.8071 20.4156C21.8045 20.4163 21.8025 20.417 21.7998 20.417C21.7162 21.4232 21.4674 22.4844 20.9475 23.5004C20.3652 24.8734 19.566 25.9241 18.8432 26.6762C18.822 26.6977 18.8013 26.7198 18.7806 26.7407C18.7081 26.8149 18.6376 26.8857 18.5672 26.9532C18.5479 26.9713 18.5293 26.9895 18.5107 27.0074C18.4495 27.066 18.3883 27.1225 18.3292 27.1761C18.3158 27.1884 18.3026 27.2015 18.2899 27.2128C18.2195 27.2754 18.1516 27.335 18.0857 27.3913C18.0718 27.403 18.0584 27.4143 18.0452 27.4254C17.9037 27.5447 17.7721 27.6497 17.6543 27.7395L17.6636 27.7435C17.6636 27.7435 18.284 28.0785 19.3172 28.3307C19.3198 28.3279 19.3231 28.3249 19.3257 28.323C20.0405 28.4991 20.7865 28.5965 21.555 28.5965C22.0038 28.5965 22.4446 28.563 22.8762 28.5011C20.8256 29.6367 18.4686 30.2839 15.9635 30.2839ZM21.555 27.0571C21.2273 27.0571 20.9028 27.0356 20.5849 26.9956C22.1919 25.0328 23.2025 22.5648 23.3356 19.8685C25.1905 18.3759 26.6009 16.3544 27.3395 14.0355C28.5901 15.4193 29.3534 17.2513 29.3534 19.2593C29.3536 23.5592 25.8555 27.0571 21.555 27.0571Z" fill="url(#paint0_linear)"/>
<defs>
<linearGradient id="paint0_linear" x1="6.76975" y1="2.91978" x2="25.2872" y2="29.1909" gradientUnits="userSpaceOnUse">
<stop stop-color="#8DC33F"/>
<stop offset="1" stop-color="#00A7A7"/>
</linearGradient>
</defs>
</svg>
