<svg width="50" height="50" viewBox="0 0 50 50" fill="none" xmlns="http://www.w3.org/2000/svg">
<path d="M11.2926 25L5.65341 30.6392L0 25L5.6392 19.3608L11.2926 25ZM25 11.2926L34.6733 20.9659L40.3125 15.3267L25 0L9.6733 15.3267L15.3125 20.9659L25 11.2926ZM44.3466 19.3608L38.7074 25L44.3466 30.6392L49.9858 25L44.3466 19.3608ZM25 38.7074L15.3267 29.0341L9.6875 34.6733L25 50L40.3125 34.6733L34.6733 29.0341L25 38.7074ZM25 30.6392L30.6392 25L25 19.3608L19.3466 25L25 30.6392Z" fill="#F0B90B"/>
</svg>
