<svg width="50" height="50" viewBox="0 0 50 50" fill="none" xmlns="http://www.w3.org/2000/svg">
<path d="M24.4218 0L24.8404 0.440211L24.7971 0.573717C24.5517 1.2196 24.512 1.916 24.5301 2.60518L24.5914 18.46C19.3774 20.6971 14.2789 23.1977 9.06495 25.442C9.33918 24.4209 9.99949 23.5801 10.5335 22.6853L24.4218 0ZM9 28.4838C14.2248 31.3668 19.3269 34.4627 24.5265 37.3927L24.5373 48.0732C24.5345 48.5524 24.6239 49.0277 24.8007 49.4732L24.6563 50C24.2342 49.5526 23.8517 49.0727 23.5053 48.5675L9 28.4838Z" fill="#828384"/>
<path d="M24.5302 2.6051C24.5121 1.91592 24.5518 1.21952 24.7972 0.573639L40.1432 25.4961C38.9597 25.229 37.9566 24.5471 36.903 23.9878C32.804 22.1331 28.5859 20.5383 24.5915 18.4599C24.4796 13.1738 24.5987 7.88763 24.5302 2.6051Z" fill="#313232"/>
<path d="M9.06543 25.442C14.2794 23.1976 19.3779 20.6971 24.5919 18.46C24.7867 21.8265 24.6135 25.2002 24.6749 28.5704C24.7434 30.4683 24.4692 32.3988 24.8986 34.2715L24.9275 34.4266C24.3465 34.4591 23.8811 34.0838 23.4011 33.8168L9.06543 25.442ZM24.5269 37.3926L40.0281 28.5235L24.8012 49.4732C24.6244 49.0277 24.535 48.5524 24.5378 48.0732L24.5269 37.3926Z" fill="#313232"/>
<path d="M24.5928 18.46C28.5871 20.5384 32.8052 22.1332 36.9042 23.9879C37.9579 24.5472 38.961 25.2291 40.1445 25.4961L24.8995 34.2715C24.4701 32.3988 24.7443 30.4684 24.6758 28.5704C24.6144 25.2003 24.7876 21.8265 24.5928 18.46Z" fill="#131313"/>
</svg>
