<svg width="64" height="64" viewBox="0 0 64 64" fill="none" xmlns="http://www.w3.org/2000/svg">
<g clip-path="url(#clip0)">
<path d="M59.5793 47.3008C59.4192 47.3008 59.2652 47.2593 59.1289 47.1823C58.9926 47.1052 58.88 46.9927 58.797 46.8564C58.7141 46.7201 58.6726 46.566 58.6667 46.4119C58.6607 46.2519 58.6963 46.0978 58.7674 45.9615C60.8593 41.9141 62.0148 37.4519 62.1511 32.9008C62.2874 28.3497 61.3985 23.8223 59.5555 19.6564C59.4548 19.4371 59.4489 19.1823 59.5378 18.9571C59.6267 18.7319 59.7985 18.5482 60.0178 18.4475C60.237 18.3467 60.4918 18.3408 60.717 18.4297C60.9422 18.5186 61.1259 18.6904 61.2267 18.9097C63.1822 23.3245 64.1245 28.1245 63.9763 32.9541C63.8341 37.7838 62.6015 42.5186 60.3852 46.809C60.3081 46.9571 60.1896 47.0815 60.0474 47.1645C59.9111 47.2534 59.7452 47.3008 59.5793 47.3008Z" fill="white"/>
<path d="M46.5244 60.4148C46.317 60.4148 46.1214 60.3437 45.9614 60.2193C45.8014 60.0948 45.6888 59.917 45.6355 59.7156C45.5881 59.5141 45.6058 59.3067 45.6888 59.123C45.7718 58.9393 45.9199 58.7852 46.0977 58.6904C46.8918 58.2756 47.6503 57.8311 48.3436 57.3808C48.5451 57.2504 48.794 57.203 49.031 57.2504C49.2681 57.2978 49.4755 57.4459 49.6058 57.6474C49.7362 57.8489 49.7836 58.0978 49.7362 58.3348C49.6888 58.5719 49.5407 58.7793 49.3392 58.9096C48.5925 59.3956 47.7866 59.8637 46.9392 60.3082C46.8147 60.3793 46.6725 60.4148 46.5244 60.4148Z" fill="white"/>
<path d="M32.0356 63.9999C23.5437 63.9999 15.3956 60.6339 9.38667 54.631C9.22074 54.4591 9.12593 54.228 9.13185 53.985C9.13185 53.748 9.23259 53.5169 9.39852 53.345C9.57037 53.1732 9.79556 53.0784 10.0385 53.0784C10.2756 53.0784 10.5067 53.1673 10.6844 53.3332C14.477 57.1199 19.2059 59.828 24.3911 61.1851C29.5763 62.5421 35.0282 62.4947 40.1837 61.0488C40.4148 60.9836 40.6696 61.0132 40.877 61.1317C41.0904 61.2502 41.2444 61.4458 41.3096 61.6828C41.3748 61.9139 41.3452 62.1688 41.2267 62.3762C41.1082 62.5895 40.9126 62.7436 40.6756 62.8088C37.8607 63.6028 34.957 63.9999 32.0356 63.9999Z" fill="white"/>
<path d="M53.8489 55.034C53.6593 55.034 53.4755 54.9748 53.3215 54.8681C53.1674 54.7615 53.0489 54.6074 52.9896 54.4296C52.9244 54.2518 52.9185 54.0622 52.9659 53.8785C53.0133 53.6948 53.12 53.5348 53.2622 53.4163C53.2918 53.3926 53.3215 53.3629 53.3452 53.3392C53.9318 52.7466 54.4948 52.1363 55.0163 51.5081C55.0933 51.4133 55.1881 51.3303 55.2948 51.2711C55.4015 51.2118 55.52 51.1763 55.6385 51.1585C55.763 51.1466 55.8815 51.1585 56 51.1941C56.1185 51.2296 56.2252 51.2889 56.32 51.3659C56.4148 51.4429 56.4919 51.5378 56.5452 51.6503C56.6044 51.757 56.6341 51.8755 56.6459 52C56.6578 52.1244 56.64 52.2429 56.6044 52.3615C56.563 52.48 56.5037 52.5866 56.4207 52.6755C55.8637 53.3452 55.2652 54.0029 54.637 54.6311C54.5718 54.7022 54.5007 54.7615 54.4296 54.8266C54.2696 54.9629 54.0622 55.034 53.8489 55.034Z" fill="white"/>
<path d="M3.79254 45.9792C3.62069 45.9792 3.44884 45.9318 3.30069 45.837C3.15254 45.7422 3.03402 45.6118 2.96291 45.4518C-0.195608 38.6251 -0.84746 30.9096 1.11402 23.6562C3.0755 16.397 7.52587 10.0622 13.6888 5.75993C19.8518 1.45771 27.3362 -0.539326 34.8207 0.124378C42.3111 0.782155 49.3274 4.05919 54.6429 9.37475C54.7259 9.45771 54.797 9.55845 54.8385 9.67104C54.8859 9.78364 54.9096 9.90216 54.9096 10.0207C54.9096 10.1392 54.8859 10.2577 54.8385 10.3703C54.7911 10.4829 54.7259 10.5836 54.6429 10.6666C54.5599 10.7496 54.4592 10.8207 54.3466 10.8622C54.234 10.9096 54.1155 10.9333 53.997 10.9333C53.8785 10.9333 53.7599 10.9096 53.6474 10.8622C53.5348 10.8147 53.434 10.7496 53.3511 10.6666C48.3377 5.65327 41.7185 2.56586 34.6607 1.94364C27.6029 1.32141 20.5451 3.20586 14.7377 7.25919C8.92439 11.3185 4.72884 17.2918 2.87995 24.1362C1.03106 30.9807 1.64735 38.2518 4.62217 44.6814C4.68735 44.8236 4.71698 44.9718 4.70513 45.1259C4.69328 45.2799 4.64587 45.4281 4.56291 45.5585C4.47995 45.6888 4.36735 45.7955 4.23106 45.8666C4.09476 45.9436 3.94661 45.9792 3.79254 45.9792Z" fill="white"/>
<path d="M53.997 10.9333H47.1763C46.9333 10.9333 46.7022 10.8385 46.5303 10.6666C46.3585 10.4948 46.2637 10.2636 46.2637 10.0207C46.2637 9.77772 46.3585 9.54661 46.5303 9.37476C46.7022 9.20291 46.9333 9.10809 47.1763 9.10809H53.0844V3.19995C53.0844 2.95698 53.1792 2.72587 53.3511 2.55402C53.5229 2.38217 53.754 2.28735 53.997 2.28735C54.24 2.28735 54.4711 2.38217 54.6429 2.55402C54.8148 2.72587 54.9096 2.95698 54.9096 3.19995V10.0207C54.9096 10.2636 54.8148 10.4948 54.6429 10.6666C54.4711 10.8385 54.24 10.9333 53.997 10.9333Z" fill="white"/>
<path d="M10.0266 61.7184C9.78364 61.7184 9.55253 61.6236 9.38068 61.4518C9.20883 61.2799 9.11401 61.0488 9.11401 60.8058V53.9851C9.11401 53.7421 9.20883 53.511 9.38068 53.3392C9.55253 53.1673 9.78364 53.0725 10.0266 53.0725H16.8473C17.0903 53.0725 17.3214 53.1673 17.4933 53.3392C17.6651 53.511 17.7599 53.7421 17.7599 53.9851C17.7599 54.2281 17.6651 54.4592 17.4933 54.631C17.3214 54.8029 17.0903 54.8977 16.8473 54.8977H10.9392V60.8058C10.9392 61.0488 10.8444 61.2799 10.6725 61.4518C10.5066 61.6236 10.2696 61.7184 10.0266 61.7184Z" fill="white"/>
<path d="M32.0118 52.1185C28.0355 52.1185 24.1422 50.9393 20.8355 48.7289C17.5288 46.5185 14.9511 43.3778 13.4281 39.7037C11.9051 36.0297 11.5081 31.9822 12.2844 28.083C13.0607 24.1778 14.9748 20.5985 17.7896 17.7837C20.6044 14.9689 24.1896 13.0548 28.0888 12.2785C31.994 11.5022 36.0355 11.8993 39.7096 13.4222C43.3837 14.9452 46.5244 17.523 48.7348 20.8297C50.9451 24.1363 52.1244 28.0297 52.1244 32.006C52.1185 37.3393 49.997 42.4534 46.2281 46.2222C42.4592 49.9911 37.3451 52.1126 32.0118 52.1185ZM32.0118 13.7126C28.397 13.7126 24.8592 14.7852 21.8488 16.7941C18.8444 18.803 16.4977 21.6593 15.1111 25.0015C13.7244 28.3437 13.3629 32.0178 14.0681 35.5674C14.7733 39.1171 16.5155 42.3763 19.0755 44.9304C21.6355 47.4904 24.8888 49.2326 28.4385 49.9378C31.9881 50.643 35.6622 50.2815 39.0044 48.8948C42.3466 47.5082 45.2029 45.1674 47.2118 42.1571C49.2207 39.1526 50.2933 35.6148 50.2933 31.9941C50.2874 27.1467 48.3614 22.4948 44.9303 19.0697C41.4992 15.6445 36.8592 13.7185 32.0118 13.7126Z" fill="white"/>
<path d="M32.0118 32.9184C30.8562 32.9184 29.7303 32.5747 28.7703 31.9347C27.8103 31.2947 27.0636 30.3821 26.6251 29.3214C26.1866 28.2547 26.0681 27.0814 26.2933 25.9554C26.5184 24.8236 27.0755 23.7865 27.8873 22.9688C28.7051 22.151 29.7422 21.5999 30.874 21.3747C32.0059 21.1495 33.1792 21.268 34.2399 21.7065C35.3066 22.1451 36.2133 22.8976 36.8533 23.8517C37.4933 24.8117 37.837 25.9376 37.837 27.0932C37.837 27.3362 37.7422 27.5673 37.5703 27.7391C37.3985 27.911 37.1673 28.0058 36.9244 28.0058C36.6814 28.0058 36.4503 27.911 36.2785 27.7391C36.1066 27.5673 36.0118 27.3362 36.0118 27.0932C36.0118 26.2991 35.7747 25.5288 35.3362 24.871C34.8977 24.2132 34.2696 23.6976 33.5407 23.3954C32.8118 23.0932 32.0059 23.0162 31.2296 23.1702C30.4533 23.3243 29.7422 23.7036 29.1792 24.2665C28.6222 24.8236 28.237 25.5406 28.0829 26.3169C27.9288 27.0932 28.0059 27.8991 28.3081 28.628C28.6103 29.3569 29.1259 29.9851 29.7836 30.4236C30.4414 30.8621 31.2177 31.0991 32.0059 31.0991C32.2488 31.0991 32.4799 31.1939 32.6518 31.3658C32.8236 31.5377 32.9184 31.7688 32.9184 32.0117C32.9184 32.2547 32.8236 32.4858 32.6518 32.6576C32.4859 32.8176 32.2547 32.9184 32.0118 32.9184Z" fill="white"/>
<path d="M32.0118 42.7496C30.4652 42.7496 28.9837 42.1333 27.8933 41.0429C26.8029 39.9525 26.1866 38.471 26.1866 36.9244C26.1866 36.6814 26.2815 36.4503 26.4533 36.2784C26.6252 36.1066 26.8563 36.0118 27.0992 36.0118C27.3422 36.0118 27.5733 36.1066 27.7452 36.2784C27.917 36.4503 28.0118 36.6814 28.0118 36.9244C28.0118 37.7184 28.2489 38.4888 28.6874 39.1466C29.1259 39.8044 29.754 40.3199 30.4829 40.6221C31.2118 40.9244 32.0178 41.0014 32.794 40.8473C33.5703 40.6933 34.2814 40.314 34.8444 39.751C35.4014 39.194 35.7866 38.477 35.9407 37.7007C36.0948 36.9244 36.0177 36.1184 35.7155 35.3896C35.4133 34.6607 34.8977 34.0325 34.24 33.594C33.5822 33.1555 32.8059 32.9184 32.0177 32.9184C31.7748 32.9184 31.5437 32.8236 31.3718 32.6518C31.2 32.4799 31.1052 32.2488 31.1052 32.0059C31.1052 31.7629 31.2 31.5318 31.3718 31.3599C31.5437 31.1881 31.7748 31.0933 32.0177 31.0933C33.5644 31.0933 35.0459 31.7096 36.1422 32.7999C37.2326 33.8903 37.8489 35.3777 37.8489 36.9244C37.8489 38.471 37.2326 39.9525 36.1422 41.0488C35.04 42.1333 33.5585 42.7496 32.0118 42.7496Z" fill="white"/>
<path d="M32.0118 44.8059C31.7689 44.8059 31.5378 44.7111 31.3659 44.5392C31.1941 44.3674 31.0992 44.1362 31.0992 43.8933V20.1125C31.0992 19.8696 31.1941 19.6385 31.3659 19.4666C31.5378 19.2948 31.7689 19.2 32.0118 19.2C32.2548 19.2 32.4859 19.2948 32.6578 19.4666C32.8296 19.6385 32.9244 19.8696 32.9244 20.1125V43.8874C32.9244 44.1303 32.8296 44.3614 32.6578 44.5333C32.4859 44.7051 32.2548 44.8059 32.0118 44.8059Z" fill="white"/>
</g>
<defs>
<clipPath id="clip0">
<rect width="64" height="64" fill="white"/>
</clipPath>
</defs>
</svg>
