<svg width="64" height="64" viewBox="0 0 64 64" fill="none" xmlns="http://www.w3.org/2000/svg">
<path d="M7.46659 4.2666H6.39992C5.81325 4.2666 5.33325 4.7466 5.33325 5.33327C5.33325 5.91993 5.81325 6.39993 6.39992 6.39993H7.46659C8.05325 6.39993 8.53325 5.91993 8.53325 5.33327C8.53325 4.7466 8.05325 4.2666 7.46659 4.2666Z" fill="white"/>
<path d="M12.8001 4.2666H11.7334C11.1467 4.2666 10.6667 4.7466 10.6667 5.33327C10.6667 5.91993 11.1467 6.39993 11.7334 6.39993H12.8001C13.3867 6.39993 13.8667 5.91993 13.8667 5.33327C13.8667 4.7466 13.3867 4.2666 12.8001 4.2666Z" fill="white"/>
<path d="M18.1333 4.2666H17.0667C16.48 4.2666 16 4.7466 16 5.33327C16 5.91993 16.48 6.39993 17.0667 6.39993H18.1333C18.72 6.39993 19.2 5.91993 19.2 5.33327C19.2 4.7466 18.72 4.2666 18.1333 4.2666Z" fill="white"/>
<path d="M51.1999 4.2666H22.3999C21.8133 4.2666 21.3333 4.7466 21.3333 5.33327C21.3333 5.91993 21.8133 6.39993 22.3999 6.39993H51.1999C51.7866 6.39993 52.2666 5.91993 52.2666 5.33327C52.2666 4.7466 51.7866 4.2666 51.1999 4.2666Z" fill="white"/>
<path d="M61.8667 38.4H60.8V33.0667C60.8 30.08 59.6563 27.2059 57.6 25.037V5.33333C57.5941 2.38815 55.2118 0.00592593 52.2667 0H5.33333C2.38815 0.00592593 0.00592593 2.38815 0 5.33333V48C0.00592593 50.9452 2.38815 53.3274 5.33333 53.3333H34.1333V56.5333C34.1393 60.6578 37.4756 63.9941 41.6 64H56.5333C60.6578 63.9941 63.9941 60.6578 64 56.5333V40.5333C64 39.3541 63.0459 38.4 61.8667 38.4ZM58.6667 33.0667V38.4H39.4667V33.0667C39.4667 27.763 43.763 23.4667 49.0667 23.4667C54.3704 23.4667 58.6667 27.763 58.6667 33.0667ZM2.13333 5.33333C2.13333 3.56741 3.56741 2.13333 5.33333 2.13333H52.2667C54.0326 2.13333 55.4667 3.56741 55.4667 5.33333V8.53333H2.13333V5.33333ZM34.1333 40.5333V51.2H5.33333C3.56741 51.2 2.13333 49.7659 2.13333 48V10.6667H55.4667V23.2474C51.8637 20.8889 47.2593 20.6993 43.4726 22.7496C39.6859 24.8 37.3274 28.7585 37.3333 33.0667V38.4H36.2667C35.0874 38.4 34.1333 39.3541 34.1333 40.5333ZM61.8667 42.6667H58.6667C58.08 42.6667 57.6 43.1467 57.6 43.7333C57.6 44.32 58.08 44.8 58.6667 44.8H61.8667V46.9333H58.6667C58.08 46.9333 57.6 47.4133 57.6 48C57.6 48.5867 58.08 49.0667 58.6667 49.0667H61.8667V51.2H58.6667C58.08 51.2 57.6 51.68 57.6 52.2667C57.6 52.8533 58.08 53.3333 58.6667 53.3333H61.8667V55.4667H58.6667C58.08 55.4667 57.6 55.9467 57.6 56.5333C57.6 57.12 58.08 57.6 58.6667 57.6H61.76C61.2504 60.083 59.0696 61.8607 56.5333 61.8667H41.6C39.0637 61.8607 36.883 60.083 36.3733 57.6H39.4667C40.0533 57.6 40.5333 57.12 40.5333 56.5333C40.5333 55.9467 40.0533 55.4667 39.4667 55.4667H36.2667V53.3333H39.4667C40.0533 53.3333 40.5333 52.8533 40.5333 52.2667C40.5333 51.68 40.0533 51.2 39.4667 51.2H36.2667V49.0667H39.4667C40.0533 49.0667 40.5333 48.5867 40.5333 48C40.5333 47.4133 40.0533 46.9333 39.4667 46.9333H36.2667V44.8H39.4667C40.0533 44.8 40.5333 44.32 40.5333 43.7333C40.5333 43.1467 40.0533 42.6667 39.4667 42.6667H36.2667V40.5333H61.8667V42.6667Z" fill="white"/>
<path d="M48 52.0711V54.4C48 54.9867 48.48 55.4667 49.0667 55.4667C49.6533 55.4667 50.1333 54.9867 50.1333 54.4V52.0711C51.603 51.5556 52.48 50.0504 52.2193 48.5215C51.9526 46.9867 50.6252 45.8667 49.0667 45.8726C47.5082 45.8667 46.1807 46.9926 45.9141 48.5215C45.6533 50.0504 46.5304 51.5556 48 52.0711ZM49.0667 48C49.6533 48 50.1333 48.48 50.1333 49.0667C50.1333 49.6533 49.6533 50.1333 49.0667 50.1333C48.48 50.1333 48 49.6533 48 49.0667C48 48.48 48.48 48 49.0667 48Z" fill="white"/>
<path d="M18.1332 21.3333C17.5466 21.3333 17.0666 21.8133 17.0666 22.4V25.6H8.53324V17.0667H12.7999C13.3866 17.0667 13.8666 16.5867 13.8666 16C13.8666 15.4133 13.3866 14.9333 12.7999 14.9333H8.53324C7.35398 14.9333 6.3999 15.8874 6.3999 17.0667V25.6C6.3999 26.7793 7.35398 27.7333 8.53324 27.7333H17.0666C18.2458 27.7333 19.1999 26.7793 19.1999 25.6V22.4C19.1999 21.8133 18.7199 21.3333 18.1332 21.3333Z" fill="white"/>
<path d="M11.4192 19.514C10.9985 19.1111 10.3348 19.117 9.92589 19.5259C9.517 19.9348 9.51107 20.6044 9.91403 21.0192L12.0474 23.1526C12.2488 23.354 12.5214 23.4666 12.8 23.4666H12.8474C13.1496 23.4548 13.4281 23.3126 13.6177 23.0874L18.9511 16.6874C19.194 16.397 19.2651 15.994 19.1348 15.6385C19.0044 15.2829 18.6903 15.0222 18.317 14.957C17.9437 14.8918 17.5585 15.034 17.3155 15.3244L12.7288 20.8296L11.4192 19.514Z" fill="white"/>
<path d="M18.1332 39.4667C17.5466 39.4667 17.0666 39.9467 17.0666 40.5333V43.7333H8.53324V35.2H12.7999C13.3866 35.2 13.8666 34.72 13.8666 34.1333C13.8666 33.5467 13.3866 33.0667 12.7999 33.0667H8.53324C7.35398 33.0667 6.3999 34.0207 6.3999 35.2V43.7333C6.3999 44.9126 7.35398 45.8666 8.53324 45.8666H17.0666C18.2458 45.8666 19.1999 44.9126 19.1999 43.7333V40.5333C19.1999 39.9467 18.7199 39.4667 18.1332 39.4667Z" fill="white"/>
<path d="M11.4192 37.6473C10.9985 37.2444 10.3348 37.2503 9.92589 37.6592C9.517 38.0681 9.51107 38.7377 9.91403 39.1525L12.0474 41.2859C12.2488 41.4873 12.5214 41.5999 12.8 41.5999H12.8474C13.1496 41.5881 13.4281 41.4459 13.6177 41.2207L18.9511 34.8207C19.194 34.5303 19.2651 34.1273 19.1348 33.7718C19.0044 33.4162 18.6903 33.1555 18.317 33.0903C17.9437 33.0251 17.5585 33.1673 17.3155 33.4577L12.7288 38.9629L11.4192 37.6473Z" fill="white"/>
<path d="M23.4666 18.1333H31.9999C32.5866 18.1333 33.0666 17.6533 33.0666 17.0667C33.0666 16.48 32.5866 16 31.9999 16H23.4666C22.8799 16 22.3999 16.48 22.3999 17.0667C22.3999 17.6533 22.8799 18.1333 23.4666 18.1333Z" fill="white"/>
<path d="M38.3999 22.3999C38.3999 21.8133 37.9199 21.3333 37.3332 21.3333H23.4666C22.8799 21.3333 22.3999 21.8133 22.3999 22.3999C22.3999 22.9866 22.8799 23.4666 23.4666 23.4666H37.3332C37.9199 23.4666 38.3999 22.9866 38.3999 22.3999Z" fill="white"/>
<path d="M31.9999 34.1333H23.4666C22.8799 34.1333 22.3999 34.6133 22.3999 35.2C22.3999 35.7866 22.8799 36.2666 23.4666 36.2666H31.9999C32.5866 36.2666 33.0666 35.7866 33.0666 35.2C33.0666 34.6133 32.5866 34.1333 31.9999 34.1333Z" fill="white"/>
<path d="M30.9332 39.4666H23.4666C22.8799 39.4666 22.3999 39.9466 22.3999 40.5332C22.3999 41.1199 22.8799 41.5999 23.4666 41.5999H30.9332C31.5199 41.5999 31.9999 41.1199 31.9999 40.5332C31.9999 39.9466 31.5199 39.4666 30.9332 39.4666Z" fill="white"/>
</svg>
