<svg width="366" height="366" viewBox="0 0 366 366" fill="none" xmlns="http://www.w3.org/2000/svg">
<g filter="url(#filter0_d)">
<path d="M183.001 76C126.204 76 80 122.207 80 178.998C80 235.793 126.204 282 183.001 282C239.797 282 286 235.793 286 178.998C286 122.206 239.797 76 183.001 76ZM193.785 145.61C178.304 152.809 166.368 166.387 161.386 182.95C157.339 181.053 153.591 178.629 150.214 175.77C154.843 159.584 165.483 146.105 179.194 136.972C183.485 134.114 188.887 131.402 192.653 130.346C199.89 127.765 207.656 126.286 215.772 126.286C216.119 126.286 216.467 126.299 216.818 126.301C221.628 126.299 226.823 126.796 232.185 128.085C232.714 128.214 233.241 128.349 233.773 128.492C233.846 128.511 233.923 128.529 234.001 128.551C235.202 128.878 236.404 129.249 237.618 129.665C237.806 129.727 238.004 129.799 238.193 129.867C238.592 130.008 238.991 130.152 239.394 130.302C240.445 130.699 241.496 131.128 242.551 131.598C242.547 131.494 242.534 131.391 242.525 131.289C242.534 131.296 242.543 131.298 242.551 131.298C241.83 122.126 237.952 113.268 235.502 108.479C233.624 105.047 231.409 101.818 228.917 98.8327C256.648 114.779 275.374 144.697 275.404 178.91C266.763 156.207 244.783 140.025 219.079 140.025C214.107 140.025 209.277 140.636 204.652 141.777C201.166 142.634 197.526 143.968 193.785 145.61ZM248.153 159.241C245.111 171.537 238.788 182.545 230.135 191.262C228.375 175.847 222.159 161.767 212.811 150.347C214.866 150.091 216.96 149.954 219.078 149.954C229.907 149.953 239.932 153.401 248.153 159.241ZM182.758 165.51C188.258 171.284 192.403 178.357 194.651 186.229C190.808 187.177 186.8 187.689 182.67 187.689C178.568 187.689 174.586 187.186 170.768 186.257C173.056 178.371 177.231 171.286 182.758 165.51ZM142.449 167.564C136.112 159.149 132.352 148.694 132.352 137.373C132.352 136.241 132.405 135.121 132.476 134.007C138.585 132.224 145.037 131.248 151.715 131.248C157.156 131.248 162.444 131.901 167.524 133.099C156.261 141.971 147.494 153.874 142.449 167.564ZM182.67 87.0601C203.343 87.0601 221.125 99.5978 228.848 117.467C224.6 116.742 220.229 116.354 215.772 116.354C202.206 116.354 189.443 119.835 178.311 125.944C169.999 122.956 161.046 121.319 151.715 121.319C145.76 121.319 139.959 122.003 134.379 123.266C140.497 102.368 159.822 87.0601 182.67 87.0601ZM135.785 99.5967C127.434 109.94 122.42 123.08 122.42 137.373C122.42 170.596 149.445 197.621 182.67 197.621C187.397 197.621 191.987 197.059 196.401 196.02C196.499 197.316 196.569 198.617 196.569 199.934C196.569 203.71 196.136 207.39 195.337 210.928C192.54 211.184 189.842 211.333 187.229 211.396C185.233 211.576 183.218 211.69 181.176 211.69C170.916 211.69 161.18 209.433 152.42 205.397C142.87 201.285 135.585 195.424 130.028 188.929C120.591 178.504 114.292 165.198 112.626 150.504C111.443 151.364 110.336 152.242 109.264 153.125C100.963 159.755 94.455 168.539 90.5978 178.623C90.7335 145.067 108.848 115.675 135.785 99.5967ZM191.97 220.85C187.28 230.981 179.307 239.278 169.41 244.386C161.02 236.587 154.577 226.726 150.941 215.587C160.258 219.468 170.471 221.62 181.178 221.62C184.841 221.62 188.439 221.342 191.97 220.85ZM96.6001 199.935C96.6001 188.501 100.47 177.949 106.962 169.521C112.979 186.106 124.399 200.123 139.098 209.424C141.998 224.324 149.158 237.712 159.242 248.295C155.199 249.356 150.958 249.923 146.587 249.923C119.025 249.921 96.6001 227.499 96.6001 199.935ZM183.001 271.402C166.223 271.402 150.475 266.907 136.898 259.06C140.054 259.575 143.286 259.854 146.587 259.854C179.623 259.854 206.501 232.974 206.501 199.935C206.501 184.126 200.328 169.748 190.289 159.032C193.855 156.532 197.758 154.487 201.915 152.972C209.963 161.512 215.862 172.091 218.74 183.852L218.805 183.787C218.86 184.012 218.912 184.248 218.968 184.493C219.085 185.12 219.204 185.75 219.307 186.37C219.848 189.001 220.22 191.688 220.448 194.417C220.765 197.346 220.941 200.5 220.869 203.798C220.885 203.798 220.899 203.803 220.911 203.803C220.885 205.09 220.812 206.4 220.706 207.728C220.689 207.733 220.676 207.737 220.659 207.737C220.119 214.23 218.514 221.077 215.159 227.633C211.402 236.492 206.245 243.272 201.581 248.124C201.445 248.263 201.311 248.406 201.178 248.54C200.71 249.019 200.255 249.476 199.801 249.911C199.676 250.028 199.556 250.146 199.436 250.261C199.041 250.639 198.646 251.004 198.265 251.35C198.179 251.429 198.093 251.513 198.011 251.586C197.557 251.99 197.12 252.375 196.694 252.739C196.605 252.814 196.518 252.887 196.433 252.958C195.52 253.728 194.67 254.406 193.911 254.985L193.97 255.011C193.97 255.011 197.973 257.173 204.64 258.799C204.657 258.781 204.678 258.762 204.695 258.75C209.307 259.887 214.12 260.515 219.079 260.515C221.975 260.515 224.819 260.298 227.604 259.899C214.373 267.226 199.165 271.402 183.001 271.402ZM219.079 250.582C216.964 250.582 214.871 250.443 212.82 250.185C223.189 237.521 229.709 221.596 230.568 204.199C242.536 194.568 251.636 181.524 256.402 166.562C264.471 175.491 269.397 187.311 269.397 200.268C269.398 228.012 246.827 250.582 219.079 250.582Z" fill="url(#paint0_linear)"/>
</g>
<defs>
<filter id="filter0_d" x="0" y="0" width="366" height="366" filterUnits="userSpaceOnUse" color-interpolation-filters="sRGB">
<feFlood flood-opacity="0" result="BackgroundImageFix"/>
<feColorMatrix in="SourceAlpha" type="matrix" values="0 0 0 0 0 0 0 0 0 0 0 0 0 0 0 0 0 0 127 0" result="hardAlpha"/>
<feOffset dy="4"/>
<feGaussianBlur stdDeviation="40"/>
<feComposite in2="hardAlpha" operator="out"/>
<feColorMatrix type="matrix" values="0 0 0 0 0.552941 0 0 0 0 0.764706 0 0 0 0 0.247059 0 0 0 1 0"/>
<feBlend mode="normal" in2="BackgroundImageFix" result="effect1_dropShadow"/>
<feBlend mode="normal" in="SourceGraphic" in2="effect1_dropShadow" result="shape"/>
</filter>
<linearGradient id="paint0_linear" x1="123.68" y1="94.8395" x2="243.162" y2="264.348" gradientUnits="userSpaceOnUse">
<stop stop-color="#8DC33F"/>
<stop offset="1" stop-color="#00A7A7"/>
</linearGradient>
</defs>
</svg>
