<svg width="540" height="490" viewBox="0 0 540 490" fill="none" xmlns="http://www.w3.org/2000/svg">
<mask id="mask0" style="mask-type:alpha" maskUnits="userSpaceOnUse" x="0" y="0" width="540" height="490">
<rect width="540" height="490" fill="#C4C4C4"/>
</mask>
<g mask="url(#mask0)">
<path d="M357.503 -74C207.24 -74 85 48.2473 85 198.494C85 348.753 207.24 471 357.503 471C507.763 471 630 348.753 630 198.494C630 48.2443 507.763 -74 357.503 -74ZM386.033 110.162C345.075 129.209 313.499 165.131 300.317 208.951C289.611 203.932 279.694 197.518 270.76 189.954C283.007 147.132 311.157 111.471 347.432 87.3095C358.782 79.7494 373.074 72.5721 383.039 69.779C402.184 62.952 422.73 59.0369 444.202 59.0369C445.122 59.0369 446.042 59.0725 446.971 59.0784C459.696 59.0725 473.439 60.3875 487.627 63.798C489.025 64.1393 490.42 64.4955 491.827 64.8754C492.02 64.9259 492.224 64.9734 492.429 65.0298C495.608 65.8965 498.787 66.8761 501.999 67.9773C502.497 68.1405 503.02 68.3335 503.521 68.5116C504.575 68.8855 505.632 69.2655 506.697 69.6632C509.479 70.714 512.26 71.8479 515.05 73.0916C515.038 72.8155 515.005 72.5454 514.982 72.2753C515.005 72.2931 515.029 72.299 515.05 72.299C513.141 48.0336 502.883 24.5963 496.401 11.9278C491.432 2.84795 485.573 -5.69469 478.98 -13.5932C552.346 28.5945 601.888 107.746 601.968 198.263C579.107 138.197 520.954 95.386 452.952 95.386C439.797 95.386 427.019 97.0038 414.784 100.022C405.561 102.29 395.93 105.819 386.033 110.162ZM529.87 146.226C521.823 178.755 505.095 207.88 482.201 230.94C477.547 190.159 461.1 152.908 436.368 122.694C441.806 122.017 447.345 121.655 452.949 121.655C481.598 121.652 508.122 130.774 529.87 146.226ZM356.859 162.81C371.412 178.087 382.377 196.799 388.325 217.624C378.156 220.133 367.553 221.489 356.627 221.489C345.776 221.489 335.238 220.156 325.138 217.699C331.193 196.835 342.237 178.09 356.859 162.81ZM250.217 168.245C233.452 145.983 223.503 118.322 223.503 88.3691C223.503 85.3742 223.645 82.4118 223.832 79.4644C239.994 74.7478 257.064 72.1654 274.731 72.1654C289.127 72.1654 303.116 73.893 316.556 77.0631C286.759 100.536 263.565 132.026 250.217 168.245ZM356.627 -44.739C411.32 -44.739 458.366 -11.5688 478.796 35.7065C467.559 33.789 455.994 32.7619 444.202 32.7619C408.313 32.7619 374.546 41.9724 345.096 58.1345C323.104 50.2271 299.418 45.8965 274.731 45.8965C258.976 45.8965 243.63 47.7071 228.866 51.0494C245.052 -4.2402 296.18 -44.739 356.627 -44.739ZM232.586 -11.5718C210.493 15.7925 197.228 50.5566 197.228 88.3691C197.228 176.265 268.727 247.764 356.627 247.764C369.132 247.764 381.275 246.277 392.955 243.528C393.214 246.957 393.398 250.4 393.398 253.885C393.398 263.873 392.252 273.609 390.139 282.97C382.739 283.647 375.6 284.042 368.687 284.208C363.407 284.683 358.076 284.986 352.674 284.986C325.529 284.986 299.771 279.014 276.595 268.337C251.33 257.458 232.057 241.952 217.356 224.769C192.39 197.188 175.724 161.985 171.316 123.109C168.187 125.386 165.258 127.707 162.423 130.043C140.461 147.586 123.242 170.824 113.038 197.503C113.397 108.725 161.322 30.9662 232.586 -11.5718ZM381.231 309.219C368.824 336.022 347.729 357.972 321.546 371.487C299.35 350.854 282.303 324.766 272.683 295.295C297.334 305.565 324.354 311.258 352.68 311.258C362.371 311.258 371.89 310.522 381.231 309.219ZM128.918 253.888C128.918 223.635 139.155 195.719 156.332 173.421C172.251 217.301 202.464 254.383 241.351 278.99C249.024 318.411 267.967 353.831 294.645 381.828C283.948 384.636 272.728 386.135 261.164 386.135C188.246 386.132 128.918 326.811 128.918 253.888ZM357.503 442.962C313.113 442.962 271.451 431.068 235.53 410.308C243.88 411.671 252.431 412.41 261.164 412.41C348.566 412.41 419.675 341.297 419.675 253.888C419.675 212.062 403.344 174.024 376.785 145.671C386.217 139.058 396.544 133.647 407.541 129.64C428.835 152.234 444.442 180.222 452.055 211.338L452.228 211.166C452.373 211.759 452.51 212.385 452.658 213.033C452.967 214.692 453.281 216.357 453.554 217.998C454.985 224.959 455.971 232.068 456.573 239.287C457.413 247.037 457.879 255.381 457.686 264.107C457.731 264.107 457.766 264.119 457.799 264.119C457.731 267.524 457.538 270.991 457.256 274.505C457.211 274.517 457.176 274.529 457.131 274.529C455.703 291.706 451.456 309.821 442.581 327.165C432.64 350.602 418.998 368.539 406.66 381.377C406.297 381.745 405.944 382.122 405.591 382.478C404.353 383.745 403.151 384.954 401.949 386.105C401.62 386.414 401.302 386.725 400.984 387.031C399.94 388.032 398.895 388.996 397.886 389.91C397.657 390.121 397.431 390.344 397.215 390.537C396.013 391.605 394.855 392.623 393.73 393.585C393.493 393.784 393.264 393.977 393.038 394.167C390.622 396.203 388.375 397.996 386.366 399.528L386.523 399.596C386.523 399.596 397.114 405.316 414.751 409.62C414.795 409.572 414.852 409.522 414.896 409.489C427.099 412.496 439.832 414.158 452.952 414.158C460.613 414.158 468.137 413.585 475.504 412.528C440.5 431.914 400.266 442.962 357.503 442.962ZM452.952 387.88C447.357 387.88 441.818 387.512 436.392 386.829C463.824 353.324 481.076 311.193 483.346 265.167C515.011 239.687 539.087 205.179 551.696 165.594C573.043 189.215 586.073 220.489 586.073 254.766C586.076 328.168 526.362 387.88 452.952 387.88Z" fill="url(#paint0_linear)" fill-opacity="0.1"/>
</g>
<defs>
<linearGradient id="paint0_linear" x1="200.562" y1="-24.1578" x2="516.666" y2="424.301" gradientUnits="userSpaceOnUse">
<stop stop-color="#8DC33F"/>
<stop offset="1" stop-color="#00A7A7"/>
</linearGradient>
</defs>
</svg>
