<svg width="64" height="64" viewBox="0 0 64 64" fill="none" xmlns="http://www.w3.org/2000/svg">
<g clip-path="url(#clip0)">
<path d="M9.78375 23.6682L0.995603 32.0238C-0.278471 33.2327 -0.331804 35.2475 0.871158 36.5215C1.46968 37.1556 2.31116 37.5171 3.18227 37.5171C4.00005 37.5171 4.77634 37.209 5.36894 36.646L13.7126 28.7467C14.1334 28.8534 14.5719 28.9127 15.0282 28.9127C16.7763 28.9127 18.3289 28.0475 19.283 26.726H36.8356C37.7897 27.686 39.1052 28.2845 40.563 28.2845C43.4549 28.2845 45.8075 25.9319 45.8075 23.0401C45.8075 22.9215 45.8015 22.7971 45.7956 22.6786L51.2475 17.2267C51.6149 16.8593 51.6149 16.2667 51.2475 15.8993C50.88 15.5319 50.2875 15.5319 49.92 15.8993L45.2149 20.6164C44.8 19.8282 44.1956 19.1586 43.4608 18.6727L55.763 6.36451H57.6297V8.19562L53.0193 12.806C52.6519 13.1734 52.6519 13.766 53.0193 14.1334C53.203 14.3171 53.44 14.406 53.683 14.406C53.926 14.406 54.163 14.3171 54.3467 14.1334L57.9082 10.5719C58.406 11.686 59.5201 12.4623 60.8178 12.4623C62.5719 12.4623 64 11.0341 64 9.28007V3.17636C64 1.42229 62.5719 -0.00585938 60.8178 -0.00585938H54.7141C52.96 -0.00585938 51.5319 1.42229 51.5319 3.17636C51.5319 4.46229 52.2963 5.57044 53.3986 6.07414L41.5763 17.9023C41.2504 17.8371 40.9126 17.8015 40.563 17.8015C38.6489 17.8015 36.9778 18.8327 36.0593 20.3615H19.0934C18.1334 19.1823 16.6638 18.4238 15.0282 18.4238C12.1363 18.4238 9.78375 20.7764 9.78375 23.6682ZM4.08301 35.283C3.84005 35.5141 3.52005 35.6445 3.18227 35.6445C2.82079 35.6445 2.48301 35.5023 2.23412 35.2356C1.73634 34.7141 1.76005 33.8786 2.28153 33.3867L10.2578 25.8371C10.6252 26.649 11.2 27.3482 11.9052 27.8756L4.08301 35.283ZM15.0282 27.0401C13.1734 27.0401 11.6563 25.529 11.6563 23.6682C11.6563 21.8075 13.1675 20.2964 15.0282 20.2964C16.8889 20.2964 18.4 21.8075 18.4 23.6682C18.4 25.529 16.8889 27.0401 15.0282 27.0401ZM20.1363 24.8534C20.2252 24.4741 20.2726 24.0771 20.2726 23.6682C20.2726 23.1704 20.2015 22.6904 20.0712 22.2341H35.3838C35.3423 22.4949 35.3186 22.7675 35.3186 23.0401C35.3186 23.6741 35.4312 24.2845 35.6386 24.8475H20.1363V24.8534ZM40.5689 26.4119C38.7141 26.4119 37.1971 24.9008 37.1971 23.0401C37.1971 21.1853 38.7082 19.6682 40.5689 19.6682C42.4237 19.6682 43.9408 21.1793 43.9408 23.0401C43.9408 24.9008 42.4237 26.4119 40.5689 26.4119ZM62.1275 9.28599C62.1275 10.009 61.5408 10.5956 60.8178 10.5956C60.0949 10.5956 59.5082 10.009 59.5082 9.28599V5.42821C59.5082 4.91266 59.0875 4.49192 58.5719 4.49192H54.7141C53.9912 4.49192 53.4045 3.90525 53.4045 3.18229C53.4045 2.45933 53.9912 1.87266 54.7141 1.87266H60.8119C61.5349 1.87266 62.1215 2.45933 62.1215 3.18229V9.28599H62.1275Z" fill="#FBFEFF"/>
<path d="M12.3259 43.6978H2.08593C0.936296 43.6978 0 44.6281 0 45.7837V48.0889C0 48.5155 0.13037 48.9066 0.343704 49.2385C0.13037 49.5644 0 49.9615 0 50.3822V52.6874C0 53.114 0.13037 53.5052 0.343704 53.837C0.13037 54.1689 0 54.56 0 54.9866V57.2918C0 57.7185 0.13037 58.1096 0.343704 58.4415C0.124444 58.7733 0 59.1644 0 59.5911V61.8963C0 63.0459 0.936296 63.9822 2.08593 63.9822H12.3259C13.4756 63.9822 14.4119 63.0459 14.4119 61.8963V59.5911C14.4119 59.1644 14.2815 58.7733 14.0681 58.4415C14.2874 58.1096 14.4119 57.7185 14.4119 57.2918V54.9866C14.4119 54.56 14.2815 54.1689 14.0681 53.837C14.2874 53.5052 14.4119 53.114 14.4119 52.6874V50.3822C14.4119 49.9555 14.2815 49.5644 14.0681 49.2326C14.2874 48.9007 14.4119 48.5096 14.4119 48.0829V45.7778C14.4119 44.6281 13.4756 43.6978 12.3259 43.6978ZM1.87259 45.7837C1.87259 45.6652 1.96741 45.5763 2.08 45.5763H12.3259C12.4444 45.5763 12.5393 45.6711 12.5393 45.7837V48.0889C12.5393 48.2074 12.4444 48.3022 12.3259 48.3022H2.08593C1.96741 48.3022 1.87852 48.2074 1.87852 48.0889V45.7837H1.87259ZM12.5333 57.2918C12.5333 57.4103 12.4385 57.5052 12.32 57.5052H2.08593C1.96741 57.5052 1.87852 57.4103 1.87852 57.2918V54.9866C1.87852 54.8681 1.97333 54.7733 2.08593 54.7733H2.09185H12.3141H12.32C12.4385 54.7733 12.5333 54.8681 12.5333 54.9866V57.2918ZM12.5333 52.6874C12.5333 52.8059 12.4385 52.9007 12.32 52.9007H2.08593C1.96741 52.9007 1.87852 52.8059 1.87852 52.6874V50.3822C1.87852 50.2637 1.97333 50.1689 2.08593 50.1689H2.09185H12.32H12.3259C12.4444 50.1689 12.5393 50.2637 12.5393 50.3822L12.5333 52.6874ZM12.5333 61.8903C12.5333 62.0089 12.4385 62.1037 12.32 62.1037H2.08593C1.96741 62.1037 1.87852 62.0089 1.87852 61.8903V59.5852C1.87852 59.4666 1.97333 59.3718 2.08593 59.3718H2.09185H12.32H12.3259C12.4444 59.3718 12.5393 59.4666 12.5393 59.5852V61.8903H12.5333Z" fill="#FBFEFF"/>
<path d="M28.8534 34.4888H18.6134C17.4638 34.4888 16.5275 35.4251 16.5275 36.5747V38.8799C16.5275 39.3065 16.6578 39.6977 16.8712 40.0295C16.6519 40.3614 16.5275 40.7525 16.5275 41.1791V43.4843C16.5275 43.911 16.6578 44.3021 16.8712 44.634C16.6519 44.9658 16.5275 45.3569 16.5275 45.7836V48.0888C16.5275 48.5154 16.6578 48.9065 16.8712 49.2384C16.6519 49.5703 16.5275 49.9614 16.5275 50.388V52.6932C16.5275 53.1199 16.6578 53.511 16.8712 53.8428C16.6519 54.1747 16.5275 54.5658 16.5275 54.9925V57.2977C16.5275 57.7243 16.6578 58.1154 16.8712 58.4473C16.6519 58.7791 16.5275 59.1703 16.5275 59.5969V61.9021C16.5275 63.0517 17.4638 63.988 18.6134 63.988H28.8534C30.003 63.988 30.9393 63.0517 30.9393 61.9021V59.5969C30.9393 59.1703 30.8089 58.7791 30.5956 58.4473C30.8149 58.1154 30.9393 57.7243 30.9393 57.2977V54.9925C30.9393 54.5658 30.8089 54.1747 30.5956 53.8428C30.8149 53.511 30.9393 53.1199 30.9393 52.6932V50.388C30.9393 49.9614 30.8089 49.5703 30.5956 49.2384C30.8149 48.9065 30.9393 48.5154 30.9393 48.0888V45.7836C30.9393 45.3569 30.8089 44.9658 30.5956 44.634C30.8149 44.3021 30.9393 43.911 30.9393 43.4843V41.1791C30.9393 40.7525 30.8089 40.3614 30.5956 40.0295C30.8149 39.6977 30.9393 39.3065 30.9393 38.8799V36.5747C30.9393 35.4251 30.003 34.4888 28.8534 34.4888ZM18.406 36.5747C18.406 36.4562 18.5008 36.3614 18.6193 36.3614H28.8593C28.9778 36.3614 29.0727 36.4562 29.0727 36.5747V38.8799C29.0727 38.9984 28.9778 39.0932 28.8593 39.0932H18.6134C18.4949 39.0932 18.4001 38.9984 18.4001 38.8799V36.5747H18.406ZM29.0667 52.6873C29.0667 52.8058 28.9719 52.9006 28.8534 52.9006H24.7112C24.1956 52.9006 23.7749 53.3214 23.7749 53.8369C23.7749 54.3525 24.1956 54.7732 24.7112 54.7732H28.8415H28.8475C28.966 54.7732 29.0608 54.868 29.0608 54.9865V57.2917C29.0608 57.4103 28.966 57.5051 28.8475 57.5051H18.6134C18.4949 57.5051 18.4001 57.4103 18.4001 57.2917V54.9865C18.4001 54.868 18.4949 54.7732 18.6134 54.7732H18.6193H20.3319C20.8475 54.7732 21.2682 54.3525 21.2682 53.8369C21.2682 53.3214 20.8475 52.9006 20.3319 52.9006H18.6134C18.4949 52.9006 18.4001 52.8058 18.4001 52.6873V50.3821C18.4001 50.2636 18.4949 50.1688 18.6134 50.1688H18.6193H28.8415H28.8475C28.966 50.1688 29.0608 50.2636 29.0608 50.3821L29.0667 52.6873ZM29.0667 48.0888C29.0667 48.2073 28.9719 48.2962 28.8534 48.2962H18.6134C18.4949 48.2962 18.4001 48.2014 18.4001 48.0888V45.7836C18.4001 45.6651 18.4949 45.5703 18.6134 45.5703C18.6193 45.5703 18.6193 45.5703 18.6252 45.5703H28.8415C28.8475 45.5703 28.8475 45.5703 28.8534 45.5703C28.9719 45.5703 29.0667 45.6651 29.0667 45.7836V48.0888ZM29.0667 43.4843C29.0667 43.6028 28.9719 43.6977 28.8534 43.6977H18.6134C18.4949 43.6977 18.4001 43.6028 18.4001 43.4843V41.1791C18.4001 41.0606 18.4949 40.9658 18.6134 40.9658C18.6193 40.9658 18.6193 40.9658 18.6252 40.9658H28.8475C28.8534 40.9658 28.8534 40.9658 28.8593 40.9658C28.9778 40.9658 29.0727 41.0606 29.0727 41.1791V43.4843H29.0667ZM29.0667 61.8903C29.0667 62.0088 28.9719 62.1036 28.8534 62.1036H18.6134C18.4949 62.1036 18.4001 62.0088 18.4001 61.8903V59.5851C18.4001 59.4665 18.4949 59.3717 18.6134 59.3717H18.6193H28.8475H28.8534C28.9719 59.3717 29.0667 59.4665 29.0667 59.5851V61.8903Z" fill="#FBFEFF"/>
<path d="M45.3867 34.4888H35.1467C33.9971 34.4888 33.0608 35.4251 33.0608 36.5747V38.8799C33.0608 39.3065 33.1912 39.6977 33.4045 40.0295C33.1852 40.3614 33.0608 40.7525 33.0608 41.1791V43.4843C33.0608 43.911 33.1912 44.3021 33.4045 44.634C33.1852 44.9658 33.0608 45.3569 33.0608 45.7836V48.0888C33.0608 48.5154 33.1912 48.9065 33.4045 49.2384C33.1852 49.5703 33.0608 49.9614 33.0608 50.388V52.6932C33.0608 53.1199 33.1912 53.511 33.4045 53.8428C33.1852 54.1747 33.0608 54.5658 33.0608 54.9925V57.2977C33.0608 57.7243 33.1912 58.1154 33.4045 58.4473C33.1852 58.7791 33.0608 59.1703 33.0608 59.5969V61.9021C33.0608 63.0517 33.9971 63.988 35.1467 63.988H45.3867C46.5363 63.988 47.4726 63.0517 47.4726 61.9021V59.5969C47.4726 59.1703 47.3423 58.7791 47.1289 58.4473C47.3482 58.1154 47.4726 57.7243 47.4726 57.2977V54.9925C47.4726 54.5658 47.3423 54.1747 47.1289 53.8428C47.3482 53.511 47.4726 53.1199 47.4726 52.6932V50.388C47.4726 49.9614 47.3423 49.5703 47.1289 49.2384C47.3482 48.9065 47.4726 48.5154 47.4726 48.0888V45.7836C47.4726 45.3569 47.3423 44.9658 47.1289 44.634C47.3482 44.3021 47.4726 43.911 47.4726 43.4843V41.1791C47.4726 40.7525 47.3423 40.3614 47.1289 40.0295C47.3482 39.6977 47.4726 39.3065 47.4726 38.8799V36.5747C47.4726 35.4251 46.5363 34.4888 45.3867 34.4888ZM34.9334 36.5747C34.9334 36.4562 35.0282 36.3614 35.1467 36.3614H45.3867C45.5052 36.3614 45.6 36.4562 45.6 36.5747V38.8799C45.6 38.9984 45.5052 39.0932 45.3867 39.0932H35.1467C35.0282 39.0932 34.9334 38.9984 34.9334 38.8799V36.5747ZM45.5941 57.2917C45.5941 57.4103 45.4993 57.5051 45.3808 57.5051H35.1467C35.0282 57.5051 34.9334 57.4103 34.9334 57.2917V54.9865C34.9334 54.868 35.0282 54.7732 35.1467 54.7732H35.1526H45.3749H45.3808C45.4993 54.7732 45.5941 54.868 45.5941 54.9865V57.2917ZM45.5941 52.6873C45.5941 52.8058 45.4993 52.9006 45.3808 52.9006H35.1467C35.0282 52.9006 34.9334 52.8058 34.9334 52.6873V50.3821C34.9334 50.2636 35.0282 50.1747 35.1467 50.1747H35.1526H45.3749H45.3808C45.4993 50.1747 45.5941 50.2695 45.5941 50.3821V52.6873ZM45.5941 48.0888C45.5941 48.2073 45.4993 48.3021 45.3808 48.3021H35.1467C35.0282 48.3021 34.9334 48.2073 34.9334 48.0888V45.7836C34.9334 45.6651 35.0282 45.5703 35.1467 45.5703H35.1526H45.3808H45.3867C45.5052 45.5703 45.6 45.6651 45.6 45.7836V48.0888H45.5941ZM45.5941 43.4843C45.5941 43.6028 45.4993 43.6917 45.3808 43.6917H35.1467C35.0282 43.6917 34.9334 43.5969 34.9334 43.4843V41.1791C34.9334 41.0606 35.0282 40.9658 35.1467 40.9658C35.1526 40.9658 35.1526 40.9658 35.1586 40.9658H45.3808C45.3867 40.9658 45.3867 40.9658 45.3926 40.9658C45.5112 40.9658 45.606 41.0606 45.606 41.1791L45.5941 43.4843ZM45.5941 61.8903C45.5941 62.0088 45.4993 62.1036 45.3808 62.1036H35.1467C35.0282 62.1036 34.9334 62.0088 34.9334 61.8903V59.5851C34.9334 59.4665 35.0282 59.3717 35.1467 59.3717H35.1526H45.3808H45.3867C45.5052 59.3717 45.6 59.4665 45.6 59.5851V61.8903H45.5941Z" fill="#FBFEFF"/>
<path d="M61.9141 25.2859H59.4192C58.9037 25.2859 58.483 25.7066 58.483 26.2222C58.483 26.7377 58.9037 27.1585 59.4192 27.1585H61.9141C62.0326 27.1585 62.1274 27.2533 62.1274 27.3718V29.677C62.1274 29.7955 62.0326 29.8903 61.9141 29.8903H51.6741C51.5555 29.8903 51.4607 29.7955 51.4607 29.677V27.3718C51.4607 27.2533 51.5555 27.1585 51.6741 27.1585H55.0341C55.5496 27.1585 55.9704 26.7377 55.9704 26.2222C55.9704 25.7066 55.5496 25.2859 55.0341 25.2859H51.6741C50.5244 25.2859 49.5881 26.2222 49.5881 27.3718V29.677C49.5881 30.1037 49.7185 30.4948 49.9318 30.8266C49.7126 31.1585 49.5881 31.5496 49.5881 31.9762V34.2814C49.5881 34.7081 49.7185 35.0992 49.9318 35.4311C49.7126 35.7629 49.5881 36.154 49.5881 36.5807V38.8859C49.5881 39.3125 49.7185 39.7036 49.9318 40.0355C49.7126 40.3673 49.5881 40.7585 49.5881 41.1851V43.4903C49.5881 43.917 49.7185 44.3081 49.9318 44.6399C49.7126 44.9718 49.5881 45.3629 49.5881 45.7896V48.0947C49.5881 48.5214 49.7185 48.9125 49.9318 49.2444C49.7126 49.5762 49.5881 49.9673 49.5881 50.394V52.6992C49.5881 53.1258 49.7185 53.517 49.9318 53.8488C49.7126 54.1807 49.5881 54.5718 49.5881 54.9984V57.3036C49.5881 57.7303 49.7185 58.1214 49.9318 58.4532C49.7126 58.7851 49.5881 59.1762 49.5881 59.6029V61.9081C49.5881 63.0577 50.5244 63.994 51.6741 63.994H61.9141C63.0637 63.994 64 63.0577 64 61.9081V59.6029C64 59.1762 63.8696 58.7851 63.6563 58.4532C63.8755 58.1214 64 57.7303 64 57.3036V54.9984C64 54.5718 63.8696 54.1807 63.6563 53.8488C63.8755 53.517 64 53.1258 64 52.6992V50.394C64 49.9673 63.8696 49.5762 63.6563 49.2444C63.8755 48.9125 64 48.5214 64 48.0947V45.7896C64 45.3629 63.8696 44.9718 63.6563 44.6399C63.8755 44.3081 64 43.917 64 43.4903V41.1851C64 40.7585 63.8696 40.3673 63.6563 40.0355C63.8755 39.7036 64 39.3125 64 38.8859V36.5807C64 36.154 63.8696 35.7629 63.6563 35.4311C63.8755 35.0992 64 34.7081 64 34.2814V31.9762C64 31.5496 63.8696 31.1585 63.6563 30.8266C63.8755 30.4948 64 30.1037 64 29.677V27.3718C64 26.2222 63.0637 25.2859 61.9141 25.2859ZM62.1274 57.2918C62.1274 57.4103 62.0326 57.5051 61.9141 57.5051H51.6741C51.5555 57.5051 51.4607 57.4103 51.4607 57.2918V54.9866C51.4607 54.8681 51.5555 54.7792 51.6741 54.7792H51.68H61.9022H61.9081C62.0267 54.7792 62.1215 54.874 62.1215 54.9866V57.2918H62.1274ZM62.1274 52.6873C62.1274 52.8058 62.0326 52.9007 61.9141 52.9007H51.6741C51.5555 52.9007 51.4607 52.8058 51.4607 52.6873V50.3821C51.4607 50.2636 51.5555 50.1688 51.6741 50.1688H51.68H61.9022H61.9081C62.0267 50.1688 62.1215 50.2636 62.1215 50.3821V52.6873H62.1274ZM62.1274 48.0888C62.1274 48.2073 62.0326 48.3021 61.9141 48.3021H51.6741C51.5555 48.3021 51.4607 48.2073 51.4607 48.0888V45.7836C51.4607 45.6651 51.5555 45.5703 51.6741 45.5703H51.68H61.9081H61.9141C62.0326 45.5703 62.1274 45.6651 62.1274 45.7836V48.0888ZM62.1274 43.4844C62.1274 43.6029 62.0326 43.6977 61.9141 43.6977H51.6741C51.5555 43.6977 51.4607 43.6029 51.4607 43.4844V41.1792C51.4607 41.0607 51.5555 40.9659 51.6741 40.9659H51.68H61.9081H61.9141C62.0326 40.9659 62.1274 41.0607 62.1274 41.1792V43.4844ZM62.1274 38.8799C62.1274 38.9985 62.0326 39.0933 61.9141 39.0933H51.6741C51.5555 39.0933 51.4607 38.9985 51.4607 38.8799V36.5748C51.4607 36.4562 51.5555 36.3674 51.6741 36.3674C51.6741 36.3674 51.6741 36.3674 51.68 36.3674H61.9141C61.9141 36.3674 61.9141 36.3674 61.92 36.3674C62.0385 36.3674 62.1333 36.4622 62.1333 36.5748V38.8799H62.1274ZM62.1274 34.2814C62.1274 34.3999 62.0326 34.4948 61.9141 34.4948H51.6741C51.5555 34.4948 51.4607 34.3999 51.4607 34.2814V31.9762C51.4607 31.8577 51.5555 31.7629 51.6741 31.7629H51.68H61.9081H61.9141C62.0326 31.7629 62.1274 31.8577 62.1274 31.9762V34.2814ZM62.1274 61.8903C62.1274 62.0088 62.0326 62.0977 61.9141 62.0977H51.6741C51.5555 62.0977 51.4607 62.0029 51.4607 61.8903V59.5851C51.4607 59.4666 51.5555 59.3718 51.6741 59.3718H51.68H61.9081H61.9141C62.0326 59.3718 62.1274 59.4666 62.1274 59.5851V61.8903Z" fill="#FBFEFF"/>
</g>
<defs>
<clipPath id="clip0">
<rect width="64" height="64" fill="white"/>
</clipPath>
</defs>
</svg>
