<svg width="64" height="64" viewBox="0 0 64 64" fill="none" xmlns="http://www.w3.org/2000/svg">
<path d="M57.9259 8.93625H46.4711V5.17922C46.4711 4.66366 46.0503 4.24292 45.5348 4.24292C45.0192 4.24292 44.5985 4.66366 44.5985 5.17922V8.94218H40.717C40.2014 8.94218 39.7807 9.36292 39.7807 9.87848C39.7807 10.394 40.2014 10.8148 40.717 10.8148H44.5985V14.7851H43.8933C42.9096 14.7851 42.1096 15.5851 42.1096 16.5688V27.597C42.1096 28.5807 42.9096 29.3807 43.8933 29.3807H44.5985V36.8118C44.5985 37.3274 45.0192 37.7481 45.5348 37.7481C46.0503 37.7481 46.4711 37.3274 46.4711 36.8118V29.3688H47.1763C48.16 29.3688 48.96 28.5688 48.96 27.5851V16.5629C48.96 15.5792 48.16 14.7792 47.1763 14.7792H46.4711V10.8088H57.9259C60.1777 10.8088 62.0088 12.64 62.0088 14.8918V46.9629H1.99107V14.8977C1.99107 12.6459 3.82218 10.8148 6.07403 10.8148H22.5007V12.6459H21.7955C20.8118 12.6459 20.0118 13.4459 20.0118 14.4296V25.4577C20.0118 26.4414 20.8118 27.2414 21.7955 27.2414H22.5007V35.52C22.5007 36.0355 22.9214 36.4563 23.437 36.4563C23.9526 36.4563 24.3733 36.0355 24.3733 35.52V27.2355H25.0785C26.0622 27.2355 26.8622 26.4355 26.8622 25.4518V14.4237C26.8622 13.44 26.0622 12.64 25.0785 12.64H24.3733V10.8088H28.2548C28.7703 10.8088 29.1911 10.3881 29.1911 9.87255C29.1911 9.35699 28.7703 8.93625 28.2548 8.93625H24.3733V8.47403C24.3733 7.95848 23.9526 7.53773 23.437 7.53773C22.9214 7.53773 22.5007 7.95848 22.5007 8.47403V8.93625H6.07403C2.78514 8.93625 0.112549 11.6088 0.112549 14.8977V47.9051C0.112549 51.1881 2.78514 53.8607 6.0681 53.8607H20.3318V58.6251L17.3096 62.1274H16.1185C15.6029 62.1274 15.1822 62.5481 15.1822 63.0637C15.1822 63.5792 15.6029 64 16.1185 64H47.7985C48.314 64 48.7348 63.5792 48.7348 63.0637C48.7348 62.5481 48.314 62.1274 47.7985 62.1274H46.6844L43.6622 58.6251V53.8607H57.9259C61.2088 53.8607 63.8814 51.1881 63.8814 47.9051V14.8977C63.8874 11.6088 61.2148 8.93625 57.9259 8.93625ZM47.0814 27.4963H43.9881V16.6518H47.0814V27.4963ZM24.9837 25.357H21.8903V14.5125H24.9837V25.357ZM57.9259 51.9822H38.9629C38.4474 51.9822 38.0266 52.4029 38.0266 52.9185C38.0266 53.434 38.4474 53.8548 38.9629 53.8548H41.7896V58.0326H39.4548C38.9392 58.0326 38.5185 58.4533 38.5185 58.9688C38.5185 59.4844 38.9392 59.9051 39.4548 59.9051H42.2992L44.2133 62.1214H19.7866L21.7007 59.9051H24.5451C25.0607 59.9051 25.4814 59.4844 25.4814 58.9688C25.4814 58.4533 25.0607 58.0326 24.5451 58.0326H22.2103V53.8548H34.9748C35.4903 53.8548 35.9111 53.434 35.9111 52.9185C35.9111 52.4029 35.4903 51.9822 34.9748 51.9822H6.07403C4.14218 51.9822 2.5244 50.637 2.09773 48.8355H61.9022C61.4755 50.637 59.8577 51.9822 57.9259 51.9822Z" fill="white"/>
<path d="M9.90212 27.3541C9.38656 27.3541 8.96582 27.7748 8.96582 28.2904V30.5541C8.96582 31.5378 9.76582 32.3378 10.7495 32.3378H11.4547V37.3274C11.4547 37.843 11.8755 38.2637 12.391 38.2637C12.9066 38.2637 13.3273 37.843 13.3273 37.3274V32.3378H14.0325C15.0162 32.3378 15.8162 31.5378 15.8162 30.5541V19.5259C15.8162 18.5422 15.0162 17.7422 14.0325 17.7422H13.3273V16.2429C13.3273 15.7274 12.9066 15.3066 12.391 15.3066C11.8755 15.3066 11.4547 15.7274 11.4547 16.2429V17.7422H10.7495C9.76582 17.7422 8.96582 18.5422 8.96582 19.5259V24.3022C8.96582 24.8178 9.38656 25.2385 9.90212 25.2385C10.4177 25.2385 10.8384 24.8178 10.8384 24.3022V19.6207H12.3851H13.9318V30.4652H10.8384V28.2963C10.8384 27.7748 10.4177 27.3541 9.90212 27.3541Z" fill="white"/>
<path d="M32.8414 25.3807H33.5466V30.3704C33.5466 30.8859 33.9673 31.3067 34.4829 31.3067C34.9984 31.3067 35.4192 30.8859 35.4192 30.3704V25.3807H36.1244C37.1081 25.3807 37.9081 24.5807 37.9081 23.597V16.2489C37.9081 15.7333 37.4873 15.3126 36.9718 15.3126C36.4562 15.3126 36.0355 15.7333 36.0355 16.2489V23.5081H32.9421V6.5363H36.0295V12.2548C36.0295 12.7704 36.4503 13.1911 36.9658 13.1911C37.4814 13.1911 37.9021 12.7704 37.9021 12.2548V6.44741C37.9021 5.4637 37.1021 4.6637 36.1184 4.6637H35.4132V0.936296C35.4132 0.420741 34.9925 0 34.4769 0C33.9614 0 33.5406 0.420741 33.5406 0.936296V4.6637H32.8355C31.8518 4.6637 31.0518 5.4637 31.0518 6.44741V23.597C31.0636 24.5807 31.8636 25.3807 32.8414 25.3807Z" fill="white"/>
<path d="M50.9392 25.6891C51.1111 26.0031 51.4311 26.1809 51.7629 26.1809C51.9111 26.1809 52.0651 26.1454 52.2074 26.0683L56.5215 23.7394L56.2133 24.5572C56.0296 25.0431 56.2726 25.5824 56.7526 25.7661C56.8652 25.8076 56.9778 25.8253 57.0844 25.8253C57.4637 25.8253 57.8193 25.5942 57.9615 25.2209L59.0163 22.4535C59.2 21.9676 58.957 21.4283 58.477 21.2446L55.5378 20.1246C55.0518 19.9409 54.5126 20.1839 54.3289 20.6639C54.1452 21.1498 54.3881 21.689 54.8681 21.8727L55.5496 22.1335L51.3126 24.415C50.8681 24.6639 50.6963 25.2328 50.9392 25.6891Z" fill="white"/>
<path d="M5.65319 43.9942C5.80726 44.3497 6.15097 44.563 6.51245 44.563C6.63689 44.563 6.76134 44.5393 6.87985 44.486L18.9687 39.3127L20.065 42.1927C20.1599 42.4475 20.3613 42.643 20.6162 42.7379C20.871 42.8327 21.1495 42.8149 21.3865 42.6845L41.3628 31.9171C41.8191 31.6742 41.991 31.1053 41.7421 30.649C41.4991 30.1927 40.9302 30.0209 40.4739 30.2697L21.4458 40.5275L20.3791 37.7364C20.2902 37.4994 20.1065 37.3097 19.8695 37.209C19.6324 37.1082 19.3717 37.1082 19.1347 37.209L6.14504 42.7675C5.67097 42.969 5.45171 43.5201 5.65319 43.9942Z" fill="white"/>
</svg>
