<svg width="32" height="33" viewBox="0 0 32 33" fill="none" xmlns="http://www.w3.org/2000/svg">
<circle cx="16" cy="16.0249" r="16" fill="#8DC33F"/>
<g clip-path="url(#clip0)">
<path d="M23 11.684C22.4794 11.9124 21.9246 12.0638 21.3462 12.1373C21.9412 11.782 22.3954 11.2238 22.6089 10.5509C22.0541 10.8817 21.4416 11.1153 20.7889 11.2457C20.2621 10.6848 19.5114 10.3374 18.6924 10.3374C17.1034 10.3374 15.8241 11.6272 15.8241 13.2083C15.8241 13.4358 15.8434 13.6545 15.8906 13.8628C13.5045 13.7464 11.3931 12.6028 9.97475 10.8607C9.72712 11.2903 9.58188 11.782 9.58188 12.3114C9.58188 13.3054 10.0938 14.1865 10.8568 14.6967C10.3956 14.6879 9.94325 14.554 9.56 14.3432C9.56 14.3519 9.56 14.3633 9.56 14.3747C9.56 15.7694 10.5549 16.9279 11.8595 17.1948C11.6259 17.2587 11.3712 17.2893 11.107 17.2893C10.9232 17.2893 10.7377 17.2788 10.5636 17.2403C10.9355 18.3769 11.9908 19.2125 13.2455 19.2397C12.269 20.0035 11.0291 20.4638 9.68688 20.4638C9.4515 20.4638 9.22575 20.4533 9 20.4244C10.2714 21.2443 11.7781 21.7124 13.403 21.7124C18.6845 21.7124 21.572 17.3374 21.572 13.5452C21.572 13.4183 21.5676 13.2958 21.5615 13.1742C22.1311 12.7699 22.6097 12.265 23 11.684Z" fill="black"/>
</g>
<defs>
<clipPath id="clip0">
<rect width="14" height="14" fill="white" transform="translate(9 9.0249)"/>
</clipPath>
</defs>
</svg>
